SplineFontDB: 3.0
FontName: DEV-KautilyaBold
FullName: DEV Kautilya Bold
FamilyName: DEV Kautilya
Weight: Bold
Copyright: Copyright (c) 2009-2015, NLCI (http://www.nlci.in/fonts/)
Version: 1.0 Wed Sep 13 15:10:10 1995
ItalicAngle: 0
UnderlinePosition: -594
UnderlineWidth: 41
Ascent: 1638
Descent: 410
InvalidEm: 0
LayerCount: 2
Layer: 0 0 "Back" 1
Layer: 1 0 "Fore" 0
XUID: [1021 247 131519056 10052461]
FSType: 0
OS2Version: 0
OS2_WeightWidthSlopeOnly: 0
OS2_UseTypoMetrics: 1
CreationTime: 1258083950
ModificationTime: 1433222641
PfmFamily: 81
TTFWeight: 700
TTFWidth: 5
LineGap: 0
VLineGap: 0
Panose: 5 0 0 0 0 0 0 0 0 0
OS2TypoAscent: 131
OS2TypoAOffset: 1
OS2TypoDescent: -356
OS2TypoDOffset: 1
OS2TypoLinegap: 0
OS2WinAscent: -707
OS2WinAOffset: 1
OS2WinDescent: -306
OS2WinDOffset: 1
HheadAscent: -707
HheadAOffset: 1
HheadDescent: 306
HheadDOffset: 1
OS2SubXSize: 1434
OS2SubYSize: 1331
OS2SubXOff: 0
OS2SubYOff: 293
OS2SupXSize: 1434
OS2SupYSize: 1331
OS2SupXOff: 0
OS2SupYOff: 928
OS2StrikeYSize: 102
OS2StrikeYPos: 530
OS2Vendor: 'Alts'
OS2UnicodeRanges: 00000000.00000000.00000000.00000000
Lookup: 1 0 0 "Wide I-matra" { "Wide I-matra-1"  } []
Lookup: 1 0 0 "'nukt' Nukta Forms in Devanagari lookup 6" { "'locl' Local Forms in Devanagari lookup 6-1"  } ['nukt' ('deva' <'NEP ' > ) ]
Lookup: 4 0 0 "'akhn' Akhand in Devanagari lookup 0" { "'akhn' Akhand in Devanagari lookup 0 subtable"  } ['akhn' ('deva' <'HIN ' 'NEP ' 'dflt' > ) ]
Lookup: 4 0 0 "'rphf' Reph Form in Devanagari lookup 1" { "'rphf' Reph Form in Devanagari lookup 1 subtable"  } ['rphf' ('deva' <'HIN ' 'NEP ' 'dflt' > ) ]
Lookup: 4 0 0 "'blwf' Below Base Forms in Devanagari lookup 2" { "'blwf' Below Base Forms in Devanagari lookup 2 subtable"  } ['blwf' ('deva' <'HIN ' 'NEP ' 'dflt' > ) ]
Lookup: 4 8 0 "'half' Half Forms in Devanagari lookup 3" { "'half' Half Forms in Devanagari lookup 3 subtable"  } ['half' ('deva' <'HIN ' 'NEP ' 'dflt' > ) ]

StartChar: .notdef
Encoding: 65536 -1 0
Width: 1024
Flags: HW
LayerCount: 2
Back
Fore
SplineSet
64 0 m 1
 64 1383 l 1
 960 1383 l 1
 960 0 l 1
 64 0 l 1
896 64 m 1
 896 1319 l 1
 128 1319 l 1
 128 64 l 1
 896 64 l 1
EndSplineSet
EndChar

StartChar: quotedbl
Encoding: 34 34 3
Width: 803
GlyphClass: 2
Flags: HW
LayerCount: 2
Back
Fore
SplineSet
162 854 m 1
 82 1333 l 1
 82 1371 91.1666666667 1402 109.5 1426 c 128
 127.833333333 1450 157.666666667 1462 199 1462 c 256
 240.333333333 1462 270.333333333 1450 289 1426 c 128
 307.666666667 1402 317 1371 317 1333 c 1
 238 854 l 1
 162 854 l 1
563 854 m 1
 483 1333 l 1
 483 1371 492.166666667 1402 510.5 1426 c 128
 528.833333333 1450 558.666666667 1462 600 1462 c 0
 642 1462 672.666666667 1450 692 1426 c 128
 711.333333333 1402 721 1371 721 1333 c 1
 639 854 l 1
 563 854 l 1
EndSplineSet
EndChar

StartChar: numbersign
Encoding: 35 35 4
Width: 1518
GlyphClass: 2
Flags: HW
LayerCount: 2
Back
Fore
SplineSet
678 848 m 1
 588 578 l 1
 842 578 l 1
 936 848 l 1
 678 848 l 1
1079 848 m 1
 991 578 l 1
 1309 578 l 1
 1309 449 l 1
 946 449 l 1
 791 -49 l 1
 649 -14 l 1
 801 449 l 1
 545 449 l 1
 385 -49 l 1
 248 -12 l 1
 401 449 l 1
 127 449 l 1
 127 578 l 1
 442 578 l 1
 530 848 l 1
 227 848 l 1
 227 983 l 1
 573 983 l 1
 731 1454 l 1
 868 1417 l 1
 717 983 l 1
 983 983 l 1
 1135 1454 l 1
 1276 1415 l 1
 1122 983 l 1
 1391 983 l 1
 1391 848 l 1
 1079 848 l 1
EndSplineSet
EndChar

StartChar: dollar
Encoding: 36 36 5
Width: 1202
GlyphClass: 2
Flags: HW
LayerCount: 2
Back
Fore
SplineSet
834 346 m 0
 834 380 827.666666667 408.666666667 815 432 c 128
 802.333333333 455.333333333 786.833333333 474.666666667 768.5 490 c 128
 750.166666667 505.333333333 730.333333333 517.5 709 526.5 c 128
 687.666666667 535.5 668.333333333 542.333333333 651 547 c 1
 651 133 l 1
 685 137.666666667 715.333333333 148.333333333 742 165 c 0
 753.333333333 171.666666667 764.5 180.333333333 775.5 191 c 128
 786.5 201.666666667 796.333333333 214.166666667 805 228.5 c 128
 813.666666667 242.833333333 820.666666667 259.666666667 826 279 c 128
 831.333333333 298.333333333 834 320.666666667 834 346 c 0
530 1237 m 1
 502.666666667 1233 478 1224 456 1210 c 0
 437.333333333 1197.33333333 420.5 1178.66666667 405.5 1154 c 128
 390.5 1129.33333333 383 1095 383 1051 c 0
 383 1009 390.5 975 405.5 949 c 128
 420.5 923 437.333333333 902.666666667 456 888 c 0
 478 870.666666667 502.666666667 858 530 850 c 1
 530 1237 l 1
1094 420 m 0
 1094 361.333333333 1083.16666667 308.333333333 1061.5 261 c 128
 1039.83333333 213.666666667 1009.33333333 172.333333333 970 137 c 128
 930.666666667 101.666666667 883.833333333 72.6666666667 829.5 50 c 128
 775.166666667 27.3333333333 715.666666667 11.3333333333 651 2 c 1
 651 -209 l 1
 530 -209 l 1
 530 0 l 1
 482.666666667 2 434.666666667 6 386 12 c 0
 344 17.3333333333 298.666666667 24.3333333333 250 33 c 128
 201.333333333 41.6666666667 155 53.3333333333 111 68 c 1
 111 422 l 1
 256 422 l 1
 299 182 l 1
 320.333333333 168.666666667 344.333333333 158.333333333 371 151 c 128
 397.666666667 143.666666667 422.666666667 138.333333333 446 135 c 0
 473.333333333 131 501.333333333 128.333333333 530 127 c 1
 530 578 l 1
 504.666666667 585.333333333 477 594 447 604 c 128
 417 614 386.833333333 626 356.5 640 c 128
 326.166666667 654 297 670.833333333 269 690.5 c 128
 241 710.166666667 216.166666667 733.5 194.5 760.5 c 128
 172.833333333 787.5 155.5 818.833333333 142.5 854.5 c 128
 129.5 890.166666667 123 931 123 977 c 0
 123 1023.66666667 128.833333333 1065 140.5 1101 c 128
 152.166666667 1137 167.5 1168.66666667 186.5 1196 c 128
 205.5 1223.33333333 227.166666667 1246.5 251.5 1265.5 c 128
 275.833333333 1284.5 300.666666667 1300.33333333 326 1313 c 0
 386 1343 454 1361.33333333 530 1368 c 1
 530 1520 l 1
 651 1520 l 1
 651 1368 l 1
 693 1368 735.833333333 1364.83333333 779.5 1358.5 c 128
 823.166666667 1352.16666667 863 1345.33333333 899 1338 c 0
 941 1329.33333333 982 1319.66666667 1022 1309 c 1
 1022 967 l 1
 881 967 l 1
 842 1194 l 2
 840.666666667 1198.66666667 831.5 1203.83333333 814.5 1209.5 c 128
 797.5 1215.16666667 778.166666667 1220.5 756.5 1225.5 c 128
 734.833333333 1230.5 713.833333333 1234.66666667 693.5 1238 c 128
 673.166666667 1241.33333333 659 1243 651 1243 c 1
 651 821 l 1
 673.666666667 815 700.333333333 807.5 731 798.5 c 128
 761.666666667 789.5 793.333333333 778.166666667 826 764.5 c 128
 858.666666667 750.833333333 891 734.166666667 923 714.5 c 128
 955 694.833333333 983.666666667 671.166666667 1009 643.5 c 128
 1034.33333333 615.833333333 1054.83333333 583.666666667 1070.5 547 c 128
 1086.16666667 510.333333333 1094 468 1094 420 c 0
EndSplineSet
EndChar

StartChar: percent
Encoding: 37 37 6
Width: 1831
GlyphClass: 2
Flags: HW
LayerCount: 2
Back
Fore
SplineSet
541 979 m 0
 541 1041.66666667 537.666666667 1094.33333333 531 1137 c 128
 524.333333333 1179.66666667 515.333333333 1213.83333333 504 1239.5 c 128
 492.666666667 1265.16666667 479 1283.5 463 1294.5 c 128
 447 1305.5 430 1311 412 1311 c 0
 392.666666667 1311 374.333333333 1305.5 357 1294.5 c 128
 339.666666667 1283.5 324.166666667 1265.16666667 310.5 1239.5 c 128
 296.833333333 1213.83333333 286 1179.66666667 278 1137 c 128
 270 1094.33333333 266 1041.66666667 266 979 c 0
 266 915.666666667 270 862.666666667 278 820 c 128
 286 777.333333333 296.833333333 743 310.5 717 c 128
 324.166666667 691 339.666666667 672.5 357 661.5 c 128
 374.333333333 650.5 392.666666667 645 412 645 c 0
 430 645 447 650.5 463 661.5 c 128
 479 672.5 492.666666667 691 504 717 c 128
 515.333333333 743 524.333333333 777.333333333 531 820 c 128
 537.666666667 862.666666667 541 915.666666667 541 979 c 0
1548 395 m 0
 1548 457.666666667 1544.83333333 510.333333333 1538.5 553 c 128
 1532.16666667 595.666666667 1523.33333333 629.833333333 1512 655.5 c 128
 1500.66666667 681.166666667 1487 699.5 1471 710.5 c 128
 1455 721.5 1437.66666667 727 1419 727 c 0
 1401 727 1383.5 721.5 1366.5 710.5 c 128
 1349.5 699.5 1334.66666667 681.166666667 1322 655.5 c 128
 1309.33333333 629.833333333 1299.16666667 595.666666667 1291.5 553 c 128
 1283.83333333 510.333333333 1280 457.666666667 1280 395 c 0
 1280 331.666666667 1283.83333333 278.833333333 1291.5 236.5 c 128
 1299.16666667 194.166666667 1309.33333333 160.166666667 1322 134.5 c 128
 1334.66666667 108.833333333 1349.5 90.5 1366.5 79.5 c 128
 1383.5 68.5 1401 63 1419 63 c 0
 1437.66666667 63 1455 68.5 1471 79.5 c 128
 1487 90.5 1500.66666667 108.833333333 1512 134.5 c 128
 1523.33333333 160.166666667 1532.16666667 194.166666667 1538.5 236.5 c 128
 1544.83333333 278.833333333 1548 331.666666667 1548 395 c 0
762 979 m 256
 762 912.333333333 754.666666667 852.5 740 799.5 c 128
 725.333333333 746.5 703.5 701.5 674.5 664.5 c 128
 645.5 627.5 609 599 565 579 c 128
 521 559 470 549 412 549 c 0
 353.333333333 549 302 559 258 579 c 128
 214 599 177.166666667 627.5 147.5 664.5 c 128
 117.833333333 701.5 95.6666666667 746.5 81 799.5 c 128
 66.3333333333 852.5 59 912.333333333 59 979 c 256
 59 1045.66666667 66.3333333333 1105.33333333 81 1158 c 128
 95.6666666667 1210.66666667 117.833333333 1255.5 147.5 1292.5 c 128
 177.166666667 1329.5 214 1357.83333333 258 1377.5 c 128
 302 1397.16666667 353.333333333 1407 412 1407 c 0
 470 1407 521 1397.16666667 565 1377.5 c 128
 609 1357.83333333 645.5 1329.5 674.5 1292.5 c 128
 703.5 1255.5 725.333333333 1210.66666667 740 1158 c 128
 754.666666667 1105.33333333 762 1045.66666667 762 979 c 256
563 0 m 1
 418 0 l 1
 1268 1374 l 1
 1415 1374 l 1
 563 0 l 1
1772 395 m 256
 1772 328.333333333 1764.5 268.666666667 1749.5 216 c 128
 1734.5 163.333333333 1712.33333333 118.5 1683 81.5 c 128
 1653.66666667 44.5 1617 16.1666666667 1573 -3.5 c 128
 1529 -23.1666666667 1477.66666667 -33 1419 -33 c 0
 1361 -33 1310.16666667 -23.1666666667 1266.5 -3.5 c 128
 1222.83333333 16.1666666667 1186.5 44.5 1157.5 81.5 c 128
 1128.5 118.5 1106.83333333 163.333333333 1092.5 216 c 128
 1078.16666667 268.666666667 1071 328.333333333 1071 395 c 256
 1071 461.666666667 1078.16666667 521.5 1092.5 574.5 c 128
 1106.83333333 627.5 1128.5 672.333333333 1157.5 709 c 128
 1186.5 745.666666667 1222.83333333 773.833333333 1266.5 793.5 c 128
 1310.16666667 813.166666667 1361 823 1419 823 c 0
 1477.66666667 823 1529 813.166666667 1573 793.5 c 128
 1617 773.833333333 1653.66666667 745.666666667 1683 709 c 128
 1712.33333333 672.333333333 1734.5 627.5 1749.5 574.5 c 128
 1764.5 521.5 1772 461.666666667 1772 395 c 256
EndSplineSet
EndChar

StartChar: ampersand
Encoding: 38 38 7
Width: 1505
GlyphClass: 2
Flags: HW
LayerCount: 2
Back
Fore
SplineSet
1026 0 m 1
 1026 49 l 1
 940 145 l 1
 908 113 871 84.6666666667 829 60 c 0
 811 49.3333333333 791 38.8333333333 769 28.5 c 128
 747 18.1666666667 723 9 697 1 c 128
 671 -7 643.166666667 -13.3333333333 613.5 -18 c 128
 583.833333333 -22.6666666667 552.666666667 -25 520 -25 c 0
 454 -25 393.833333333 -15.3333333333 339.5 4 c 128
 285.166666667 23.3333333333 238.666666667 50.5 200 85.5 c 128
 161.333333333 120.5 131.333333333 162.666666667 110 212 c 128
 88.6666666667 261.333333333 78 316.333333333 78 377 c 0
 78 425.666666667 84.8333333333 468.666666667 98.5 506 c 128
 112.166666667 543.333333333 131.666666667 576.333333333 157 605 c 128
 182.333333333 633.666666667 212.666666667 658 248 678 c 128
 283.333333333 698 322.333333333 715 365 729 c 1
 363 730.333333333 357.666666667 734.333333333 349 741 c 0
 339 748.333333333 327 758.5 313 771.5 c 128
 299 784.5 284 800.166666667 268 818.5 c 128
 252 836.833333333 237.166666667 857.833333333 223.5 881.5 c 128
 209.833333333 905.166666667 198.5 931.333333333 189.5 960 c 128
 180.5 988.666666667 176 1019.66666667 176 1053 c 0
 176 1109.66666667 187.833333333 1159.66666667 211.5 1203 c 128
 235.166666667 1246.33333333 267.166666667 1282.66666667 307.5 1312 c 128
 347.833333333 1341.33333333 395 1363.5 449 1378.5 c 128
 503 1393.5 560.333333333 1401 621 1401 c 0
 647.666666667 1401 676.166666667 1399 706.5 1395 c 128
 736.833333333 1391 767 1384 797 1374 c 128
 827 1364 855.833333333 1351 883.5 1335 c 128
 911.166666667 1319 935.5 1299.16666667 956.5 1275.5 c 128
 977.5 1251.83333333 994.333333333 1223.66666667 1007 1191 c 128
 1019.66666667 1158.33333333 1026 1121 1026 1079 c 0
 1026 1033 1019 993 1005 959 c 128
 991 925 973.333333333 895.5 952 870.5 c 128
 930.666666667 845.5 907.333333333 824.833333333 882 808.5 c 128
 856.666666667 792.166666667 832.666666667 779.166666667 810 769.5 c 128
 787.333333333 759.833333333 767.5 752.833333333 750.5 748.5 c 128
 733.5 744.166666667 723 741.666666667 719 741 c 1
 1034 414 l 1
 1050 434.666666667 1065 457 1079 481 c 0
 1091 501.666666667 1103 525.833333333 1115 553.5 c 128
 1127 581.166666667 1136.33333333 611 1143 643 c 0
 1143.66666667 649 1141.33333333 656 1136 664 c 128
 1130.66666667 672 1126 676.666666667 1122 678 c 2
 1016 696 l 1
 1016 793 l 1
 1446 793 l 1
 1446 696 l 1
 1305 668 l 1
 1288.33333333 614 1269 566 1247 524 c 128
 1225 482 1204.33333333 446.333333333 1185 417 c 0
 1161.66666667 383 1138 353.333333333 1114 328 c 1
 1307 121 l 1
 1473 104 l 1
 1473 0 l 1
 1026 0 l 1
451 657 m 1
 432.333333333 644.333333333 416 629.333333333 402 612 c 0
 390 596.666666667 379 577.333333333 369 554 c 128
 359 530.666666667 354 503 354 471 c 0
 354 413 362.833333333 363.666666667 380.5 323 c 128
 398.166666667 282.333333333 421.333333333 249.333333333 450 224 c 128
 478.666666667 198.666666667 511 180.333333333 547 169 c 128
 583 157.666666667 619 152 655 152 c 0
 689.666666667 152 719.5 156.166666667 744.5 164.5 c 128
 769.5 172.833333333 790.333333333 182 807 192 c 0
 826.333333333 204 842.666666667 217.666666667 856 233 c 1
 451 657 l 1
772 1075 m 0
 772 1103 768.333333333 1129.33333333 761 1154 c 128
 753.666666667 1178.66666667 743 1200.16666667 729 1218.5 c 128
 715 1236.83333333 698 1251.33333333 678 1262 c 128
 658 1272.66666667 635.333333333 1278 610 1278 c 0
 586.666666667 1278 565 1274 545 1266 c 128
 525 1258 507.666666667 1247 493 1233 c 128
 478.333333333 1219 466.833333333 1202.16666667 458.5 1182.5 c 128
 450.166666667 1162.83333333 446 1141.33333333 446 1118 c 0
 446 1095.33333333 449.5 1072.83333333 456.5 1050.5 c 128
 463.5 1028.16666667 474.833333333 1005 490.5 981 c 128
 506.166666667 957 526.333333333 931.333333333 551 904 c 128
 575.666666667 876.666666667 605.666666667 847 641 815 c 1
 661.666666667 833.666666667 680.166666667 852.333333333 696.5 871 c 128
 712.833333333 889.666666667 726.666666667 909.166666667 738 929.5 c 128
 749.333333333 949.833333333 757.833333333 971.833333333 763.5 995.5 c 128
 769.166666667 1019.16666667 772 1045.66666667 772 1075 c 0
EndSplineSet
EndChar

StartChar: quotesingle
Encoding: 39 39 8
Width: 360
GlyphClass: 2
Flags: HW
LayerCount: 2
Back
Fore
SplineSet
143 854 m 1
 63 1333 l 1
 63 1371 72 1402 90 1426 c 128
 108 1450 138 1462 180 1462 c 0
 221.333333333 1462 251.5 1450 270.5 1426 c 128
 289.5 1402 299 1371 299 1333 c 1
 217 854 l 1
 143 854 l 1
EndSplineSet
EndChar

StartChar: asterisk
Encoding: 42 42 9
Width: 1024
GlyphClass: 2
Flags: HW
LayerCount: 2
Back
Fore
SplineSet
418 733 m 1
 262 692 l 1
 256 852 l 1
 475 1012 l 1
 500 987 l 1
 418 733 l 1
463 1038 m 1
 197 1036 l 1
 109 1169 l 1
 256 1229 l 1
 475 1067 l 1
 463 1038 l 1
762 692 m 1
 606 733 l 1
 524 987 l 1
 549 1012 l 1
 768 852 l 1
 762 692 l 1
528 1092 m 1
 494 1092 l 1
 410 1348 l 1
 512 1470 l 1
 614 1348 l 1
 528 1092 l 1
825 1036 m 1
 561 1038 l 1
 547 1069 l 1
 764 1229 l 1
 915 1169 l 1
 825 1036 l 1
EndSplineSet
EndChar

StartChar: plus
Encoding: 43 43 10
Width: 2048
GlyphClass: 2
Flags: HW
LayerCount: 2
Back
Fore
SplineSet
1087 551 m 1
 1087 0 l 1
 961 0 l 1
 961 551 l 1
 410 551 l 1
 410 678 l 1
 961 678 l 1
 961 1229 l 1
 1087 1229 l 1
 1087 678 l 1
 1638 678 l 1
 1638 551 l 1
 1087 551 l 1
EndSplineSet
EndChar

StartChar: less
Encoding: 60 60 11
Width: 2048
GlyphClass: 2
Flags: HW
LayerCount: 2
Back
Fore
SplineSet
410 551 m 1
 410 678 l 1
 1638 1149 l 1
 1638 1022 l 1
 541 614 l 1
 1638 207 l 1
 1638 80 l 1
 410 551 l 1
EndSplineSet
EndChar

StartChar: equal
Encoding: 61 61 12
Width: 2048
GlyphClass: 2
Flags: HW
LayerCount: 2
Back
Fore
SplineSet
410 365 m 1
 410 492 l 1
 1638 492 l 1
 1638 365 l 1
 410 365 l 1
410 737 m 1
 410 864 l 1
 1638 864 l 1
 1638 737 l 1
 410 737 l 1
EndSplineSet
EndChar

StartChar: greater
Encoding: 62 62 13
Width: 2048
GlyphClass: 2
Flags: HW
LayerCount: 2
Back
Fore
SplineSet
410 80 m 1
 410 207 l 1
 1507 614 l 1
 410 1022 l 1
 410 1149 l 1
 1638 678 l 1
 1638 551 l 1
 410 80 l 1
EndSplineSet
EndChar

StartChar: at
Encoding: 64 64 14
Width: 1917
GlyphClass: 2
Flags: HW
LayerCount: 2
Back
Fore
SplineSet
1798 754 m 0
 1798 686 1790.5 622.833333333 1775.5 564.5 c 128
 1760.5 506.166666667 1740.16666667 452.833333333 1714.5 404.5 c 128
 1688.83333333 356.166666667 1658.83333333 313.166666667 1624.5 275.5 c 128
 1590.16666667 237.833333333 1553.33333333 206.166666667 1514 180.5 c 128
 1474.66666667 154.833333333 1434.16666667 135.333333333 1392.5 122 c 128
 1350.83333333 108.666666667 1310 102 1270 102 c 0
 1238.66666667 102 1212.5 106 1191.5 114 c 128
 1170.5 122 1153.16666667 132.5 1139.5 145.5 c 128
 1125.83333333 158.5 1115.5 173.666666667 1108.5 191 c 128
 1101.5 208.333333333 1096.66666667 226.666666667 1094 246 c 1
 1072.66666667 228 1051 210.5 1029 193.5 c 128
 1007 176.5 984.333333333 161.333333333 961 148 c 128
 937.666666667 134.666666667 913.666666667 124 889 116 c 128
 864.333333333 108 839 104 813 104 c 0
 766.333333333 104 725.333333333 112.5 690 129.5 c 128
 654.666666667 146.5 625 170.166666667 601 200.5 c 128
 577 230.833333333 558.833333333 266.666666667 546.5 308 c 128
 534.166666667 349.333333333 528 394.666666667 528 444 c 0
 528 520.666666667 542.166666667 592.833333333 570.5 660.5 c 128
 598.833333333 728.166666667 637.333333333 787.5 686 838.5 c 128
 734.666666667 889.5 791.833333333 929.833333333 857.5 959.5 c 128
 923.166666667 989.166666667 993 1004 1067 1004 c 0
 1083 1004 1099.16666667 1002 1115.5 998 c 128
 1131.83333333 994 1148 988.833333333 1164 982.5 c 128
 1180 976.166666667 1195.5 969.333333333 1210.5 962 c 128
 1225.5 954.666666667 1239.66666667 948 1253 942 c 1
 1280 993 l 1
 1452 993 l 1
 1442 955 l 2
 1437.33333333 935 1431.5 910.333333333 1424.5 881 c 128
 1417.5 851.666666667 1409.83333333 819 1401.5 783 c 128
 1393.16666667 747 1384.66666667 710.666666667 1376 674 c 0
 1356 588 1333.66666667 491.666666667 1309 385 c 0
 1303.66666667 362.333333333 1299.66666667 341.666666667 1297 323 c 128
 1294.33333333 304.333333333 1294.33333333 288.333333333 1297 275 c 128
 1299.66666667 261.666666667 1305.5 251.333333333 1314.5 244 c 128
 1323.5 236.666666667 1337.33333333 233 1356 233 c 0
 1369.33333333 233 1385.83333333 238.166666667 1405.5 248.5 c 128
 1425.16666667 258.833333333 1445.5 274 1466.5 294 c 128
 1487.5 314 1508.33333333 338.833333333 1529 368.5 c 128
 1549.66666667 398.166666667 1568.16666667 432.166666667 1584.5 470.5 c 128
 1600.83333333 508.833333333 1614.16666667 551.5 1624.5 598.5 c 128
 1634.83333333 645.5 1640 696.666666667 1640 752 c 0
 1640 816.666666667 1632.33333333 875.166666667 1617 927.5 c 128
 1601.66666667 979.833333333 1581 1026.33333333 1555 1067 c 128
 1529 1107.66666667 1498.16666667 1142.83333333 1462.5 1172.5 c 128
 1426.83333333 1202.16666667 1389 1226.66666667 1349 1246 c 128
 1309 1265.33333333 1267.33333333 1279.66666667 1224 1289 c 128
 1180.66666667 1298.33333333 1138 1303 1096 1303 c 0
 1024 1303 955.166666667 1294.16666667 889.5 1276.5 c 128
 823.833333333 1258.83333333 762.5 1233.83333333 705.5 1201.5 c 128
 648.5 1169.16666667 596.666666667 1129.66666667 550 1083 c 128
 503.333333333 1036.33333333 463.333333333 983.833333333 430 925.5 c 128
 396.666666667 867.166666667 371 803.833333333 353 735.5 c 128
 335 667.166666667 326 594.666666667 326 518 c 0
 326 412.666666667 342.333333333 315.833333333 375 227.5 c 128
 407.666666667 139.166666667 454 62.6666666667 514 -2 c 128
 574 -66.6666666667 646.333333333 -117 731 -153 c 128
 815.666666667 -189 910 -207 1014 -207 c 0
 1068 -207 1119.33333333 -202.5 1168 -193.5 c 128
 1216.66666667 -184.5 1263.66666667 -172.333333333 1309 -157 c 128
 1354.33333333 -141.666666667 1398.83333333 -123.5 1442.5 -102.5 c 128
 1486.16666667 -81.5 1529.66666667 -59 1573 -35 c 1
 1616 -137 l 1
 1570 -161 1522.33333333 -184.166666667 1473 -206.5 c 128
 1423.66666667 -228.833333333 1372.33333333 -248.5 1319 -265.5 c 128
 1265.66666667 -282.5 1209.5 -296.166666667 1150.5 -306.5 c 128
 1091.5 -316.833333333 1029.66666667 -322 965 -322 c 0
 885 -322 808.666666667 -313.5 736 -296.5 c 128
 663.333333333 -279.5 595.666666667 -254.666666667 533 -222 c 128
 470.333333333 -189.333333333 413.5 -149.666666667 362.5 -103 c 128
 311.5 -56.3333333333 268 -3.16666666667 232 56.5 c 128
 196 116.166666667 168.166666667 181.5 148.5 252.5 c 128
 128.833333333 323.5 119 399.666666667 119 481 c 0
 119 580.333333333 131 672.333333333 155 757 c 128
 179 841.666666667 212.5 918.333333333 255.5 987 c 128
 298.5 1055.66666667 349.666666667 1116.16666667 409 1168.5 c 128
 468.333333333 1220.83333333 533.166666667 1264.66666667 603.5 1300 c 128
 673.833333333 1335.33333333 748.5 1362 827.5 1380 c 128
 906.5 1398 987 1407 1069 1407 c 0
 1179.66666667 1407 1280 1392.33333333 1370 1363 c 128
 1460 1333.66666667 1536.66666667 1291.16666667 1600 1235.5 c 128
 1663.33333333 1179.83333333 1712.16666667 1111.5 1746.5 1030.5 c 128
 1780.83333333 949.5 1798 857.333333333 1798 754 c 0
1167 795 m 2
 1169 803 1168.5 813.166666667 1165.5 825.5 c 128
 1162.5 837.833333333 1157.33333333 849.666666667 1150 861 c 128
 1142.66666667 872.333333333 1132.66666667 882.166666667 1120 890.5 c 128
 1107.33333333 898.833333333 1092.33333333 903 1075 903 c 0
 1033.66666667 903 994.833333333 892 958.5 870 c 128
 922.166666667 848 890.333333333 817.5 863 778.5 c 128
 835.666666667 739.5 814 693 798 639 c 128
 782 585 774 526.333333333 774 463 c 0
 774 424.333333333 777.833333333 391.5 785.5 364.5 c 128
 793.166666667 337.5 803.333333333 315.5 816 298.5 c 128
 828.666666667 281.5 842.666666667 269.166666667 858 261.5 c 128
 873.333333333 253.833333333 889 250 905 250 c 0
 927 250 946.833333333 254.166666667 964.5 262.5 c 128
 982.166666667 270.833333333 998.166666667 281.333333333 1012.5 294 c 128
 1026.83333333 306.666666667 1040 320.333333333 1052 335 c 128
 1064 349.666666667 1075 363 1085 375 c 1
 1167 795 l 2
EndSplineSet
EndChar

StartChar: A
Encoding: 65 65 15
Width: 1405
GlyphClass: 2
Flags: HW
LayerCount: 2
Back
Fore
SplineSet
631 1092 m 1
 459 600 l 1
 807 600 l 1
 631 1092 l 1
829 0 m 1
 829 104 l 1
 950 119 l 2
 956.666666667 120.333333333 962.333333333 124.666666667 967 132 c 128
 971.666666667 139.333333333 972.333333333 146.666666667 969 154 c 1
 858 479 l 1
 420 479 l 1
 307 162 l 2
 303 151.333333333 305 141.666666667 313 133 c 128
 321 124.333333333 328.666666667 119.666666667 336 119 c 2
 451 104 l 1
 451 0 l 1
 10 0 l 1
 10 104 l 1
 125 121 l 1
 584 1407 l 1
 817 1407 l 1
 1272 158 l 1
 1277.33333333 145.333333333 1282.5 136.5 1287.5 131.5 c 128
 1292.5 126.5 1302.33333333 122.333333333 1317 119 c 2
 1395 104 l 1
 1395 0 l 1
 829 0 l 1
EndSplineSet
EndChar

StartChar: B
Encoding: 66 66 16
Width: 1309
GlyphClass: 2
Flags: HW
LayerCount: 2
Back
Fore
SplineSet
1233 399 m 0
 1233 335 1226 280.833333333 1212 236.5 c 128
 1198 192.166666667 1179.16666667 155.166666667 1155.5 125.5 c 128
 1131.83333333 95.8333333333 1104.16666667 72.6666666667 1072.5 56 c 128
 1040.83333333 39.3333333333 1007.5 26.8333333333 972.5 18.5 c 128
 937.5 10.1666666667 901.833333333 5 865.5 3 c 128
 829.166666667 1 794 0 760 0 c 2
 57 0 l 1
 57 104 l 1
 168 115 l 2
 180.666666667 116.333333333 191.333333333 120.833333333 200 128.5 c 128
 208.666666667 136.166666667 213 146.666666667 213 160 c 2
 213 1214 l 2
 213 1227.33333333 208.666666667 1238 200 1246 c 128
 191.333333333 1254 180.666666667 1258.66666667 168 1260 c 2
 57 1270 l 1
 57 1374 l 1
 717 1374 l 2
 741.666666667 1374 769.5 1372.83333333 800.5 1370.5 c 128
 831.5 1368.16666667 863.166666667 1363.16666667 895.5 1355.5 c 128
 927.833333333 1347.83333333 959.333333333 1337 990 1323 c 128
 1020.66666667 1309 1048.16666667 1290.16666667 1072.5 1266.5 c 128
 1096.83333333 1242.83333333 1116.33333333 1213.83333333 1131 1179.5 c 128
 1145.66666667 1145.16666667 1153 1104.33333333 1153 1057 c 0
 1153 1015.66666667 1147.33333333 979.333333333 1136 948 c 128
 1124.66666667 916.666666667 1110 889.333333333 1092 866 c 128
 1074 842.666666667 1054 823 1032 807 c 128
 1010 791 988.166666667 777.666666667 966.5 767 c 128
 944.833333333 756.333333333 924.666666667 748.166666667 906 742.5 c 128
 887.333333333 736.833333333 873 733 863 731 c 1
 887.666666667 730.333333333 914.166666667 728 942.5 724 c 128
 970.833333333 720 998.666666667 713.166666667 1026 703.5 c 128
 1053.33333333 693.833333333 1079.5 681 1104.5 665 c 128
 1129.5 649 1151.5 628.833333333 1170.5 604.5 c 128
 1189.5 580.166666667 1204.66666667 551.166666667 1216 517.5 c 128
 1227.33333333 483.833333333 1233 444.333333333 1233 399 c 0
926 385 m 0
 926 473 900.666666667 538.333333333 850 581 c 128
 799.333333333 623.666666667 718.666666667 645 608 645 c 2
 571 645 l 2
 556.333333333 645 534.666666667 644.333333333 506 643 c 1
 506 121 l 1
 521.333333333 120.333333333 535.666666667 119.666666667 549 119 c 0
 560.333333333 118.333333333 571.166666667 117.833333333 581.5 117.5 c 128
 591.833333333 117.166666667 598.666666667 117 602 117 c 0
 654 117 700.166666667 121.666666667 740.5 131 c 128
 780.833333333 140.333333333 814.833333333 155.666666667 842.5 177 c 128
 870.166666667 198.333333333 891 226 905 260 c 128
 919 294 926 335.666666667 926 385 c 0
852 1024 m 0
 852 1054 848.666666667 1083.16666667 842 1111.5 c 128
 835.333333333 1139.83333333 822.5 1165 803.5 1187 c 128
 784.5 1209 757.833333333 1226.66666667 723.5 1240 c 128
 689.166666667 1253.33333333 644.666666667 1260 590 1260 c 2
 580 1260 l 2
 578 1260 574.5 1259.83333333 569.5 1259.5 c 128
 564.5 1259.16666667 557.166666667 1258.66666667 547.5 1258 c 128
 537.833333333 1257.33333333 524 1256.33333333 506 1255 c 1
 506 768 l 1
 513.333333333 767.333333333 520.666666667 767 528 767 c 1
 534 766.333333333 539.666666667 766 545 766 c 2
 557 766 l 2
 615.666666667 766 664 772.666666667 702 786 c 128
 740 799.333333333 770.166666667 817.5 792.5 840.5 c 128
 814.833333333 863.5 830.333333333 890.833333333 839 922.5 c 128
 847.666666667 954.166666667 852 988 852 1024 c 0
EndSplineSet
EndChar

StartChar: C
Encoding: 67 67 17
Width: 1303
GlyphClass: 2
Flags: HW
LayerCount: 2
Back
Fore
SplineSet
1229 49 m 1
 1216.33333333 43.6666666667 1196.5 36.5 1169.5 27.5 c 128
 1142.5 18.5 1110 9.5 1072 0.5 c 128
 1034 -8.5 991.5 -16.3333333333 944.5 -23 c 128
 897.5 -29.6666666667 847.666666667 -33 795 -33 c 0
 725 -33 658.666666667 -25 596 -9 c 128
 533.333333333 7 475.333333333 30 422 60 c 128
 368.666666667 90 320.666666667 126.333333333 278 169 c 128
 235.333333333 211.666666667 199 259.833333333 169 313.5 c 128
 139 367.166666667 116 425.5 100 488.5 c 128
 84 551.5 76 618 76 688 c 0
 76 794.666666667 94.5 892 131.5 980 c 128
 168.5 1068 219.333333333 1143.66666667 284 1207 c 128
 348.666666667 1270.33333333 425 1319.5 513 1354.5 c 128
 601 1389.5 695.666666667 1407 797 1407 c 0
 835.666666667 1407 871 1405.33333333 903 1402 c 128
 935 1398.66666667 967.166666667 1393.5 999.5 1386.5 c 128
 1031.83333333 1379.5 1066.16666667 1370.66666667 1102.5 1360 c 128
 1138.83333333 1349.33333333 1181 1336.33333333 1229 1321 c 1
 1229 973 l 1
 1069 973 l 1
 1024 1202 l 2
 1024 1205.33333333 1021.33333333 1210.83333333 1016 1218.5 c 128
 1010.66666667 1226.16666667 1004.33333333 1231.66666667 997 1235 c 0
 991.666666667 1237.66666667 983.5 1240.83333333 972.5 1244.5 c 128
 961.5 1248.16666667 949.166666667 1251.66666667 935.5 1255 c 128
 921.833333333 1258.33333333 907.666666667 1261.33333333 893 1264 c 128
 878.333333333 1266.66666667 864.666666667 1268 852 1268 c 0
 782 1268 718.833333333 1254.16666667 662.5 1226.5 c 128
 606.166666667 1198.83333333 558.333333333 1159.5 519 1108.5 c 128
 479.666666667 1057.5 449.5 996.166666667 428.5 924.5 c 128
 407.5 852.833333333 397 772.666666667 397 684 c 0
 397 636 400.666666667 588.333333333 408 541 c 128
 415.333333333 493.666666667 426.833333333 448.333333333 442.5 405 c 128
 458.166666667 361.666666667 478.5 321.5 503.5 284.5 c 128
 528.5 247.5 558.333333333 215.333333333 593 188 c 128
 627.666666667 160.666666667 667.833333333 139.166666667 713.5 123.5 c 128
 759.166666667 107.833333333 810.666666667 100 868 100 c 0
 893.333333333 100 916.666666667 103.166666667 938 109.5 c 128
 959.333333333 115.833333333 975.666666667 121.666666667 987 127 c 0
 992.333333333 129 999 134.5 1007 143.5 c 128
 1015 152.5 1020 160 1022 166 c 1
 1067 408 l 1
 1229 408 l 1
 1229 49 l 1
EndSplineSet
EndChar

StartChar: D
Encoding: 68 68 18
Width: 1483
GlyphClass: 2
Flags: HW
LayerCount: 2
Back
Fore
SplineSet
1077 680 m 0
 1077 758.666666667 1071 827.5 1059 886.5 c 128
 1047 945.5 1030.5 996.166666667 1009.5 1038.5 c 128
 988.5 1080.83333333 963.666666667 1116 935 1144 c 128
 906.333333333 1172 875.666666667 1194.16666667 843 1210.5 c 128
 810.333333333 1226.83333333 776.333333333 1238.33333333 741 1245 c 128
 705.666666667 1251.66666667 670.333333333 1255 635 1255 c 2
 506 1255 l 1
 506 121 l 1
 676 125 l 2
 705.333333333 125.666666667 735.666666667 129.666666667 767 137 c 128
 798.333333333 144.333333333 828.833333333 156.333333333 858.5 173 c 128
 888.166666667 189.666666667 916.166666667 211.833333333 942.5 239.5 c 128
 968.833333333 267.166666667 992 301.5 1012 342.5 c 128
 1032 383.5 1047.83333333 431.833333333 1059.5 487.5 c 128
 1071.16666667 543.166666667 1077 607.333333333 1077 680 c 0
1407 702 m 0
 1407 584.666666667 1390.16666667 482.166666667 1356.5 394.5 c 128
 1322.83333333 306.833333333 1274.83333333 233.666666667 1212.5 175 c 128
 1150.16666667 116.333333333 1075 72.5 987 43.5 c 128
 899 14.5 800.666666667 0 692 0 c 2
 53 0 l 1
 53 104 l 1
 166 115 l 2
 178 116.333333333 188.833333333 120.833333333 198.5 128.5 c 128
 208.166666667 136.166666667 213 146.666666667 213 160 c 2
 213 1214 l 2
 213 1227.33333333 208.166666667 1238 198.5 1246 c 128
 188.833333333 1254 178 1258.66666667 166 1260 c 2
 53 1270 l 1
 53 1374 l 1
 680 1374 l 2
 796.666666667 1374 900.166666667 1357.66666667 990.5 1325 c 128
 1080.83333333 1292.33333333 1156.83333333 1246.5 1218.5 1187.5 c 128
 1280.16666667 1128.5 1327 1057.83333333 1359 975.5 c 128
 1391 893.166666667 1407 802 1407 702 c 0
EndSplineSet
EndChar

StartChar: E
Encoding: 69 69 19
Width: 1225
GlyphClass: 2
Flags: HW
LayerCount: 2
Back
Fore
SplineSet
53 0 m 1
 53 104 l 1
 166 115 l 2
 178 116.333333333 188.833333333 120.833333333 198.5 128.5 c 128
 208.166666667 136.166666667 213 146.666666667 213 160 c 2
 213 1214 l 2
 213 1227.33333333 208.166666667 1238 198.5 1246 c 128
 188.833333333 1254 178 1258.66666667 166 1260 c 2
 53 1270 l 1
 53 1374 l 1
 1098 1374 l 1
 1098 1047 l 1
 950 1047 l 1
 918 1217 l 1
 915.333333333 1227 910.833333333 1235.83333333 904.5 1243.5 c 128
 898.166666667 1251.16666667 890.333333333 1255 881 1255 c 2
 500 1255 l 1
 500 774 l 1
 743 774 l 2
 752.333333333 774 760.166666667 778.333333333 766.5 787 c 128
 772.833333333 795.666666667 776.666666667 803.666666667 778 811 c 2
 797 950 l 1
 924 950 l 1
 924 469 l 1
 797 469 l 1
 778 608 l 2
 776.666666667 615.333333333 772.833333333 623.333333333 766.5 632 c 128
 760.166666667 640.666666667 752.333333333 645 743 645 c 2
 500 645 l 1
 500 123 l 1
 946 123 l 2
 954.666666667 123 962.666666667 127.666666667 970 137 c 128
 977.333333333 146.333333333 981.666666667 154.666666667 983 162 c 2
 1014 375 l 1
 1163 375 l 1
 1163 0 l 1
 53 0 l 1
EndSplineSet
EndChar

StartChar: F
Encoding: 70 70 20
Width: 1145
GlyphClass: 2
Flags: HW
LayerCount: 2
Back
Fore
SplineSet
942 1024 m 1
 913 1210 l 2
 911 1220.66666667 906.833333333 1229.83333333 900.5 1237.5 c 128
 894.166666667 1245.16666667 886.333333333 1249 877 1249 c 2
 506 1249 l 1
 506 745 l 1
 760 745 l 2
 769.333333333 745 777.166666667 749.333333333 783.5 758 c 128
 789.833333333 766.666666667 793.666666667 774.666666667 795 782 c 2
 815 922 l 1
 942 922 l 1
 942 438 l 1
 815 438 l 1
 795 578 l 2
 793.666666667 585.333333333 789.5 593.166666667 782.5 601.5 c 128
 775.5 609.833333333 768 614 760 614 c 2
 506 614 l 1
 506 160 l 2
 506 146.666666667 510.333333333 136.166666667 519 128.5 c 128
 527.666666667 120.833333333 538.333333333 116.333333333 551 115 c 2
 684 104 l 1
 684 0 l 1
 55 0 l 1
 55 104 l 1
 166 115 l 2
 178 116.333333333 188.833333333 120.833333333 198.5 128.5 c 128
 208.166666667 136.166666667 213 146.666666667 213 160 c 2
 213 1214 l 2
 213 1227.33333333 208.166666667 1238 198.5 1246 c 128
 188.833333333 1254 178 1258.66666667 166 1260 c 2
 49 1270 l 1
 49 1374 l 1
 1090 1374 l 1
 1090 1024 l 1
 942 1024 l 1
EndSplineSet
EndChar

StartChar: G
Encoding: 71 71 21
Width: 1466
GlyphClass: 2
Flags: HW
LayerCount: 2
Back
Fore
SplineSet
1315 565 m 2
 1302.33333333 563.666666667 1291.33333333 559.166666667 1282 551.5 c 128
 1272.66666667 543.833333333 1268 533.333333333 1268 520 c 2
 1268 63 l 1
 1227.33333333 45 1182.33333333 29 1133 15 c 0
 1090.33333333 3 1040.16666667 -8 982.5 -18 c 128
 924.833333333 -28 861.666666667 -33 793 -33 c 0
 690.333333333 -33 595.333333333 -15.8333333333 508 18.5 c 128
 420.666666667 52.8333333333 345 101.666666667 281 165 c 128
 217 228.333333333 166.833333333 304.333333333 130.5 393 c 128
 94.1666666667 481.666666667 76 580.666666667 76 690 c 0
 76 800.666666667 94.3333333333 900.333333333 131 989 c 128
 167.666666667 1077.66666667 218.5 1153 283.5 1215 c 128
 348.5 1277 425.833333333 1324.5 515.5 1357.5 c 128
 605.166666667 1390.5 703 1407 809 1407 c 0
 876.333333333 1407 938 1402.83333333 994 1394.5 c 128
 1050 1386.16666667 1098.66666667 1377 1140 1367 c 0
 1188 1355 1231.33333333 1341.66666667 1270 1327 c 1
 1270 973 l 1
 1110 973 l 1
 1069 1194 l 2
 1067.66666667 1201.33333333 1063.33333333 1209.5 1056 1218.5 c 128
 1048.66666667 1227.5 1040.66666667 1233.66666667 1032 1237 c 0
 1000 1249 970.333333333 1257.83333333 943 1263.5 c 128
 915.666666667 1269.16666667 896.333333333 1272 885 1272 c 0
 825.666666667 1272 772.166666667 1264.5 724.5 1249.5 c 128
 676.833333333 1234.5 634.833333333 1213.83333333 598.5 1187.5 c 128
 562.166666667 1161.16666667 531 1130 505 1094 c 128
 479 1058 457.666666667 1018.66666667 441 976 c 128
 424.333333333 933.333333333 412.166666667 888.5 404.5 841.5 c 128
 396.833333333 794.5 393 746.666666667 393 698 c 0
 393 610 404 530.5 426 459.5 c 128
 448 388.5 480.166666667 327.833333333 522.5 277.5 c 128
 564.833333333 227.166666667 617 188.5 679 161.5 c 128
 741 134.5 812.333333333 121 893 121 c 0
 902.333333333 121 913.833333333 120.5 927.5 119.5 c 128
 941.166666667 118.5 960.333333333 119 985 121 c 1
 985 520 l 2
 985 533.333333333 980.333333333 544.166666667 971 552.5 c 128
 961.666666667 560.833333333 950.666666667 565 938 565 c 1
 801 575 l 1
 801 680 l 1
 1419 680 l 1
 1419 575 l 1
 1315 565 l 2
EndSplineSet
EndChar

StartChar: H
Encoding: 72 72 22
Width: 1575
GlyphClass: 2
Flags: HW
LayerCount: 2
Back
Fore
SplineSet
918 0 m 1
 918 104 l 1
 1024 115 l 2
 1036.66666667 116.333333333 1047.33333333 120.833333333 1056 128.5 c 128
 1064.66666667 136.166666667 1069 146.666666667 1069 160 c 2
 1069 655 l 1
 506 655 l 1
 506 160 l 2
 506 146.666666667 510.333333333 136.166666667 519 128.5 c 128
 527.666666667 120.833333333 538.333333333 116.333333333 551 115 c 2
 659 104 l 1
 659 0 l 1
 61 0 l 1
 61 104 l 1
 168 115 l 2
 180.666666667 116.333333333 191.333333333 120.833333333 200 128.5 c 128
 208.666666667 136.166666667 213 146.666666667 213 160 c 2
 213 1214 l 2
 213 1227.33333333 208.666666667 1238 200 1246 c 128
 191.333333333 1254 180.666666667 1258.66666667 168 1260 c 2
 61 1270 l 1
 61 1374 l 1
 659 1374 l 1
 659 1270 l 1
 551 1260 l 2
 538.333333333 1258.66666667 527.666666667 1254 519 1246 c 128
 510.333333333 1238 506 1227.33333333 506 1214 c 2
 506 786 l 1
 1069 786 l 1
 1069 1214 l 2
 1069 1227.33333333 1064.66666667 1238 1056 1246 c 128
 1047.33333333 1254 1036.66666667 1258.66666667 1024 1260 c 2
 918 1270 l 1
 918 1374 l 1
 1513 1374 l 1
 1513 1270 l 1
 1407 1260 l 2
 1395.66666667 1258.66666667 1385.33333333 1254 1376 1246 c 128
 1366.66666667 1238 1362 1227.33333333 1362 1214 c 2
 1362 160 l 2
 1362 146.666666667 1366.33333333 136.166666667 1375 128.5 c 128
 1383.66666667 120.833333333 1394.33333333 116.333333333 1407 115 c 2
 1513 104 l 1
 1513 0 l 1
 918 0 l 1
EndSplineSet
EndChar

StartChar: I
Encoding: 73 73 23
Width: 735
GlyphClass: 2
Flags: HW
LayerCount: 2
Back
Fore
SplineSet
47 0 m 1
 47 104 l 1
 174 115 l 2
 186.666666667 116.333333333 197.333333333 120.833333333 206 128.5 c 128
 214.666666667 136.166666667 219 146.666666667 219 160 c 2
 219 1214 l 2
 219 1227.33333333 214.666666667 1238 206 1246 c 128
 197.333333333 1254 186.666666667 1258.66666667 174 1260 c 2
 47 1270 l 1
 47 1374 l 1
 686 1374 l 1
 686 1270 l 1
 559 1260 l 2
 547.666666667 1258.66666667 537 1254 527 1246 c 128
 517 1238 512 1227.33333333 512 1214 c 2
 512 160 l 2
 512 146.666666667 517 136.166666667 527 128.5 c 128
 537 120.833333333 547.666666667 116.333333333 559 115 c 2
 686 104 l 1
 686 0 l 1
 47 0 l 1
EndSplineSet
EndChar

StartChar: J
Encoding: 74 74 24
Width: 1049
GlyphClass: 2
Flags: HW
LayerCount: 2
Back
Fore
SplineSet
879 1260 m 2
 866.333333333 1258.66666667 855.666666667 1254 847 1246 c 128
 838.333333333 1238 834 1227.33333333 834 1214 c 2
 834 496 l 2
 834 416.666666667 824.666666667 344.666666667 806 280 c 128
 787.333333333 215.333333333 758.5 159.666666667 719.5 113 c 128
 680.5 66.3333333333 630.833333333 30.3333333333 570.5 5 c 128
 510.166666667 -20.3333333333 438 -33 354 -33 c 0
 326 -33 297.333333333 -31 268 -27 c 128
 238.666666667 -23 210.5 -18.1666666667 183.5 -12.5 c 128
 156.5 -6.83333333333 131.333333333 -0.666666666667 108 6 c 128
 84.6666666667 12.6666666667 65 19 49 25 c 1
 49 399 l 1
 209 399 l 1
 256 125 l 1
 258 118.333333333 261.333333333 112.333333333 266 107 c 0
 270 102.333333333 275.333333333 98.3333333333 282 95 c 128
 288.666666667 91.6666666667 297.666666667 90 309 90 c 0
 347 90 380.5 97 409.5 111 c 128
 438.5 125 463 148 483 180 c 128
 503 212 518 254.333333333 528 307 c 128
 538 359.666666667 543 424.666666667 543 502 c 2
 543 1214 l 2
 543 1227.33333333 538.333333333 1238 529 1246 c 128
 519.666666667 1254 509.333333333 1258.66666667 498 1260 c 2
 371 1270 l 1
 371 1374 l 1
 1004 1374 l 1
 1004 1270 l 1
 879 1260 l 2
EndSplineSet
EndChar

StartChar: K
Encoding: 75 75 25
Width: 1397
GlyphClass: 2
Flags: HW
LayerCount: 2
Back
Fore
SplineSet
952 0 m 1
 952 76 l 1
 618 600 l 1
 506 600 l 1
 506 160 l 2
 506 146.666666667 510.333333333 136.166666667 519 128.5 c 128
 527.666666667 120.833333333 538.333333333 116.333333333 551 115 c 2
 659 104 l 1
 659 0 l 1
 59 0 l 1
 59 104 l 1
 168 115 l 2
 180.666666667 116.333333333 191.333333333 120.833333333 200 128.5 c 128
 208.666666667 136.166666667 213 146.666666667 213 160 c 2
 213 1214 l 2
 213 1227.33333333 208.666666667 1238 200 1246 c 128
 191.333333333 1254 180.666666667 1258.66666667 168 1260 c 2
 59 1270 l 1
 59 1374 l 1
 659 1374 l 1
 659 1270 l 1
 551 1260 l 2
 538.333333333 1258.66666667 527.666666667 1254 519 1246 c 128
 510.333333333 1238 506 1227.33333333 506 1214 c 2
 506 698 l 1
 563 698 l 1
 1004 1235 l 2
 1007.33333333 1239 1008.16666667 1244.16666667 1006.5 1250.5 c 128
 1004.83333333 1256.83333333 1000.33333333 1260 993 1260 c 2
 877 1270 l 1
 877 1374 l 1
 1346 1374 l 1
 1346 1270 l 1
 1331.33333333 1268.66666667 1315.66666667 1267.33333333 1299 1266 c 0
 1285 1264.66666667 1269.5 1263.16666667 1252.5 1261.5 c 128
 1235.5 1259.83333333 1218.66666667 1258.33333333 1202 1257 c 1
 821 803 l 1
 1251 117 l 1
 1397 104 l 1
 1397 0 l 1
 952 0 l 1
EndSplineSet
EndChar

StartChar: L
Encoding: 76 76 26
Width: 1135
GlyphClass: 2
Flags: HW
LayerCount: 2
Back
Fore
SplineSet
55 0 m 1
 55 104 l 1
 168 115 l 2
 180.666666667 116.333333333 191.333333333 120.833333333 200 128.5 c 128
 208.666666667 136.166666667 213 146.666666667 213 160 c 2
 213 1214 l 2
 213 1227.33333333 208.666666667 1238 200 1246 c 128
 191.333333333 1254 180.666666667 1258.66666667 168 1260 c 2
 55 1270 l 1
 55 1374 l 1
 666 1374 l 1
 666 1270 l 1
 551 1260 l 2
 538.333333333 1258.66666667 527.666666667 1254 519 1246 c 128
 510.333333333 1238 506 1227.33333333 506 1214 c 2
 506 125 l 1
 862 125 l 2
 869.333333333 125 875.833333333 126.666666667 881.5 130 c 128
 887.166666667 133.333333333 892.166666667 137.5 896.5 142.5 c 128
 900.833333333 147.5 904.166666667 152.666666667 906.5 158 c 128
 908.833333333 163.333333333 910.333333333 168 911 172 c 2
 938 408 l 1
 1102 408 l 1
 1102 0 l 1
 55 0 l 1
EndSplineSet
EndChar

StartChar: M
Encoding: 77 77 27
Width: 1849
GlyphClass: 2
Flags: HW
LayerCount: 2
Back
Fore
SplineSet
1196 0 m 1
 1196 104 l 1
 1296 115 l 2
 1307.33333333 116.333333333 1317.66666667 120.833333333 1327 128.5 c 128
 1336.33333333 136.166666667 1341 146.666666667 1341 160 c 2
 1341 1235 l 1
 930 0 l 1
 772 0 l 1
 369 1227 l 1
 369 160 l 2
 369 146.666666667 373.666666667 136.166666667 383 128.5 c 128
 392.333333333 120.833333333 402.666666667 116.333333333 414 115 c 2
 524 104 l 1
 524 0 l 1
 51 0 l 1
 51 104 l 1
 166 115 l 2
 178 116.333333333 188.833333333 120.833333333 198.5 128.5 c 128
 208.166666667 136.166666667 213 146.666666667 213 160 c 2
 213 1214 l 2
 213 1227.33333333 208.166666667 1238 198.5 1246 c 128
 188.833333333 1254 178 1258.66666667 166 1260 c 2
 51 1270 l 1
 51 1374 l 1
 639 1374 l 1
 639 1317 l 1
 928 440 l 1
 1214 1317 l 1
 1214 1374 l 1
 1796 1374 l 1
 1796 1270 l 1
 1679 1260 l 2
 1667 1258.66666667 1656.5 1254 1647.5 1246 c 128
 1638.5 1238 1634 1227.33333333 1634 1214 c 2
 1634 160 l 2
 1634 146.666666667 1638.5 136.166666667 1647.5 128.5 c 128
 1656.5 120.833333333 1667 116.333333333 1679 115 c 2
 1796 104 l 1
 1796 0 l 1
 1196 0 l 1
EndSplineSet
EndChar

StartChar: N
Encoding: 78 78 28
Width: 1524
GlyphClass: 2
Flags: HW
LayerCount: 2
Back
Fore
SplineSet
1354 1260 m 2
 1342.66666667 1258.66666667 1332.33333333 1254 1323 1246 c 128
 1313.66666667 1238 1309 1227.33333333 1309 1214 c 2
 1309 0 l 1
 1059 0 l 1
 369 1083 l 1
 369 160 l 2
 369 146.666666667 373.666666667 136.166666667 383 128.5 c 128
 392.333333333 120.833333333 402.666666667 116.333333333 414 115 c 2
 528 104 l 1
 528 0 l 1
 55 0 l 1
 55 104 l 1
 168 115 l 2
 180.666666667 116.333333333 191.333333333 120.833333333 200 128.5 c 128
 208.666666667 136.166666667 213 146.666666667 213 160 c 2
 213 1214 l 2
 213 1227.33333333 208.666666667 1238 200 1246 c 128
 191.333333333 1254 180.666666667 1258.66666667 168 1260 c 2
 57 1270 l 1
 57 1374 l 1
 563 1374 l 1
 563 1319 l 1
 1153 395 l 1
 1153 1214 l 2
 1153 1227.33333333 1148.16666667 1238 1138.5 1246 c 128
 1128.83333333 1254 1118 1258.66666667 1106 1260 c 2
 989 1270 l 1
 989 1374 l 1
 1464 1374 l 1
 1464 1270 l 1
 1354 1260 l 2
EndSplineSet
EndChar

StartChar: O
Encoding: 79 79 29
Width: 1548
GlyphClass: 2
Flags: HW
LayerCount: 2
Back
Fore
SplineSet
1145 672 m 0
 1145 752 1137.5 828.166666667 1122.5 900.5 c 128
 1107.5 972.833333333 1085 1036.33333333 1055 1091 c 128
 1025 1145.66666667 987.5 1189.16666667 942.5 1221.5 c 128
 897.5 1253.83333333 845.333333333 1270 786 1270 c 0
 738.666666667 1270 696.333333333 1262 659 1246 c 128
 621.666666667 1230 588.833333333 1208.16666667 560.5 1180.5 c 128
 532.166666667 1152.83333333 508 1120.33333333 488 1083 c 128
 468 1045.66666667 451.666666667 1005.5 439 962.5 c 128
 426.333333333 919.5 417.166666667 874.833333333 411.5 828.5 c 128
 405.833333333 782.166666667 403 736 403 690 c 0
 403 641.333333333 406.166666667 593 412.5 545 c 128
 418.833333333 497 428.333333333 451 441 407 c 128
 453.666666667 363 470 322 490 284 c 128
 510 246 533.333333333 213.166666667 560 185.5 c 128
 586.666666667 157.833333333 617.166666667 136 651.5 120 c 128
 685.833333333 104 724 96 766 96 c 0
 811.333333333 96 852.333333333 104.166666667 889 120.5 c 128
 925.666666667 136.833333333 958 159 986 187 c 128
 1014 215 1038 247.666666667 1058 285 c 128
 1078 322.333333333 1094.5 362.333333333 1107.5 405 c 128
 1120.5 447.666666667 1130 491.833333333 1136 537.5 c 128
 1142 583.166666667 1145 628 1145 672 c 0
1475 680 m 0
 1475 582 1458.5 489.833333333 1425.5 403.5 c 128
 1392.5 317.166666667 1345.66666667 241.666666667 1285 177 c 128
 1224.33333333 112.333333333 1151.66666667 61.1666666667 1067 23.5 c 128
 982.333333333 -14.1666666667 888.666666667 -33 786 -33 c 0
 684 -33 589.5 -16.8333333333 502.5 15.5 c 128
 415.5 47.8333333333 340.5 95 277.5 157 c 128
 214.5 219 165.166666667 295.333333333 129.5 386 c 128
 93.8333333333 476.666666667 76 580 76 696 c 0
 76 796.666666667 91.6666666667 890.5 123 977.5 c 128
 154.333333333 1064.5 199.5 1139.66666667 258.5 1203 c 128
 317.5 1266.33333333 389.833333333 1316.16666667 475.5 1352.5 c 128
 561.166666667 1388.83333333 658.666666667 1407 768 1407 c 0
 838.666666667 1407 905.333333333 1398.16666667 968 1380.5 c 128
 1030.66666667 1362.83333333 1088.16666667 1338.16666667 1140.5 1306.5 c 128
 1192.83333333 1274.83333333 1239.66666667 1236.83333333 1281 1192.5 c 128
 1322.33333333 1148.16666667 1357.33333333 1099 1386 1045 c 128
 1414.66666667 991 1436.66666667 933.166666667 1452 871.5 c 128
 1467.33333333 809.833333333 1475 746 1475 680 c 0
EndSplineSet
EndChar

StartChar: P
Encoding: 80 80 30
Width: 1253
GlyphClass: 2
Flags: HW
LayerCount: 2
Back
Fore
SplineSet
1178 958 m 0
 1178 899.333333333 1170.83333333 847.5 1156.5 802.5 c 128
 1142.16666667 757.5 1122.33333333 718.166666667 1097 684.5 c 128
 1071.66666667 650.833333333 1041.83333333 622.5 1007.5 599.5 c 128
 973.166666667 576.5 936.166666667 558 896.5 544 c 128
 856.833333333 530 815.166666667 519.833333333 771.5 513.5 c 128
 727.833333333 507.166666667 684.333333333 504 641 504 c 0
 621.666666667 504 601.333333333 503.833333333 580 503.5 c 128
 558.666666667 503.166666667 534 504.666666667 506 508 c 1
 506 160 l 2
 506 146.666666667 510.333333333 136.166666667 519 128.5 c 128
 527.666666667 120.833333333 538.333333333 116.333333333 551 115 c 2
 680 104 l 1
 680 0 l 1
 53 0 l 1
 53 104 l 1
 166 115 l 2
 178 116.333333333 188.833333333 120.833333333 198.5 128.5 c 128
 208.166666667 136.166666667 213 146.666666667 213 160 c 2
 213 1214 l 2
 213 1227.33333333 208.166666667 1238 198.5 1246 c 128
 188.833333333 1254 178 1258.66666667 166 1260 c 2
 47 1270 l 1
 47 1374 l 1
 621 1374 l 2
 667 1374 712.666666667 1372.16666667 758 1368.5 c 128
 803.333333333 1364.83333333 846.666666667 1357.5 888 1346.5 c 128
 929.333333333 1335.5 967.666666667 1320.5 1003 1301.5 c 128
 1038.33333333 1282.5 1069 1257.5 1095 1226.5 c 128
 1121 1195.5 1141.33333333 1158 1156 1114 c 128
 1170.66666667 1070 1178 1018 1178 958 c 0
872 948 m 0
 872 996 866 1038.66666667 854 1076 c 128
 842 1113.33333333 825 1144.83333333 803 1170.5 c 128
 781 1196.16666667 754.666666667 1215.66666667 724 1229 c 128
 693.333333333 1242.33333333 659 1249 621 1249 c 2
 506 1249 l 1
 506 631 l 1
 514 630.333333333 520.5 629.833333333 525.5 629.5 c 128
 530.5 629.166666667 534.666666667 629 538 629 c 2
 561 629 l 1
 608.333333333 629.666666667 651.166666667 635.666666667 689.5 647 c 128
 727.833333333 658.333333333 760.5 676.666666667 787.5 702 c 128
 814.5 727.333333333 835.333333333 760.166666667 850 800.5 c 128
 864.666666667 840.833333333 872 890 872 948 c 0
EndSplineSet
EndChar

StartChar: Q
Encoding: 81 81 31
Width: 1548
GlyphClass: 2
Flags: HW
LayerCount: 2
Back
Fore
SplineSet
1145 672 m 0
 1145 752 1137.5 828.166666667 1122.5 900.5 c 128
 1107.5 972.833333333 1085 1036.33333333 1055 1091 c 128
 1025 1145.66666667 987.5 1189.16666667 942.5 1221.5 c 128
 897.5 1253.83333333 845.333333333 1270 786 1270 c 0
 738.666666667 1270 696.333333333 1262 659 1246 c 128
 621.666666667 1230 588.833333333 1208.16666667 560.5 1180.5 c 128
 532.166666667 1152.83333333 508 1120.33333333 488 1083 c 128
 468 1045.66666667 451.666666667 1005.5 439 962.5 c 128
 426.333333333 919.5 417.166666667 874.833333333 411.5 828.5 c 128
 405.833333333 782.166666667 403 736 403 690 c 0
 403 641.333333333 406.166666667 593 412.5 545 c 128
 418.833333333 497 428.333333333 451 441 407 c 128
 453.666666667 363 470 322 490 284 c 128
 510 246 533.333333333 213.166666667 560 185.5 c 128
 586.666666667 157.833333333 617.166666667 136 651.5 120 c 128
 685.833333333 104 724 96 766 96 c 0
 811.333333333 96 852.333333333 104.166666667 889 120.5 c 128
 925.666666667 136.833333333 958 159 986 187 c 128
 1014 215 1038 247.666666667 1058 285 c 128
 1078 322.333333333 1094.5 362.333333333 1107.5 405 c 128
 1120.5 447.666666667 1130 491.833333333 1136 537.5 c 128
 1142 583.166666667 1145 628 1145 672 c 0
1407 -330 m 1
 1336.33333333 -346 1272 -357.833333333 1214 -365.5 c 128
 1156 -373.166666667 1099.33333333 -377 1044 -377 c 0
 970.666666667 -377 908 -368.5 856 -351.5 c 128
 804 -334.5 761.666666667 -310.5 729 -279.5 c 128
 696.333333333 -248.5 672.333333333 -211 657 -167 c 128
 641.666666667 -123 633.666666667 -74 633 -20 c 1
 550.333333333 -5.33333333333 474.833333333 21.1666666667 406.5 59.5 c 128
 338.166666667 97.8333333333 279.5 147.333333333 230.5 208 c 128
 181.5 268.666666667 143.5 339.833333333 116.5 421.5 c 128
 89.5 503.166666667 76 594.666666667 76 696 c 0
 76 796.666666667 91.6666666667 890.5 123 977.5 c 128
 154.333333333 1064.5 199.5 1139.66666667 258.5 1203 c 128
 317.5 1266.33333333 389.833333333 1316.16666667 475.5 1352.5 c 128
 561.166666667 1388.83333333 658.666666667 1407 768 1407 c 0
 838.666666667 1407 905.333333333 1398.16666667 968 1380.5 c 128
 1030.66666667 1362.83333333 1088.16666667 1338.16666667 1140.5 1306.5 c 128
 1192.83333333 1274.83333333 1239.66666667 1236.83333333 1281 1192.5 c 128
 1322.33333333 1148.16666667 1357.33333333 1099 1386 1045 c 128
 1414.66666667 991 1436.66666667 933.166666667 1452 871.5 c 128
 1467.33333333 809.833333333 1475 746 1475 680 c 0
 1475 594.666666667 1462.33333333 513.666666667 1437 437 c 128
 1411.66666667 360.333333333 1375.66666667 291.166666667 1329 229.5 c 128
 1282.33333333 167.833333333 1225.83333333 115.666666667 1159.5 73 c 128
 1093.16666667 30.3333333333 1019.33333333 0.666666666667 938 -16 c 1
 936.666666667 -53.3333333333 943.5 -86.1666666667 958.5 -114.5 c 128
 973.5 -142.833333333 993.833333333 -166.833333333 1019.5 -186.5 c 128
 1045.16666667 -206.166666667 1075.16666667 -221 1109.5 -231 c 128
 1143.83333333 -241 1179.66666667 -246 1217 -246 c 0
 1237 -246 1262.33333333 -244.5 1293 -241.5 c 128
 1323.66666667 -238.5 1361.66666667 -231.666666667 1407 -221 c 1
 1407 -330 l 1
EndSplineSet
EndChar

StartChar: R
Encoding: 82 82 32
Width: 1442
GlyphClass: 2
Flags: HW
LayerCount: 2
Back
Fore
SplineSet
1442 0 m 1
 1396.66666667 -5.33333333333 1357.83333333 -12.1666666667 1325.5 -20.5 c 128
 1293.16666667 -28.8333333333 1264.33333333 -33 1239 -33 c 0
 1173 -33 1118 -23.8333333333 1074 -5.5 c 128
 1030 12.8333333333 993.5 36.8333333333 964.5 66.5 c 128
 935.5 96.1666666667 912 130 894 168 c 128
 876 206 859.833333333 244.833333333 845.5 284.5 c 128
 831.166666667 324.166666667 817 363 803 401 c 128
 789 439 771.333333333 472.833333333 750 502.5 c 128
 728.666666667 532.166666667 702 556.166666667 670 574.5 c 128
 638 592.833333333 597 602 547 602 c 2
 506 602 l 1
 506 160 l 2
 506 146.666666667 510.333333333 136.166666667 519 128.5 c 128
 527.666666667 120.833333333 538.333333333 116.333333333 551 115 c 2
 664 104 l 1
 664 0 l 1
 57 0 l 1
 57 104 l 1
 166 115 l 2
 178 116.333333333 188.833333333 120.833333333 198.5 128.5 c 128
 208.166666667 136.166666667 213 146.666666667 213 160 c 2
 213 1214 l 2
 213 1227.33333333 208.166666667 1238 198.5 1246 c 128
 188.833333333 1254 178 1258.66666667 166 1260 c 2
 57 1270 l 1
 57 1374 l 1
 737 1374 l 2
 762.333333333 1374 791 1372.33333333 823 1369 c 128
 855 1365.66666667 887.5 1359.5 920.5 1350.5 c 128
 953.5 1341.5 985.833333333 1329 1017.5 1313 c 128
 1049.16666667 1297 1077.33333333 1276.5 1102 1251.5 c 128
 1126.66666667 1226.5 1146.5 1196.16666667 1161.5 1160.5 c 128
 1176.5 1124.83333333 1184 1082.66666667 1184 1034 c 0
 1184 988 1177.83333333 947.666666667 1165.5 913 c 128
 1153.16666667 878.333333333 1136.83333333 848.166666667 1116.5 822.5 c 128
 1096.16666667 796.833333333 1073.16666667 775.166666667 1047.5 757.5 c 128
 1021.83333333 739.833333333 995.666666667 725.5 969 714.5 c 128
 942.333333333 703.5 916.666666667 695 892 689 c 128
 867.333333333 683 845.666666667 678.666666667 827 676 c 1
 871.666666667 667.333333333 909.666666667 654.5 941 637.5 c 128
 972.333333333 620.5 998.666666667 600.666666667 1020 578 c 128
 1041.33333333 555.333333333 1058.83333333 530.666666667 1072.5 504 c 128
 1086.16666667 477.333333333 1097.83333333 449.833333333 1107.5 421.5 c 128
 1117.16666667 393.166666667 1125.83333333 365 1133.5 337 c 128
 1141.16666667 309 1150 282.333333333 1160 257 c 128
 1170 231.666666667 1181.83333333 208.5 1195.5 187.5 c 128
 1209.16666667 166.5 1226.66666667 148.833333333 1248 134.5 c 128
 1269.33333333 120.166666667 1295.66666667 110.166666667 1327 104.5 c 128
 1358.33333333 98.8333333333 1396.66666667 98.6666666667 1442 104 c 1
 1442 0 l 1
877 995 m 0
 877 1081.66666667 851 1146 799 1188 c 128
 747 1230 671 1251 571 1251 c 1
 565.666666667 1251.66666667 559.333333333 1252 552 1252 c 2
 531 1252 l 2
 523 1252 514.666666667 1251.66666667 506 1251 c 1
 506 727 l 1
 523.333333333 725.666666667 537.5 724.666666667 548.5 724 c 128
 559.5 723.333333333 567.666666667 723 573 723 c 0
 605 723 638.833333333 726.166666667 674.5 732.5 c 128
 710.166666667 738.833333333 743 751.833333333 773 771.5 c 128
 803 791.166666667 827.833333333 818.833333333 847.5 854.5 c 128
 867.166666667 890.166666667 877 937 877 995 c 0
EndSplineSet
EndChar

StartChar: S
Encoding: 83 83 33
Width: 1098
GlyphClass: 2
Flags: HW
LayerCount: 2
Back
Fore
SplineSet
1022 401 m 0
 1022 329 1007 265.833333333 977 211.5 c 128
 947 157.166666667 906.833333333 112 856.5 76 c 128
 806.166666667 40 748 12.8333333333 682 -5.5 c 128
 616 -23.8333333333 547 -33 475 -33 c 0
 421 -33 370.166666667 -29 322.5 -21 c 128
 274.833333333 -13 232.666666667 -4 196 6 c 0
 153.333333333 17.3333333333 113.333333333 30.3333333333 76 45 c 1
 76 420 l 1
 238 420 l 1
 272 172 l 2
 273.333333333 164 277.333333333 156.833333333 284 150.5 c 128
 290.666666667 144.166666667 295.666666667 141 299 141 c 1
 315 134.333333333 331.666666667 128.333333333 349 123 c 0
 364.333333333 118.333333333 381.333333333 114.333333333 400 111 c 128
 418.666666667 107.666666667 437.666666667 106 457 106 c 0
 487 106 517.666666667 109.666666667 549 117 c 128
 580.333333333 124.333333333 608.833333333 135.666666667 634.5 151 c 128
 660.166666667 166.333333333 681 186.333333333 697 211 c 128
 713 235.666666667 721 265 721 299 c 0
 721 341.666666667 711 378.5 691 409.5 c 128
 671 440.5 645 468.5 613 493.5 c 128
 581 518.5 544.833333333 541.5 504.5 562.5 c 128
 464.166666667 583.5 423.666666667 605 383 627 c 0
 347 646.333333333 312.166666667 667.166666667 278.5 689.5 c 128
 244.833333333 711.833333333 215 737.333333333 189 766 c 128
 163 794.666666667 142.333333333 827.333333333 127 864 c 128
 111.666666667 900.666666667 104 943 104 991 c 0
 104 1057.66666667 117.333333333 1116.83333333 144 1168.5 c 128
 170.666666667 1220.16666667 206.666666667 1263.66666667 252 1299 c 128
 297.333333333 1334.33333333 349.833333333 1361.16666667 409.5 1379.5 c 128
 469.166666667 1397.83333333 532 1407 598 1407 c 0
 650 1407 699.333333333 1402.66666667 746 1394 c 128
 792.666666667 1385.33333333 834 1376 870 1366 c 0
 911.333333333 1354 949.666666667 1340.33333333 985 1325 c 1
 985 989 l 1
 827 989 l 1
 793 1208 l 2
 792.333333333 1210.66666667 790.5 1213.66666667 787.5 1217 c 128
 784.5 1220.33333333 781.333333333 1223.66666667 778 1227 c 0
 774 1230.33333333 769.333333333 1233.66666667 764 1237 c 1
 756.666666667 1243 747 1248.33333333 735 1253 c 0
 725 1257 712.333333333 1260.83333333 697 1264.5 c 128
 681.666666667 1268.16666667 663 1270 641 1270 c 0
 607 1270 574.833333333 1266 544.5 1258 c 128
 514.166666667 1250 487.5 1238.33333333 464.5 1223 c 128
 441.5 1207.66666667 423.166666667 1188.33333333 409.5 1165 c 128
 395.833333333 1141.66666667 389 1115 389 1085 c 0
 389 1049 396.666666667 1017.16666667 412 989.5 c 128
 427.333333333 961.833333333 447.833333333 937 473.5 915 c 128
 499.166666667 893 528.666666667 873 562 855 c 128
 595.333333333 837 630 819 666 801 c 0
 708.666666667 779.666666667 751.166666667 757.333333333 793.5 734 c 128
 835.833333333 710.666666667 874 683.833333333 908 653.5 c 128
 942 623.166666667 969.5 587.666666667 990.5 547 c 128
 1011.5 506.333333333 1022 457.666666667 1022 401 c 0
EndSplineSet
EndChar

StartChar: T
Encoding: 84 84 34
Width: 1247
GlyphClass: 2
Flags: HW
LayerCount: 2
Back
Fore
SplineSet
1065 999 m 1
 1028 1227 l 2
 1026 1243 1016.33333333 1251 999 1251 c 2
 770 1251 l 1
 770 160 l 2
 770 146.666666667 774.5 136.166666667 783.5 128.5 c 128
 792.5 120.833333333 803 116.333333333 815 115 c 2
 936 104 l 1
 936 0 l 1
 311 0 l 1
 311 104 l 1
 430 115 l 2
 442.666666667 116.333333333 453.666666667 120.833333333 463 128.5 c 128
 472.333333333 136.166666667 477 146.666666667 477 160 c 2
 477 1251 l 1
 248 1251 l 2
 229.333333333 1251 219 1243 217 1227 c 2
 180 999 l 1
 33 999 l 1
 33 1374 l 1
 1214 1374 l 1
 1214 999 l 1
 1065 999 l 1
EndSplineSet
EndChar

StartChar: U
Encoding: 85 85 35
Width: 1493
GlyphClass: 2
Flags: HW
LayerCount: 2
Back
Fore
SplineSet
1331 1260 m 2
 1319.66666667 1258.66666667 1309.33333333 1254 1300 1246 c 128
 1290.66666667 1238 1286 1227.33333333 1286 1214 c 2
 1286 520 l 2
 1286 419.333333333 1274.66666667 333.833333333 1252 263.5 c 128
 1229.33333333 193.166666667 1195 136 1149 92 c 128
 1103 48 1044.83333333 16.1666666667 974.5 -3.5 c 128
 904.166666667 -23.1666666667 821 -33 725 -33 c 0
 549 -33 418 14.1666666667 332 108.5 c 128
 246 202.833333333 203 340 203 520 c 2
 203 1214 l 2
 203 1227.33333333 198.166666667 1238 188.5 1246 c 128
 178.833333333 1254 168 1258.66666667 156 1260 c 2
 45 1270 l 1
 45 1374 l 1
 651 1374 l 1
 651 1270 l 1
 541 1260 l 2
 529.666666667 1258.66666667 519.333333333 1254 510 1246 c 128
 500.666666667 1238 496 1227.33333333 496 1214 c 2
 496 504 l 2
 496 376 523 282.833333333 577 224.5 c 128
 631 166.166666667 714.333333333 137 827 137 c 0
 881 137 927 145.833333333 965 163.5 c 128
 1003 181.166666667 1034.33333333 206 1059 238 c 128
 1083.66666667 270 1101.66666667 308.5 1113 353.5 c 128
 1124.33333333 398.5 1130 448.666666667 1130 504 c 2
 1130 1214 l 2
 1130 1227.33333333 1125.66666667 1238 1117 1246 c 128
 1108.33333333 1254 1097.66666667 1258.66666667 1085 1260 c 2
 969 1270 l 1
 969 1374 l 1
 1440 1374 l 1
 1440 1270 l 1
 1331 1260 l 2
EndSplineSet
EndChar

StartChar: V
Encoding: 86 86 36
Width: 1446
GlyphClass: 2
Flags: HW
LayerCount: 2
Back
Fore
SplineSet
1296 1253 m 1
 825 -33 l 1
 631 -33 l 1
 152 1251 l 1
 20 1270 l 1
 20 1374 l 1
 604 1374 l 1
 604 1270 l 1
 489 1255 l 2
 477 1253 469.833333333 1247.16666667 467.5 1237.5 c 128
 465.166666667 1227.83333333 465.666666667 1218.66666667 469 1210 c 2
 793 319 l 1
 1106 1212 l 1
 1108 1220.66666667 1107.5 1229.5 1104.5 1238.5 c 128
 1101.5 1247.5 1092.33333333 1253 1077 1255 c 2
 967 1270 l 1
 967 1374 l 1
 1425 1374 l 1
 1425 1270 l 1
 1296 1253 l 1
EndSplineSet
EndChar

StartChar: W
Encoding: 87 87 37
Width: 1978
GlyphClass: 2
Flags: HW
LayerCount: 2
Back
Fore
SplineSet
1833 1253 m 1
 1511 -33 l 1
 1317 -33 l 1
 997 1032 l 1
 684 -33 l 1
 487 -33 l 1
 145 1253 l 1
 20 1270 l 1
 20 1374 l 1
 578 1374 l 1
 578 1270 l 1
 457 1257 l 2
 444.333333333 1255.66666667 437.5 1250.33333333 436.5 1241 c 128
 435.5 1231.66666667 436 1222.66666667 438 1214 c 2
 655 403 l 1
 942 1374 l 1
 1163 1374 l 1
 1460 381 l 1
 1665 1214 l 2
 1667 1222.66666667 1666.33333333 1231.5 1663 1240.5 c 128
 1659.66666667 1249.5 1650.66666667 1255 1636 1257 c 2
 1505 1270 l 1
 1505 1374 l 1
 1958 1374 l 1
 1958 1270 l 1
 1833 1253 l 1
EndSplineSet
EndChar

StartChar: X
Encoding: 88 88 38
Width: 1374
GlyphClass: 2
Flags: HW
LayerCount: 2
Back
Fore
SplineSet
739 0 m 1
 739 104 l 1
 864 113 l 2
 873.333333333 114.333333333 879.5 119.666666667 882.5 129 c 128
 885.5 138.333333333 882.666666667 149.333333333 874 162 c 2
 645 522 l 1
 369 164 l 2
 363.666666667 158 360.666666667 152.166666667 360 146.5 c 128
 359.333333333 140.833333333 360 135.666666667 362 131 c 128
 364 126.333333333 366.833333333 122.666666667 370.5 120 c 128
 374.166666667 117.333333333 377.666666667 115.666666667 381 115 c 2
 504 104 l 1
 504 0 l 1
 20 0 l 1
 20 104 l 1
 152 121 l 1
 559 655 l 1
 176 1251 l 1
 47 1270 l 1
 47 1374 l 1
 647 1374 l 1
 647 1270 l 1
 539 1260 l 1
 531.666666667 1260 526 1255 522 1245 c 128
 518 1235 520 1223.33333333 528 1210 c 2
 733 887 l 1
 985 1212 l 2
 994.333333333 1223.33333333 997 1234.5 993 1245.5 c 128
 989 1256.5 982.333333333 1262 973 1262 c 1
 864 1270 l 1
 864 1374 l 1
 1331 1374 l 1
 1331 1270 l 1
 1202 1251 l 1
 819 754 l 1
 1225 121 l 1
 1354 104 l 1
 1354 0 l 1
 739 0 l 1
EndSplineSet
EndChar

StartChar: Y
Encoding: 89 89 39
Width: 1358
GlyphClass: 2
Flags: HW
LayerCount: 2
Back
Fore
SplineSet
1219 1251 m 1
 840 594 l 1
 840 160 l 2
 840 146.666666667 844.333333333 136.166666667 853 128.5 c 128
 861.666666667 120.833333333 872.333333333 116.333333333 885 115 c 2
 1010 104 l 1
 1010 0 l 1
 375 0 l 1
 375 104 l 1
 500 115 l 2
 511.333333333 116.333333333 522 120.833333333 532 128.5 c 128
 542 136.166666667 547 146.666666667 547 160 c 2
 547 537 l 1
 152 1251 l 1
 20 1270 l 1
 20 1374 l 1
 602 1374 l 1
 602 1270 l 1
 494 1260 l 1
 486.666666667 1260 481.166666667 1255 477.5 1245 c 128
 473.833333333 1235 475.666666667 1223.33333333 483 1210 c 2
 741 725 l 1
 1020 1212 l 2
 1027.33333333 1224.66666667 1029.83333333 1236.16666667 1027.5 1246.5 c 128
 1025.16666667 1256.83333333 1019.33333333 1262 1010 1262 c 2
 885 1270 l 1
 885 1374 l 1
 1337 1374 l 1
 1337 1270 l 1
 1219 1251 l 1
EndSplineSet
EndChar

StartChar: Z
Encoding: 90 90 40
Width: 1190
GlyphClass: 2
Flags: HW
LayerCount: 2
Back
Fore
SplineSet
76 0 m 1
 76 121 l 1
 778 1249 l 1
 326 1249 l 2
 308.666666667 1249 299 1241 297 1225 c 2
 260 1001 l 1
 111 1001 l 1
 111 1374 l 1
 1104 1374 l 1
 1104 1253 l 1
 403 127 l 1
 893 127 l 2
 909.666666667 127 920 134.666666667 924 150 c 1
 965 403 l 1
 1114 403 l 1
 1114 0 l 1
 76 0 l 1
EndSplineSet
EndChar

StartChar: bracketleft
Encoding: 91 91 41
Width: 1122
GlyphClass: 2
Flags: HW
LayerCount: 2
Back
Fore
SplineSet
480 -270 m 1
 480 1450 l 1
 1048 1450 l 1
 1048 1327 l 1
 734 1327 l 1
 734 -152 l 1
 1048 -152 l 1
 1048 -270 l 1
 480 -270 l 1
EndSplineSet
EndChar

StartChar: backslash
Encoding: 92 92 42
Width: 1012
GlyphClass: 2
Flags: HW
LayerCount: 2
Back
Fore
SplineSet
852 -190 m 1
 0 1374 l 1
 160 1374 l 1
 1012 -190 l 1
 852 -190 l 1
EndSplineSet
EndChar

StartChar: bracketright
Encoding: 93 93 43
Width: 1206
GlyphClass: 2
Flags: HW
LayerCount: 2
Back
Fore
SplineSet
74 -270 m 1
 74 -152 l 1
 387 -152 l 1
 387 1327 l 1
 74 1327 l 1
 74 1450 l 1
 641 1450 l 1
 641 -270 l 1
 74 -270 l 1
EndSplineSet
EndChar

StartChar: asciicircum
Encoding: 94 94 44
Width: 696
GlyphClass: 2
Flags: HW
LayerCount: 2
Back
Fore
SplineSet
526 1128 m 1
 348 1323 l 1
 170 1128 l 1
 0 1128 l 1
 227 1479 l 1
 469 1479 l 1
 696 1128 l 1
 526 1128 l 1
EndSplineSet
EndChar

StartChar: underscore
Encoding: 95 95 45
Width: 696
GlyphClass: 2
Flags: HW
LayerCount: 2
Back
Fore
SplineSet
0 -340 m 1
 0 -175 l 1
 696 -175 l 1
 696 -340 l 1
 0 -340 l 1
EndSplineSet
EndChar

StartChar: grave
Encoding: 96 96 46
Width: 766
GlyphClass: 2
Flags: HW
LayerCount: 2
Back
Fore
SplineSet
383 1128 m 1
 51 1309 l 2
 43.6666666667 1313 37 1318.5 31 1325.5 c 128
 25 1332.5 19.6666666667 1340 15 1348 c 128
 10.3333333333 1356 6.66666666667 1364.16666667 4 1372.5 c 128
 1.33333333333 1380.83333333 0 1388.33333333 0 1395 c 0
 0 1407 2 1419.5 6 1432.5 c 128
 10 1445.5 16.5 1457.16666667 25.5 1467.5 c 128
 34.5 1477.83333333 46.5 1486.33333333 61.5 1493 c 128
 76.5 1499.66666667 95 1503 117 1503 c 0
 131 1503 143.333333333 1502 154 1500 c 128
 164.666666667 1498 174.833333333 1494.5 184.5 1489.5 c 128
 194.166666667 1484.5 203.833333333 1477.83333333 213.5 1469.5 c 128
 223.166666667 1461.16666667 234 1450.66666667 246 1438 c 2
 526 1128 l 1
 383 1128 l 1
EndSplineSet
EndChar

StartChar: a
Encoding: 97 97 47
Width: 1133
GlyphClass: 2
Flags: HW
LayerCount: 2
Back
Fore
SplineSet
717 0 m 1
 690 102 l 1
 654.666666667 78 617.666666667 56.6666666667 579 38 c 0
 545 22 507 7.5 465 -5.5 c 128
 423 -18.5 379.333333333 -25 334 -25 c 0
 296.666666667 -25 261.833333333 -18.8333333333 229.5 -6.5 c 128
 197.166666667 5.83333333333 168.833333333 23.5 144.5 46.5 c 128
 120.166666667 69.5 101 97.3333333333 87 130 c 128
 73 162.666666667 66 199.333333333 66 240 c 0
 66 270.666666667 68.5 299 73.5 325 c 128
 78.5 351 88.5 375.166666667 103.5 397.5 c 128
 118.5 419.833333333 140 441.166666667 168 461.5 c 128
 196 481.833333333 233.166666667 501.666666667 279.5 521 c 128
 325.833333333 540.333333333 382.666666667 559.666666667 450 579 c 128
 517.333333333 598.333333333 598 618.333333333 692 639 c 1
 692 664 l 2
 692 674 692.333333333 683 693 691 c 1
 693 700.333333333 693.333333333 709.666666667 694 719 c 0
 694.666666667 738.333333333 692.666666667 759.166666667 688 781.5 c 128
 683.333333333 803.833333333 674 824.5 660 843.5 c 128
 646 862.5 626.333333333 878.166666667 601 890.5 c 128
 575.666666667 902.833333333 542.666666667 909 502 909 c 0
 488 909 475.5 908.666666667 464.5 908 c 128
 453.5 907.333333333 444.333333333 906.333333333 437 905 c 0
 428.333333333 903.666666667 420.666666667 902.333333333 414 901 c 1
 414 707 l 1
 203 707 l 1
 185.666666667 705.666666667 170.333333333 707.333333333 157 712 c 0
 145.666666667 716 135.166666667 723 125.5 733 c 128
 115.833333333 743 111 758.666666667 111 780 c 0
 111 818 124.5 852 151.5 882 c 128
 178.5 912 213.833333333 937.5 257.5 958.5 c 128
 301.166666667 979.5 350.166666667 995.666666667 404.5 1007 c 128
 458.833333333 1018.33333333 513 1024 567 1024 c 0
 625.666666667 1024 679.333333333 1019.66666667 728 1011 c 128
 776.666666667 1002.33333333 818.5 985.5 853.5 960.5 c 128
 888.5 935.5 915.5 900.333333333 934.5 855 c 128
 953.5 809.666666667 963 750 963 676 c 2
 963 150 l 2
 963 137.333333333 967.333333333 126.5 976 117.5 c 128
 984.666666667 108.5 995.333333333 103.333333333 1008 102 c 2
 1098 96 l 1
 1098 0 l 1
 717 0 l 1
690 528 m 1
 624 514.666666667 569.5 501 526.5 487 c 128
 483.5 473 449.333333333 457 424 439 c 128
 398.666666667 421 381 400.5 371 377.5 c 128
 361 354.5 356 327.666666667 356 297 c 0
 356 275.666666667 359.5 255.833333333 366.5 237.5 c 128
 373.5 219.166666667 383.5 203.166666667 396.5 189.5 c 128
 409.5 175.833333333 425 165 443 157 c 128
 461 149 480.666666667 145 502 145 c 0
 524 145 546.166666667 147.333333333 568.5 152 c 128
 590.833333333 156.666666667 611 161.666666667 629 167 c 0
 650.333333333 173.666666667 670.666666667 181.333333333 690 190 c 1
 690 528 l 1
EndSplineSet
EndChar

StartChar: b
Encoding: 98 98 48
Width: 1225
GlyphClass: 2
Flags: HW
LayerCount: 2
Back
Fore
SplineSet
1159 561 m 0
 1159 482.333333333 1145.66666667 408.833333333 1119 340.5 c 128
 1092.33333333 272.166666667 1053.5 212.833333333 1002.5 162.5 c 128
 951.5 112.166666667 888.833333333 72.5 814.5 43.5 c 128
 740.166666667 14.5 655 0 559 0 c 2
 184 0 l 1
 184 1329 l 1
 41 1329 l 1
 41 1413 l 1
 354 1516 l 1
 459 1516 l 1
 459 930 l 1
 487.666666667 947.333333333 518 963 550 977 c 1
 578 988.333333333 609.666666667 999 645 1009 c 128
 680.333333333 1019 717.333333333 1024 756 1024 c 0
 810.666666667 1024 862.5 1013.66666667 911.5 993 c 128
 960.5 972.333333333 1003.33333333 942.166666667 1040 902.5 c 128
 1076.66666667 862.833333333 1105.66666667 814.333333333 1127 757 c 128
 1148.33333333 699.666666667 1159 634.333333333 1159 561 c 0
862 500 m 0
 862 555.333333333 855.666666667 604.833333333 843 648.5 c 128
 830.333333333 692.166666667 811.666666667 729.333333333 787 760 c 128
 762.333333333 790.666666667 731.5 814 694.5 830 c 128
 657.5 846 615 854 567 854 c 0
 554.333333333 854 541.833333333 853.333333333 529.5 852 c 128
 517.166666667 850.666666667 505.666666667 849.333333333 495 848 c 2
 459 842 l 1
 459 115 l 1
 471 115 479.5 114.666666667 484.5 114 c 128
 489.5 113.333333333 495.333333333 113 502 113 c 0
 558.666666667 113 609.333333333 119.5 654 132.5 c 128
 698.666666667 145.5 736.333333333 167.166666667 767 197.5 c 128
 797.666666667 227.833333333 821.166666667 267.666666667 837.5 317 c 128
 853.833333333 366.333333333 862 427.333333333 862 500 c 0
EndSplineSet
EndChar

StartChar: c
Encoding: 99 99 49
Width: 1028
GlyphClass: 2
Flags: HW
LayerCount: 2
Back
Fore
SplineSet
965 90 m 1
 947.666666667 82 926.5 71.6666666667 901.5 59 c 128
 876.5 46.3333333333 847.5 33.6666666667 814.5 21 c 128
 781.5 8.33333333333 744 -2.5 702 -11.5 c 128
 660 -20.5 613 -25 561 -25 c 0
 481 -25 410.333333333 -11.3333333333 349 16 c 128
 287.666666667 43.3333333333 236 80.1666666667 194 126.5 c 128
 152 172.833333333 120.166666667 226.333333333 98.5 287 c 128
 76.8333333333 347.666666667 66 411.666666667 66 479 c 0
 66 559.666666667 79.8333333333 633.5 107.5 700.5 c 128
 135.166666667 767.5 172.833333333 825 220.5 873 c 128
 268.166666667 921 324 958.166666667 388 984.5 c 128
 452 1010.83333333 520.666666667 1024 594 1024 c 0
 648 1024 696.666666667 1018.5 740 1007.5 c 128
 783.333333333 996.5 820.5 981 851.5 961 c 128
 882.5 941 906.333333333 917.166666667 923 889.5 c 128
 939.666666667 861.833333333 948 831.666666667 948 799 c 0
 948 775.666666667 943.833333333 754.666666667 935.5 736 c 128
 927.166666667 717.333333333 916.333333333 701.166666667 903 687.5 c 128
 889.666666667 673.833333333 874.333333333 663.333333333 857 656 c 128
 839.666666667 648.666666667 821.666666667 645 803 645 c 0
 781.666666667 645 763.833333333 646.333333333 749.5 649 c 128
 735.166666667 651.666666667 723 655.166666667 713 659.5 c 128
 703 663.833333333 694.333333333 668.5 687 673.5 c 128
 679.666666667 678.5 672.666666667 683.333333333 666 688 c 1
 666 918 l 1
 657.333333333 918 650.5 918.333333333 645.5 919 c 128
 640.5 919.666666667 634.333333333 920 627 920 c 0
 595.666666667 920 564.5 912 533.5 896 c 128
 502.5 880 474.666666667 856.166666667 450 824.5 c 128
 425.333333333 792.833333333 405.333333333 753.166666667 390 705.5 c 128
 374.666666667 657.833333333 367 602.333333333 367 539 c 0
 367 479 374.166666667 424.833333333 388.5 376.5 c 128
 402.833333333 328.166666667 423.333333333 287 450 253 c 128
 476.666666667 219 509.333333333 192.833333333 548 174.5 c 128
 586.666666667 156.166666667 630 147 678 147 c 0
 709.333333333 147 740.666666667 151.333333333 772 160 c 128
 803.333333333 168.666666667 832.166666667 178.666666667 858.5 190 c 128
 884.833333333 201.333333333 907.5 212.5 926.5 223.5 c 128
 945.5 234.5 958.333333333 242.666666667 965 248 c 1
 965 90 l 1
EndSplineSet
EndChar

StartChar: d
Encoding: 100 100 50
Width: 1247
GlyphClass: 2
Flags: HW
LayerCount: 2
Back
Fore
SplineSet
791 864 m 1
 775 870.666666667 758.333333333 876.666666667 741 882 c 0
 726.333333333 886.666666667 710.5 891 693.5 895 c 128
 676.5 899 660.333333333 901 645 901 c 0
 597.666666667 901 556.333333333 891.333333333 521 872 c 128
 485.666666667 852.666666667 456.5 826 433.5 792 c 128
 410.5 758 393.333333333 718 382 672 c 128
 370.666666667 626 365 576.666666667 365 524 c 0
 365 470 370.5 421 381.5 377 c 128
 392.5 333 409 295.166666667 431 263.5 c 128
 453 231.833333333 480.666666667 207.333333333 514 190 c 128
 547.333333333 172.666666667 586.333333333 164 631 164 c 0
 649.666666667 164 668.5 165.833333333 687.5 169.5 c 128
 706.5 173.166666667 723.666666667 177.666666667 739 183 c 0
 757 189 774.333333333 195.666666667 791 203 c 1
 791 864 l 1
791 0 m 1
 791 119 l 1
 783 115 768.666666667 105.166666667 748 89.5 c 128
 727.333333333 73.8333333333 702.333333333 57.5 673 40.5 c 128
 643.666666667 23.5 611.333333333 8.33333333333 576 -5 c 128
 540.666666667 -18.3333333333 504.333333333 -25 467 -25 c 0
 404.333333333 -25 348.166666667 -12.3333333333 298.5 13 c 128
 248.833333333 38.3333333333 206.833333333 73.3333333333 172.5 118 c 128
 138.166666667 162.666666667 111.833333333 215.666666667 93.5 277 c 128
 75.1666666667 338.333333333 66 405 66 477 c 0
 66 565 79.3333333333 643 106 711 c 128
 132.666666667 779 169.666666667 836.166666667 217 882.5 c 128
 264.333333333 928.833333333 320.666666667 964 386 988 c 128
 451.333333333 1012 522.666666667 1024 600 1024 c 0
 619.333333333 1024 640.166666667 1022.66666667 662.5 1020 c 128
 684.833333333 1017.33333333 705.666666667 1014.33333333 725 1011 c 0
 747 1007.66666667 769 1003.66666667 791 999 c 1
 791 1329 l 1
 639 1329 l 1
 639 1413 l 1
 958 1516 l 1
 1063 1516 l 1
 1063 150 l 2
 1063 137.333333333 1067.33333333 126.5 1076 117.5 c 128
 1084.66666667 108.5 1095.33333333 103.333333333 1108 102 c 2
 1194 96 l 1
 1194 0 l 1
 791 0 l 1
EndSplineSet
EndChar

StartChar: e
Encoding: 101 101 51
Width: 1083
GlyphClass: 2
Flags: HW
LayerCount: 2
Back
Fore
SplineSet
727 668 m 2
 727 700.666666667 724 731.333333333 718 760 c 128
 712 788.666666667 702.166666667 813.5 688.5 834.5 c 128
 674.833333333 855.5 657.333333333 872.166666667 636 884.5 c 128
 614.666666667 896.833333333 589 903 559 903 c 0
 521 903 489.166666667 894.5 463.5 877.5 c 128
 437.833333333 860.5 417.166666667 838.5 401.5 811.5 c 128
 385.833333333 784.5 374.666666667 754.333333333 368 721 c 128
 361.333333333 687.666666667 358 655 358 623 c 1
 727 623 l 1
 727 668 l 2
1020 96 m 1
 984.666666667 72.6666666667 945 52.3333333333 901 35 c 0
 863 19.6666666667 817.666666667 5.83333333333 765 -6.5 c 128
 712.333333333 -18.8333333333 653.333333333 -25 588 -25 c 0
 500.666666667 -25 424.5 -11.6666666667 359.5 15 c 128
 294.5 41.6666666667 240.166666667 78.1666666667 196.5 124.5 c 128
 152.833333333 170.833333333 120.166666667 225 98.5 287 c 128
 76.8333333333 349 66 415.666666667 66 487 c 0
 66 564.333333333 78.1666666667 635.833333333 102.5 701.5 c 128
 126.833333333 767.166666667 161.5 823.833333333 206.5 871.5 c 128
 251.5 919.166666667 305.833333333 956.5 369.5 983.5 c 128
 433.166666667 1010.5 504 1024 582 1024 c 0
 662 1024 729.833333333 1010.83333333 785.5 984.5 c 128
 841.166666667 958.166666667 886.333333333 923.166666667 921 879.5 c 128
 955.666666667 835.833333333 980.833333333 786 996.5 730 c 128
 1012.16666667 674 1020 616.333333333 1020 557 c 2
 1020 508 l 1
 348 508 l 1
 348 452 355 401.666666667 369 357 c 128
 383 312.333333333 403.5 274.333333333 430.5 243 c 128
 457.5 211.666666667 490.666666667 187.5 530 170.5 c 128
 569.333333333 153.5 614 145 664 145 c 0
 716 145 763.5 150.833333333 806.5 162.5 c 128
 849.5 174.166666667 887 187.333333333 919 202 c 0
 955.666666667 219.333333333 989.333333333 238.666666667 1020 260 c 1
 1020 96 l 1
EndSplineSet
EndChar

StartChar: f
Encoding: 102 102 52
Width: 711
GlyphClass: 2
Flags: HW
LayerCount: 2
Back
Fore
SplineSet
860 1352 m 0
 860 1336 856.5 1321 849.5 1307 c 128
 842.5 1293 833.166666667 1280.16666667 821.5 1268.5 c 128
 809.833333333 1256.83333333 796.333333333 1246.66666667 781 1238 c 128
 765.666666667 1229.33333333 749.666666667 1222.33333333 733 1217 c 1
 530 1407 l 1
 520 1391.66666667 510.833333333 1375.5 502.5 1358.5 c 128
 494.166666667 1341.5 487.333333333 1321.16666667 482 1297.5 c 128
 476.666666667 1273.83333333 472.5 1245.66666667 469.5 1213 c 128
 466.5 1180.33333333 465 1140.66666667 465 1094 c 2
 465 975 l 1
 688 975 l 1
 688 844 l 1
 467 844 l 1
 467 150 l 2
 467 137.333333333 471.166666667 126.166666667 479.5 116.5 c 128
 487.833333333 106.833333333 498.666666667 102 512 102 c 2
 637 96 l 1
 637 0 l 1
 43 0 l 1
 43 96 l 1
 147 102 l 2
 159.666666667 103.333333333 170.5 108.5 179.5 117.5 c 128
 188.5 126.5 193 137.333333333 193 150 c 2
 193 844 l 1
 59 844 l 1
 59 926 l 1
 190 993 l 1
 190 1047 197.5 1098 212.5 1146 c 128
 227.5 1194 249.666666667 1240.66666667 279 1286 c 1
 299 1319.33333333 322.5 1350 349.5 1378 c 128
 376.5 1406 406.333333333 1430.33333333 439 1451 c 128
 471.666666667 1471.66666667 506.833333333 1487.66666667 544.5 1499 c 128
 582.166666667 1510.33333333 622 1516 664 1516 c 0
 684 1516 705.5 1512.83333333 728.5 1506.5 c 128
 751.5 1500.16666667 772.833333333 1490.5 792.5 1477.5 c 128
 812.166666667 1464.5 828.333333333 1447.5 841 1426.5 c 128
 853.666666667 1405.5 860 1380.66666667 860 1352 c 0
EndSplineSet
EndChar

StartChar: g
Encoding: 103 103 53
Width: 1137
GlyphClass: 2
Flags: HW
LayerCount: 2
Back
Fore
SplineSet
793 -141 m 0
 793 -117 785.666666667 -96.3333333333 771 -79 c 128
 756.333333333 -61.6666666667 737.333333333 -46.8333333333 714 -34.5 c 128
 690.666666667 -22.1666666667 664.333333333 -12 635 -4 c 128
 605.666666667 4 576.333333333 10.5 547 15.5 c 128
 517.666666667 20.5 490 24.1666666667 464 26.5 c 128
 438 28.8333333333 416.333333333 31 399 33 c 1
 392.333333333 23 385.333333333 12.6666666667 378 2 c 128
 370.666666667 -8.66666666667 363.833333333 -20.3333333333 357.5 -33 c 128
 351.166666667 -45.6666666667 346 -59.8333333333 342 -75.5 c 128
 338 -91.1666666667 336 -108.333333333 336 -127 c 0
 335.333333333 -159.666666667 341.666666667 -190.166666667 355 -218.5 c 128
 368.333333333 -246.833333333 385.666666667 -271.5 407 -292.5 c 128
 428.333333333 -313.5 452.5 -330 479.5 -342 c 128
 506.5 -354 533.666666667 -360 561 -360 c 256
 588.333333333 -360 615.833333333 -354.833333333 643.5 -344.5 c 128
 671.166666667 -334.166666667 696 -319.5 718 -300.5 c 128
 740 -281.5 758 -258.5 772 -231.5 c 128
 786 -204.5 793 -174.333333333 793 -141 c 0
709 688 m 0
 709 716 705.833333333 744.166666667 699.5 772.5 c 128
 693.166666667 800.833333333 683.5 826.166666667 670.5 848.5 c 128
 657.5 870.833333333 641.333333333 889 622 903 c 128
 602.666666667 917 580.333333333 924 555 924 c 0
 524.333333333 924 498.333333333 917.166666667 477 903.5 c 128
 455.666666667 889.833333333 438.5 871.666666667 425.5 849 c 128
 412.5 826.333333333 403.166666667 800.833333333 397.5 772.5 c 128
 391.833333333 744.166666667 389 715.333333333 389 686 c 0
 389 656 392.166666667 626.166666667 398.5 596.5 c 128
 404.833333333 566.833333333 414.5 540.5 427.5 517.5 c 128
 440.5 494.5 457.333333333 475.833333333 478 461.5 c 128
 498.666666667 447.166666667 523 440 551 440 c 256
 579 440 602.833333333 447.166666667 622.5 461.5 c 128
 642.166666667 475.833333333 658.5 494.833333333 671.5 518.5 c 128
 684.5 542.166666667 694 568.833333333 700 598.5 c 128
 706 628.166666667 709 658 709 688 c 0
938 840 m 1
 945.333333333 825.333333333 952 809.666666667 958 793 c 0
 963.333333333 778.333333333 968.166666667 761.833333333 972.5 743.5 c 128
 976.833333333 725.166666667 979 705.333333333 979 684 c 0
 979 638 971.333333333 597.5 956 562.5 c 128
 940.666666667 527.5 920.166666667 497.166666667 894.5 471.5 c 128
 868.833333333 445.833333333 839.333333333 424.333333333 806 407 c 128
 772.666666667 389.666666667 737.833333333 376 701.5 366 c 128
 665.166666667 356 628.666666667 349.333333333 592 346 c 128
 555.333333333 342.666666667 521 342 489 344 c 1
 477 336 466.166666667 327.666666667 456.5 319 c 128
 446.833333333 310.333333333 439.333333333 301.166666667 434 291.5 c 128
 428.666666667 281.833333333 425.833333333 271.333333333 425.5 260 c 128
 425.166666667 248.666666667 428 235.666666667 434 221 c 1
 546 211.666666667 641.5 198.666666667 720.5 182 c 128
 799.5 165.333333333 864 144.666666667 914 120 c 128
 964 95.3333333333 1000.33333333 66.1666666667 1023 32.5 c 128
 1045.66666667 -1.16666666667 1057 -39.3333333333 1057 -82 c 0
 1057 -121.333333333 1049.5 -158.333333333 1034.5 -193 c 128
 1019.5 -227.666666667 999 -259.5 973 -288.5 c 128
 947 -317.5 916.333333333 -343.5 881 -366.5 c 128
 845.666666667 -389.5 807.5 -408.833333333 766.5 -424.5 c 128
 725.5 -440.166666667 682.666666667 -452.166666667 638 -460.5 c 128
 593.333333333 -468.833333333 548.666666667 -473 504 -473 c 0
 450 -473 396.833333333 -466.833333333 344.5 -454.5 c 128
 292.166666667 -442.166666667 245.333333333 -423 204 -397 c 128
 162.666666667 -371 129.333333333 -338 104 -298 c 128
 78.6666666667 -258 66 -210.666666667 66 -156 c 0
 66 -113.333333333 74 -77.8333333333 90 -49.5 c 128
 106 -21.1666666667 125 1.5 147 18.5 c 128
 169 35.5 191.5 47 214.5 53 c 128
 237.5 59 256 61 270 59 c 1
 260.666666667 77.6666666667 254 97.1666666667 250 117.5 c 128
 246 137.833333333 244 154.666666667 244 168 c 0
 244 185.333333333 246.333333333 201.833333333 251 217.5 c 128
 255.666666667 233.166666667 262.666666667 248.5 272 263.5 c 128
 281.333333333 278.5 293.166666667 293.666666667 307.5 309 c 128
 321.833333333 324.333333333 338.666666667 340.666666667 358 358 c 1
 340 362 316.833333333 370.333333333 288.5 383 c 128
 260.166666667 395.666666667 232.5 414.166666667 205.5 438.5 c 128
 178.5 462.833333333 155.166666667 493.5 135.5 530.5 c 128
 115.833333333 567.5 106 612.666666667 106 666 c 0
 106 727.333333333 117.833333333 780.5 141.5 825.5 c 128
 165.166666667 870.5 197.5 907.666666667 238.5 937 c 128
 279.5 966.333333333 327.5 988.166666667 382.5 1002.5 c 128
 437.5 1016.83333333 496.333333333 1024 559 1024 c 0
 591 1024 621.166666667 1021.66666667 649.5 1017 c 128
 677.833333333 1012.33333333 704.166666667 1006.83333333 728.5 1000.5 c 128
 752.833333333 994.166666667 775.166666667 987.333333333 795.5 980 c 128
 815.833333333 972.666666667 834.666666667 966.333333333 852 961 c 1
 1118 961 l 1
 1118 840 l 1
 938 840 l 1
EndSplineSet
EndChar

StartChar: h
Encoding: 104 104 54
Width: 1282
GlyphClass: 2
Flags: HW
LayerCount: 2
Back
Fore
SplineSet
713 0 m 1
 713 96 l 1
 778 102 l 2
 790.666666667 103.333333333 801.333333333 108.5 810 117.5 c 128
 818.666666667 126.5 823 137.333333333 823 150 c 2
 823 633 l 2
 823 649.666666667 821.166666667 669.666666667 817.5 693 c 128
 813.833333333 716.333333333 806 738.5 794 759.5 c 128
 782 780.5 764.666666667 798.5 742 813.5 c 128
 719.333333333 828.5 689 836 651 836 c 0
 630.333333333 836 608.833333333 834.5 586.5 831.5 c 128
 564.166666667 828.5 543.333333333 825.333333333 524 822 c 0
 502 818 480.333333333 813.666666667 459 809 c 1
 459 150 l 2
 459 137.333333333 463.333333333 126.5 472 117.5 c 128
 480.666666667 108.5 491.333333333 103.333333333 504 102 c 2
 575 96 l 1
 575 0 l 1
 55 0 l 1
 55 96 l 1
 139 102 l 2
 151.666666667 103.333333333 162.333333333 108.5 171 117.5 c 128
 179.666666667 126.5 184 137.333333333 184 150 c 2
 184 1329 l 1
 39 1329 l 1
 39 1413 l 1
 352 1516 l 1
 459 1516 l 1
 459 897 l 1
 497 920.333333333 536.666666667 941.333333333 578 960 c 0
 595.333333333 968 613.833333333 975.833333333 633.5 983.5 c 128
 653.166666667 991.166666667 673.166666667 998 693.5 1004 c 128
 713.833333333 1010 734.5 1014.83333333 755.5 1018.5 c 128
 776.5 1022.16666667 797 1024 817 1024 c 0
 857 1024 891.833333333 1018.83333333 921.5 1008.5 c 128
 951.166666667 998.166666667 976.5 984.5 997.5 967.5 c 128
 1018.5 950.5 1035.5 930.833333333 1048.5 908.5 c 128
 1061.5 886.166666667 1071.66666667 863 1079 839 c 128
 1086.33333333 815 1091.33333333 791.166666667 1094 767.5 c 128
 1096.66666667 743.833333333 1098 722 1098 702 c 2
 1098 150 l 2
 1098 137.333333333 1102.33333333 126.5 1111 117.5 c 128
 1119.66666667 108.5 1130.33333333 103.333333333 1143 102 c 2
 1229 96 l 1
 1229 0 l 1
 713 0 l 1
EndSplineSet
EndChar

StartChar: i
Encoding: 105 105 55
Width: 682
GlyphClass: 2
Flags: HW
LayerCount: 2
Back
Fore
SplineSet
66 0 m 1
 66 96 l 1
 160 102 l 2
 172 103.333333333 182.5 108.5 191.5 117.5 c 128
 200.5 126.5 205 137.333333333 205 150 c 2
 205 838 l 1
 74 838 l 1
 74 922 l 1
 373 1024 l 1
 477 1024 l 1
 477 150 l 2
 477 137.333333333 481.833333333 126.5 491.5 117.5 c 128
 501.166666667 108.5 512 103.333333333 524 102 c 2
 623 96 l 1
 623 0 l 1
 66 0 l 1
506 1358 m 256
 506 1336 501.833333333 1315.33333333 493.5 1296 c 128
 485.166666667 1276.66666667 473.666666667 1259.66666667 459 1245 c 128
 444.333333333 1230.33333333 427.333333333 1218.83333333 408 1210.5 c 128
 388.666666667 1202.16666667 368 1198 346 1198 c 256
 324 1198 303.333333333 1202.16666667 284 1210.5 c 128
 264.666666667 1218.83333333 248 1230.33333333 234 1245 c 128
 220 1259.66666667 208.833333333 1276.66666667 200.5 1296 c 128
 192.166666667 1315.33333333 188 1336 188 1358 c 256
 188 1380 192.166666667 1400.66666667 200.5 1420 c 128
 208.833333333 1439.33333333 220 1456 234 1470 c 128
 248 1484 264.666666667 1495.16666667 284 1503.5 c 128
 303.333333333 1511.83333333 324 1516 346 1516 c 256
 368 1516 388.666666667 1511.83333333 408 1503.5 c 128
 427.333333333 1495.16666667 444.333333333 1484 459 1470 c 128
 473.666666667 1456 485.166666667 1439.33333333 493.5 1420 c 128
 501.833333333 1400.66666667 506 1380 506 1358 c 256
EndSplineSet
EndChar

StartChar: j
Encoding: 106 106 56
Width: 664
GlyphClass: 2
Flags: HW
LayerCount: 2
Back
Fore
SplineSet
477 96 m 2
 477 21.3333333333 468 -51 450 -121 c 128
 432 -191 403.666666667 -253 365 -307 c 1
 327.666666667 -357.666666667 280.666666667 -398 224 -428 c 128
 167.333333333 -458 99.3333333333 -473 20 -473 c 0
 -7.33333333333 -473 -33.3333333333 -469.666666667 -58 -463 c 128
 -82.6666666667 -456.333333333 -104.333333333 -446.333333333 -123 -433 c 128
 -141.666666667 -419.666666667 -156.5 -403.333333333 -167.5 -384 c 128
 -178.5 -364.666666667 -184 -342.333333333 -184 -317 c 0
 -184 -299 -180.5 -282 -173.5 -266 c 128
 -166.5 -250 -157 -235.833333333 -145 -223.5 c 128
 -133 -211.166666667 -119 -201.166666667 -103 -193.5 c 128
 -87 -185.833333333 -70.3333333333 -181.333333333 -53 -180 c 1
 147 -383 l 1
 155 -370.333333333 162 -355.166666667 168 -337.5 c 128
 174 -319.833333333 179 -301 183 -281 c 128
 187 -261 190.333333333 -240.5 193 -219.5 c 128
 195.666666667 -198.5 198 -178 200 -158 c 0
 203.333333333 -111.333333333 205 -62 205 -10 c 2
 205 838 l 1
 59 838 l 1
 59 922 l 1
 373 1024 l 1
 477 1024 l 1
 477 96 l 2
498 1358 m 256
 498 1336 493.833333333 1315.33333333 485.5 1296 c 128
 477.166666667 1276.66666667 466 1259.66666667 452 1245 c 128
 438 1230.33333333 421.333333333 1218.83333333 402 1210.5 c 128
 382.666666667 1202.16666667 362 1198 340 1198 c 256
 318 1198 297.333333333 1202.16666667 278 1210.5 c 128
 258.666666667 1218.83333333 241.666666667 1230.33333333 227 1245 c 128
 212.333333333 1259.66666667 200.833333333 1276.66666667 192.5 1296 c 128
 184.166666667 1315.33333333 180 1336 180 1358 c 256
 180 1380 184.166666667 1400.66666667 192.5 1420 c 128
 200.833333333 1439.33333333 212.333333333 1456 227 1470 c 128
 241.666666667 1484 258.666666667 1495.16666667 278 1503.5 c 128
 297.333333333 1511.83333333 318 1516 340 1516 c 256
 362 1516 382.666666667 1511.83333333 402 1503.5 c 128
 421.333333333 1495.16666667 438 1484 452 1470 c 128
 466 1456 477.166666667 1439.33333333 485.5 1420 c 128
 493.833333333 1400.66666667 498 1380 498 1358 c 256
EndSplineSet
EndChar

StartChar: k
Encoding: 107 107 57
Width: 1212
GlyphClass: 2
Flags: HW
LayerCount: 2
Back
Fore
SplineSet
780 0 m 1
 780 84 l 1
 555 463 l 1
 459 463 l 1
 459 150 l 2
 459 137.333333333 463.166666667 126.5 471.5 117.5 c 128
 479.833333333 108.5 490.666666667 103.333333333 504 102 c 2
 586 96 l 1
 586 0 l 1
 53 0 l 1
 53 96 l 1
 139 102 l 2
 151.666666667 103.333333333 162.333333333 108.5 171 117.5 c 128
 179.666666667 126.5 184 137.333333333 184 150 c 2
 184 1329 l 1
 41 1329 l 1
 41 1413 l 1
 354 1516 l 1
 459 1516 l 1
 459 532 l 1
 504 532 l 1
 778 860 l 2
 784.666666667 867.333333333 786.5 874.666666667 783.5 882 c 128
 780.5 889.333333333 774 893.666666667 764 895 c 2
 686 903 l 1
 686 999 l 1
 1112 999 l 1
 1112 903 l 1
 977 887 l 1
 758 637 l 1
 1073 106 l 1
 1194 96 l 1
 1194 0 l 1
 780 0 l 1
EndSplineSet
EndChar

StartChar: l
Encoding: 108 108 58
Width: 682
GlyphClass: 2
Flags: HW
LayerCount: 2
Back
Fore
SplineSet
59 0 m 1
 59 96 l 1
 160 102 l 2
 173.333333333 103.333333333 184.166666667 108.333333333 192.5 117 c 128
 200.833333333 125.666666667 205 136.666666667 205 150 c 2
 205 1329 l 1
 59 1329 l 1
 59 1413 l 1
 373 1516 l 1
 477 1516 l 1
 477 150 l 2
 477 136.666666667 481.166666667 125.666666667 489.5 117 c 128
 497.833333333 108.333333333 508.666666667 103.333333333 522 102 c 2
 625 96 l 1
 625 0 l 1
 59 0 l 1
EndSplineSet
EndChar

StartChar: m
Encoding: 109 109 59
Width: 1855
GlyphClass: 2
Flags: HW
LayerCount: 2
Back
Fore
SplineSet
1296 0 m 1
 1296 96 l 1
 1360 102 l 2
 1372 103.333333333 1382.83333333 108.5 1392.5 117.5 c 128
 1402.16666667 126.5 1407 137.333333333 1407 150 c 2
 1407 643 l 2
 1407 667.666666667 1404 691.666666667 1398 715 c 128
 1392 738.333333333 1382.16666667 759 1368.5 777 c 128
 1354.83333333 795 1336.66666667 809.333333333 1314 820 c 128
 1291.33333333 830.666666667 1263 836 1229 836 c 0
 1207 836 1186.16666667 834.166666667 1166.5 830.5 c 128
 1146.83333333 826.833333333 1129.33333333 823 1114 819 c 0
 1096.66666667 814.333333333 1080.33333333 809 1065 803 c 1
 1065 150 l 2
 1065 137.333333333 1069.33333333 126.5 1078 117.5 c 128
 1086.66666667 108.5 1097.33333333 103.333333333 1110 102 c 2
 1174 96 l 1
 1174 0 l 1
 682 0 l 1
 682 96 l 1
 745 102 l 2
 757.666666667 103.333333333 768.5 108.5 777.5 117.5 c 128
 786.5 126.5 791 137.333333333 791 150 c 2
 791 643 l 2
 791 667.666666667 787.666666667 691.666666667 781 715 c 128
 774.333333333 738.333333333 764 759 750 777 c 128
 736 795 717.833333333 809.333333333 695.5 820 c 128
 673.166666667 830.666666667 646 836 614 836 c 0
 586 836 561.5 834.166666667 540.5 830.5 c 128
 519.5 826.833333333 502.333333333 823 489 819 c 0
 473 814.333333333 459.666666667 809 449 803 c 1
 449 150 l 2
 449 137.333333333 453.666666667 126.5 463 117.5 c 128
 472.333333333 108.5 483.333333333 103.333333333 496 102 c 2
 559 96 l 1
 559 0 l 1
 55 0 l 1
 55 96 l 1
 131 102 l 2
 143.666666667 103.333333333 154.333333333 108.5 163 117.5 c 128
 171.666666667 126.5 176 137.333333333 176 150 c 2
 176 836 l 1
 45 836 l 1
 45 920 l 1
 346 1024 l 1
 449 1024 l 1
 449 899 l 1
 483.666666667 922.333333333 519.666666667 943 557 961 c 0
 589 976.333333333 624.833333333 990.666666667 664.5 1004 c 128
 704.166666667 1017.33333333 744 1024 784 1024 c 0
 822.666666667 1024 855.666666667 1018.83333333 883 1008.5 c 128
 910.333333333 998.166666667 933.5 985.833333333 952.5 971.5 c 128
 971.5 957.166666667 987.166666667 942 999.5 926 c 128
 1011.83333333 910 1022.66666667 896.333333333 1032 885 c 1
 1072 910.333333333 1112.66666667 933.333333333 1154 954 c 0
 1172 962.666666667 1191 971.166666667 1211 979.5 c 128
 1231 987.833333333 1251.5 995.333333333 1272.5 1002 c 128
 1293.5 1008.66666667 1314.5 1014 1335.5 1018 c 128
 1356.5 1022 1377 1024 1397 1024 c 0
 1438.33333333 1024 1474 1018.5 1504 1007.5 c 128
 1534 996.5 1559.5 982 1580.5 964 c 128
 1601.5 946 1618.33333333 925.833333333 1631 903.5 c 128
 1643.66666667 881.166666667 1653.66666667 858.333333333 1661 835 c 128
 1668.33333333 811.666666667 1673.16666667 789.166666667 1675.5 767.5 c 128
 1677.83333333 745.833333333 1679 727 1679 711 c 2
 1679 150 l 2
 1679 137.333333333 1683.5 126.5 1692.5 117.5 c 128
 1701.5 108.5 1712 103.333333333 1724 102 c 2
 1798 96 l 1
 1798 0 l 1
 1296 0 l 1
EndSplineSet
EndChar

StartChar: n
Encoding: 110 110 60
Width: 1280
GlyphClass: 2
Flags: HW
LayerCount: 2
Back
Fore
SplineSet
702 0 m 1
 702 96 l 1
 778 102 l 2
 790.666666667 103.333333333 801.333333333 108.5 810 117.5 c 128
 818.666666667 126.5 823 137.333333333 823 150 c 2
 823 631 l 2
 823 657 820 682.333333333 814 707 c 128
 808 731.666666667 798.333333333 753.5 785 772.5 c 128
 771.666666667 791.5 754.333333333 806.833333333 733 818.5 c 128
 711.666666667 830.166666667 685.666666667 836 655 836 c 0
 627 836 601 834.5 577 831.5 c 128
 553 828.5 532.333333333 825.333333333 515 822 c 0
 494.333333333 818 475.666666667 813.666666667 459 809 c 1
 459 150 l 2
 459 137.333333333 463.666666667 126.5 473 117.5 c 128
 482.333333333 108.5 493.333333333 103.333333333 506 102 c 2
 567 96 l 1
 567 0 l 1
 66 0 l 1
 66 96 l 1
 139 102 l 2
 151.666666667 103.333333333 162.333333333 108.5 171 117.5 c 128
 179.666666667 126.5 184 137.333333333 184 150 c 2
 184 836 l 1
 43 836 l 1
 43 920 l 1
 352 1024 l 1
 459 1024 l 1
 459 899 l 1
 494.333333333 922.333333333 532 943 572 961 c 0
 606 976.333333333 644.333333333 990.666666667 687 1004 c 128
 729.666666667 1017.33333333 773 1024 817 1024 c 0
 875.666666667 1024 923.333333333 1013.83333333 960 993.5 c 128
 996.666666667 973.166666667 1025 946.333333333 1045 913 c 128
 1065 879.666666667 1078.5 841.666666667 1085.5 799 c 128
 1092.5 756.333333333 1096 712.666666667 1096 668 c 2
 1096 150 l 2
 1096 137.333333333 1100.66666667 126.5 1110 117.5 c 128
 1119.33333333 108.5 1130.33333333 103.333333333 1143 102 c 2
 1206 96 l 1
 1206 0 l 1
 702 0 l 1
EndSplineSet
EndChar

StartChar: o
Encoding: 111 111 61
Width: 1196
GlyphClass: 2
Flags: HW
LayerCount: 2
Back
Fore
SplineSet
827 496 m 0
 827 524.666666667 825.666666667 554.833333333 823 586.5 c 128
 820.333333333 618.166666667 815.833333333 649.333333333 809.5 680 c 128
 803.166666667 710.666666667 794.333333333 739.666666667 783 767 c 128
 771.666666667 794.333333333 757.5 818.333333333 740.5 839 c 128
 723.5 859.666666667 703.333333333 876.166666667 680 888.5 c 128
 656.666666667 900.833333333 629.333333333 907 598 907 c 0
 552 907 514.333333333 894.333333333 485 869 c 128
 455.666666667 843.666666667 432.833333333 811.166666667 416.5 771.5 c 128
 400.166666667 731.833333333 388.833333333 688.333333333 382.5 641 c 128
 376.166666667 593.666666667 373 548 373 504 c 0
 373 474.666666667 374.166666667 444 376.5 412 c 128
 378.833333333 380 383.166666667 348.666666667 389.5 318 c 128
 395.833333333 287.333333333 404.333333333 258.333333333 415 231 c 128
 425.666666667 203.666666667 439.5 179.5 456.5 158.5 c 128
 473.5 137.5 493.666666667 120.833333333 517 108.5 c 128
 540.333333333 96.1666666667 568 90 600 90 c 0
 646.666666667 90 684.666666667 102.5 714 127.5 c 128
 743.333333333 152.5 766.333333333 184.666666667 783 224 c 128
 799.666666667 263.333333333 811.166666667 307 817.5 355 c 128
 823.833333333 403 827 450 827 496 c 0
1133 494 m 0
 1133 417.333333333 1120.83333333 347.166666667 1096.5 283.5 c 128
 1072.16666667 219.833333333 1036.66666667 165.166666667 990 119.5 c 128
 943.333333333 73.8333333333 886.5 38.3333333333 819.5 13 c 128
 752.5 -12.3333333333 676.666666667 -25 592 -25 c 0
 514 -25 442.833333333 -13 378.5 11 c 128
 314.166666667 35 258.833333333 69.3333333333 212.5 114 c 128
 166.166666667 158.666666667 130.166666667 213.166666667 104.5 277.5 c 128
 78.8333333333 341.833333333 66 414.666666667 66 496 c 0
 66 580 79.3333333333 654.666666667 106 720 c 128
 132.666666667 785.333333333 169.833333333 840.5 217.5 885.5 c 128
 265.166666667 930.5 322 964.833333333 388 988.5 c 128
 454 1012.16666667 526.666666667 1024 606 1024 c 0
 690.666666667 1024 765.666666667 1011 831 985 c 128
 896.333333333 959 951.333333333 922.5 996 875.5 c 128
 1040.66666667 828.5 1074.66666667 772.666666667 1098 708 c 128
 1121.33333333 643.333333333 1133 572 1133 494 c 0
EndSplineSet
EndChar

StartChar: p
Encoding: 112 112 62
Width: 1237
GlyphClass: 2
Flags: HW
LayerCount: 2
Back
Fore
SplineSet
868 498 m 0
 868 542.666666667 862.833333333 585.666666667 852.5 627 c 128
 842.166666667 668.333333333 826.5 704.5 805.5 735.5 c 128
 784.5 766.5 757.833333333 791.333333333 725.5 810 c 128
 693.166666667 828.666666667 654.666666667 838 610 838 c 0
 592 838 574.166666667 836.333333333 556.5 833 c 128
 538.833333333 829.666666667 522.666666667 826 508 822 c 0
 490.666666667 817.333333333 474.333333333 812.333333333 459 807 c 1
 459 111 l 1
 472.333333333 105.666666667 485.666666667 101.333333333 499 98 c 0
 510.333333333 94.6666666667 522.333333333 91.8333333333 535 89.5 c 128
 547.666666667 87.1666666667 559.666666667 86 571 86 c 0
 620.333333333 86 663.5 96.6666666667 700.5 118 c 128
 737.5 139.333333333 768.5 168.5 793.5 205.5 c 128
 818.5 242.5 837.166666667 286.166666667 849.5 336.5 c 128
 861.833333333 386.833333333 868 440.666666667 868 498 c 0
1171 528 m 0
 1171 445.333333333 1158 370 1132 302 c 128
 1106 234 1069 175.833333333 1021 127.5 c 128
 973 79.1666666667 915 41.6666666667 847 15 c 128
 779 -11.6666666667 702.666666667 -25 618 -25 c 0
 597.333333333 -25 577.666666667 -24 559 -22 c 128
 540.333333333 -20 523.333333333 -17.6666666667 508 -15 c 0
 490.666666667 -12.3333333333 474.333333333 -8.66666666667 459 -4 c 1
 459 -299 l 2
 459 -312.333333333 463.166666667 -323.5 471.5 -332.5 c 128
 479.833333333 -341.5 490.666666667 -346 504 -346 c 1
 612 -352 l 1
 612 -449 l 1
 49 -449 l 1
 49 -352 l 1
 139 -346 l 1
 151.666666667 -346 162.333333333 -341.5 171 -332.5 c 128
 179.666666667 -323.5 184 -312.333333333 184 -299 c 2
 184 836 l 1
 49 836 l 1
 49 920 l 1
 352 1024 l 1
 459 1024 l 1
 459 895 l 1
 491 919 525.333333333 940.333333333 562 959 c 0
 593.333333333 975 628.333333333 989.833333333 667 1003.5 c 128
 705.666666667 1017.16666667 746 1024 788 1024 c 0
 829.333333333 1024 867.666666667 1017.33333333 903 1004 c 128
 938.333333333 990.666666667 970.166666667 972.5 998.5 949.5 c 128
 1026.83333333 926.5 1051.83333333 899.166666667 1073.5 867.5 c 128
 1095.16666667 835.833333333 1113.16666667 801.666666667 1127.5 765 c 128
 1141.83333333 728.333333333 1152.66666667 689.833333333 1160 649.5 c 128
 1167.33333333 609.166666667 1171 568.666666667 1171 528 c 0
EndSplineSet
EndChar

StartChar: q
Encoding: 113 113 63
Width: 1235
GlyphClass: 2
Flags: HW
LayerCount: 2
Back
Fore
SplineSet
776 895 m 1
 769.333333333 896.333333333 761.666666667 897.666666667 753 899 c 0
 745.666666667 900.333333333 736.833333333 901.333333333 726.5 902 c 128
 716.166666667 902.666666667 705.333333333 903 694 903 c 0
 633.333333333 903 582 893.166666667 540 873.5 c 128
 498 853.833333333 464 826.666666667 438 792 c 128
 412 757.333333333 393.333333333 716.333333333 382 669 c 128
 370.666666667 621.666666667 365 570.666666667 365 516 c 0
 365 460 371.333333333 409.666666667 384 365 c 128
 396.666666667 320.333333333 415 282.333333333 439 251 c 128
 463 219.666666667 492.333333333 195.666666667 527 179 c 128
 561.666666667 162.333333333 601 154 645 154 c 0
 660.333333333 154 675.666666667 154.333333333 691 155 c 128
 706.333333333 155.666666667 720.333333333 156.666666667 733 158 c 0
 747.666666667 159.333333333 762 160.666666667 776 162 c 1
 776 895 l 1
618 -449 m 1
 618 -352 l 1
 731 -346 l 1
 744.333333333 -346 755.166666667 -341.5 763.5 -332.5 c 128
 771.833333333 -323.5 776 -312.333333333 776 -299 c 2
 776 80 l 1
 747.333333333 60 716.666666667 42.3333333333 684 27 c 0
 655.333333333 13.6666666667 622.5 1.66666666667 585.5 -9 c 128
 548.5 -19.6666666667 509 -25 467 -25 c 0
 405.666666667 -25 350.166666667 -11.6666666667 300.5 15 c 128
 250.833333333 41.6666666667 208.666666667 77.6666666667 174 123 c 128
 139.333333333 168.333333333 112.666666667 220.833333333 94 280.5 c 128
 75.3333333333 340.166666667 66 403 66 469 c 0
 66 565.666666667 82.3333333333 649 115 719 c 128
 147.666666667 789 193.166666667 846.5 251.5 891.5 c 128
 309.833333333 936.5 379.5 969.833333333 460.5 991.5 c 128
 541.5 1013.16666667 630.333333333 1024 727 1024 c 0
 761.666666667 1024 798 1022.66666667 836 1020 c 128
 874 1017.33333333 909 1014.33333333 941 1011 c 0
 978.333333333 1007.66666667 1015 1003.66666667 1051 999 c 1
 1051 -299 l 2
 1051 -312.333333333 1055.33333333 -323.5 1064 -332.5 c 128
 1072.66666667 -341.5 1083.33333333 -346 1096 -346 c 1
 1180 -352 l 1
 1180 -449 l 1
 618 -449 l 1
EndSplineSet
EndChar

StartChar: r
Encoding: 114 114 64
Width: 885
GlyphClass: 2
Flags: HW
LayerCount: 2
Back
Fore
SplineSet
725 676 m 1
 720.333333333 682.666666667 714.5 690.666666667 707.5 700 c 128
 700.5 709.333333333 691.833333333 718.333333333 681.5 727 c 128
 671.166666667 735.666666667 658.666666667 743 644 749 c 128
 629.333333333 755 612 758 592 758 c 0
 572.666666667 758 554.666666667 756 538 752 c 128
 521.333333333 748 507.333333333 743.666666667 496 739 c 0
 482 733.666666667 469.666666667 727.666666667 459 721 c 1
 459 147 l 2
 459 135 463.166666667 124.166666667 471.5 114.5 c 128
 479.833333333 104.833333333 490.666666667 100 504 100 c 2
 635 94 l 1
 635 -2 l 1
 49 -2 l 1
 49 94 l 1
 139 100 l 2
 151.666666667 101.333333333 162.333333333 106.5 171 115.5 c 128
 179.666666667 124.5 184 135 184 147 c 2
 184 836 l 1
 35 836 l 1
 35 920 l 1
 352 1024 l 1
 459 1024 l 1
 459 807 l 1
 471.666666667 823 488.833333333 843.333333333 510.5 868 c 128
 532.166666667 892.666666667 555.666666667 916.5 581 939.5 c 128
 606.333333333 962.5 632.5 982.333333333 659.5 999 c 128
 686.5 1015.66666667 711.666666667 1024 735 1024 c 0
 747 1024 759.333333333 1023 772 1021 c 128
 784.666666667 1019 796.833333333 1016.16666667 808.5 1012.5 c 128
 820.166666667 1008.83333333 830.833333333 1004.83333333 840.5 1000.5 c 128
 850.166666667 996.166666667 858 991.666666667 864 987 c 1
 864 676 l 1
 725 676 l 1
EndSplineSet
EndChar

StartChar: s
Encoding: 115 115 65
Width: 911
GlyphClass: 2
Flags: HW
LayerCount: 2
Back
Fore
SplineSet
815 686 m 1
 688 686 l 1
 666 850 l 1
 652.666666667 865.333333333 632 877.666666667 604 887 c 128
 576 896.333333333 543.333333333 901 506 901 c 0
 458 901 420.333333333 891.166666667 393 871.5 c 128
 365.666666667 851.833333333 352 824 352 788 c 0
 352 768 357.666666667 749.333333333 369 732 c 128
 380.333333333 714.666666667 395.666666667 698.333333333 415 683 c 128
 434.333333333 667.666666667 456.333333333 653.166666667 481 639.5 c 128
 505.666666667 625.833333333 531.666666667 612 559 598 c 0
 593 580.666666667 627.333333333 563 662 545 c 128
 696.666666667 527 727.666666667 507 755 485 c 128
 782.333333333 463 804.666666667 438.5 822 411.5 c 128
 839.333333333 384.5 848 353.666666667 848 319 c 0
 848 254.333333333 835.666666667 200.166666667 811 156.5 c 128
 786.333333333 112.833333333 754.333333333 77.5 715 50.5 c 128
 675.666666667 23.5 631 4.16666666667 581 -7.5 c 128
 531 -19.1666666667 480.666666667 -25 430 -25 c 256
 379.333333333 -25 332.166666667 -22.1666666667 288.5 -16.5 c 128
 244.833333333 -10.8333333333 206.333333333 -4.33333333333 173 3 c 0
 134.333333333 11 98.6666666667 20.3333333333 66 31 c 1
 66 342 l 1
 195 342 l 1
 196.333333333 328 198.333333333 310.333333333 201 289 c 128
 203.666666667 267.666666667 206.333333333 247 209 227 c 0
 211.666666667 203.666666667 215 179.333333333 219 154 c 1
 220.333333333 150.666666667 228 145.833333333 242 139.5 c 128
 256 133.166666667 272.666666667 126.666666667 292 120 c 128
 311.333333333 113.333333333 331.666666667 107.666666667 353 103 c 128
 374.333333333 98.3333333333 393.333333333 96 410 96 c 0
 444.666666667 96 473.333333333 100.666666667 496 110 c 128
 518.666666667 119.333333333 536.666666667 130.666666667 550 144 c 128
 563.333333333 157.333333333 572.666666667 171.5 578 186.5 c 128
 583.333333333 201.5 586 215 586 227 c 0
 586 255 577.166666667 279.166666667 559.5 299.5 c 128
 541.833333333 319.833333333 519 338.333333333 491 355 c 128
 463 371.666666667 431.5 387.5 396.5 402.5 c 128
 361.5 417.5 327 433.666666667 293 451 c 0
 264.333333333 465 237 480.333333333 211 497 c 128
 185 513.666666667 162.166666667 532.333333333 142.5 553 c 128
 122.833333333 573.666666667 107.166666667 597 95.5 623 c 128
 83.8333333333 649 78 679 78 713 c 0
 78 760.333333333 88.1666666667 803.166666667 108.5 841.5 c 128
 128.833333333 879.833333333 157.333333333 912.5 194 939.5 c 128
 230.666666667 966.5 274 987.333333333 324 1002 c 128
 374 1016.66666667 429 1024 489 1024 c 0
 539.666666667 1024 585.166666667 1021.16666667 625.5 1015.5 c 128
 665.833333333 1009.83333333 700 1003.33333333 728 996 c 0
 760.666666667 988 789.666666667 979 815 969 c 1
 815 686 l 1
EndSplineSet
EndChar

StartChar: t
Encoding: 116 116 66
Width: 768
GlyphClass: 2
Flags: HW
LayerCount: 2
Back
Fore
SplineSet
760 45 m 1
 728 31.6666666667 694 20 658 10 c 1
 627.333333333 0.666666666667 592.5 -7.5 553.5 -14.5 c 128
 514.5 -21.5 474 -25 432 -25 c 0
 386.666666667 -25 348.166666667 -20 316.5 -10 c 128
 284.833333333 0 259.166666667 15.5 239.5 36.5 c 128
 219.833333333 57.5 205.666666667 83.6666666667 197 115 c 128
 188.333333333 146.333333333 184 183.666666667 184 227 c 2
 184 868 l 1
 49 868 l 1
 49 950 l 1
 207 1044 l 1
 317 1262 l 1
 459 1262 l 1
 459 999 l 1
 743 999 l 1
 743 868 l 1
 459 868 l 1
 459 311 l 2
 459 245.666666667 473.333333333 199.666666667 502 173 c 128
 530.666666667 146.333333333 572.333333333 133 627 133 c 0
 643 133 659 133.666666667 675 135 c 128
 691 136.333333333 705.333333333 138 718 140 c 0
 732.666666667 142 746.666666667 144.333333333 760 147 c 1
 760 45 l 1
EndSplineSet
EndChar

StartChar: u
Encoding: 117 117 67
Width: 1270
GlyphClass: 2
Flags: HW
LayerCount: 2
Back
Fore
SplineSet
811 0 m 1
 811 113 l 1
 777 87 741.666666667 64 705 44 c 0
 673.666666667 26.6666666667 639 10.8333333333 601 -3.5 c 128
 563 -17.8333333333 525 -25 487 -25 c 0
 429 -25 380.5 -17.3333333333 341.5 -2 c 128
 302.5 13.3333333333 271.333333333 35.3333333333 248 64 c 128
 224.666666667 92.6666666667 208.166666667 127.666666667 198.5 169 c 128
 188.833333333 210.333333333 184 257 184 309 c 2
 184 838 l 1
 51 838 l 1
 51 922 l 1
 352 1024 l 1
 459 1024 l 1
 459 389 l 2
 459 363.666666667 460.666666667 337.666666667 464 311 c 128
 467.333333333 284.333333333 475.333333333 260 488 238 c 128
 500.666666667 216 519.5 197.833333333 544.5 183.5 c 128
 569.5 169.166666667 603.666666667 162 647 162 c 0
 668.333333333 162 688.833333333 163.666666667 708.5 167 c 128
 728.166666667 170.333333333 745.666666667 174.333333333 761 179 c 0
 778.333333333 184.333333333 795 190.333333333 811 197 c 1
 811 838 l 1
 682 838 l 1
 682 922 l 1
 981 1024 l 1
 1085 1024 l 1
 1085 150 l 2
 1085 137.333333333 1089.83333333 126.5 1099.5 117.5 c 128
 1109.16666667 108.5 1120.33333333 103.333333333 1133 102 c 2
 1223 96 l 1
 1223 0 l 1
 811 0 l 1
EndSplineSet
EndChar

StartChar: v
Encoding: 118 118 68
Width: 1159
GlyphClass: 2
Flags: HW
LayerCount: 2
Back
Fore
SplineSet
1024 889 m 1
 672 0 l 1
 469 0 l 1
 141 891 l 1
 20 903 l 1
 20 999 l 1
 559 999 l 1
 559 903 l 1
 465 897 l 2
 452.333333333 895.666666667 443.333333333 890.666666667 438 882 c 128
 432.666666667 873.333333333 432 863.333333333 436 852 c 2
 637 285 l 1
 860 852 l 2
 864 862 862.666666667 871.666666667 856 881 c 128
 849.333333333 890.333333333 840.333333333 895.666666667 829 897 c 2
 743 903 l 1
 743 999 l 1
 1141 999 l 1
 1141 903 l 1
 1024 889 l 1
EndSplineSet
EndChar

StartChar: w
Encoding: 119 119 69
Width: 1722
GlyphClass: 2
Flags: HW
LayerCount: 2
Back
Fore
SplineSet
1589 889 m 1
 1315 0 l 1
 1087 0 l 1
 864 727 l 1
 629 0 l 1
 406 0 l 1
 141 891 l 1
 20 903 l 1
 20 999 l 1
 545 999 l 1
 545 903 l 1
 457 897 l 2
 445.666666667 895.666666667 436.833333333 890.666666667 430.5 882 c 128
 424.166666667 873.333333333 422.666666667 863.333333333 426 852 c 2
 586 289 l 1
 815 999 l 1
 1040 999 l 1
 1260 285 l 1
 1430 852 l 2
 1433.33333333 862 1432.16666667 871.666666667 1426.5 881 c 128
 1420.83333333 890.333333333 1412.33333333 895.666666667 1401 897 c 2
 1311 903 l 1
 1311 999 l 1
 1704 999 l 1
 1704 903 l 1
 1589 889 l 1
EndSplineSet
EndChar

StartChar: x
Encoding: 120 120 70
Width: 1118
GlyphClass: 2
Flags: HW
LayerCount: 2
Back
Fore
SplineSet
580 0 m 1
 580 96 l 1
 659 104 l 2
 669.666666667 105.333333333 676.5 109.5 679.5 116.5 c 128
 682.5 123.5 681.333333333 131 676 139 c 2
 514 360 l 1
 334 139 l 2
 328 131.666666667 326.333333333 124.333333333 329 117 c 128
 331.666666667 109.666666667 338 105.333333333 348 104 c 2
 420 96 l 1
 420 0 l 1
 20 0 l 1
 20 96 l 1
 143 113 l 1
 436 467 l 1
 133 889 l 1
 25 903 l 1
 25 999 l 1
 528 999 l 1
 528 903 l 1
 469 897 l 2
 457.666666667 895.666666667 450.833333333 891 448.5 883 c 128
 446.166666667 875 448.333333333 867.333333333 455 860 c 1
 598 662 l 1
 762 860 l 2
 767.333333333 867.333333333 768.833333333 875 766.5 883 c 128
 764.166666667 891 758 895.666666667 748 897 c 2
 682 903 l 1
 682 999 l 1
 1063 999 l 1
 1063 903 l 1
 948 889 l 1
 676 553 l 1
 991 113 l 1
 1100 96 l 1
 1100 0 l 1
 580 0 l 1
EndSplineSet
EndChar

StartChar: y
Encoding: 121 121 71
Width: 1159
GlyphClass: 2
Flags: HW
LayerCount: 2
Back
Fore
SplineSet
1032 889 m 1
 678 20 l 2
 665.333333333 -10.6666666667 651.333333333 -44 636 -80 c 128
 620.666666667 -116 603.5 -152.166666667 584.5 -188.5 c 128
 565.5 -224.833333333 544.666666667 -259.833333333 522 -293.5 c 128
 499.333333333 -327.166666667 474 -357 446 -383 c 1
 417.333333333 -411 386.166666667 -433 352.5 -449 c 128
 318.833333333 -465 282 -473 242 -473 c 0
 222 -473 201.166666667 -469.166666667 179.5 -461.5 c 128
 157.833333333 -453.833333333 138.166666667 -442.833333333 120.5 -428.5 c 128
 102.833333333 -414.166666667 88.3333333333 -396.833333333 77 -376.5 c 128
 65.6666666667 -356.166666667 60.3333333333 -333.666666667 61 -309 c 0
 61 -290.333333333 64.5 -273.166666667 71.5 -257.5 c 128
 78.5 -241.833333333 87.5 -227.666666667 98.5 -215 c 128
 109.5 -202.333333333 122.166666667 -191.333333333 136.5 -182 c 128
 150.833333333 -172.666666667 165.333333333 -164.666666667 180 -158 c 1
 354 -291 l 1
 372.666666667 -273.666666667 390.166666667 -253 406.5 -229 c 128
 422.833333333 -205 437.5 -180.166666667 450.5 -154.5 c 128
 463.5 -128.833333333 474.833333333 -104 484.5 -80 c 128
 494.166666667 -56 501.333333333 -35.3333333333 506 -18 c 1
 141 891 l 1
 20 903 l 1
 20 999 l 1
 559 999 l 1
 559 903 l 1
 465 897 l 2
 452.333333333 895.666666667 443 890.666666667 437 882 c 128
 431 873.333333333 430 863.333333333 434 852 c 2
 645 326 l 1
 862 852 l 2
 866 862 864.666666667 871.666666667 858 881 c 128
 851.333333333 890.333333333 842.333333333 895.666666667 831 897 c 2
 741 903 l 1
 741 999 l 1
 1141 999 l 1
 1141 903 l 1
 1032 889 l 1
EndSplineSet
EndChar

StartChar: z
Encoding: 122 122 72
Width: 1006
GlyphClass: 2
Flags: HW
LayerCount: 2
Back
Fore
SplineSet
66 0 m 1
 66 133 l 1
 590 883 l 1
 281 883 l 2
 270.333333333 883 261.166666667 878.166666667 253.5 868.5 c 128
 245.833333333 858.833333333 242 849.333333333 242 840 c 1
 227 682 l 1
 82 682 l 1
 82 999 l 1
 911 999 l 1
 911 885 l 1
 375 121 l 1
 727 121 l 2
 731.666666667 121 736.333333333 122.666666667 741 126 c 128
 745.666666667 129.333333333 750.166666667 133.333333333 754.5 138 c 128
 758.833333333 142.666666667 762.5 147.833333333 765.5 153.5 c 128
 768.5 159.166666667 770.666666667 164.666666667 772 170 c 2
 799 344 l 1
 940 344 l 1
 940 0 l 1
 66 0 l 1
EndSplineSet
EndChar

StartChar: braceleft
Encoding: 123 123 73
Width: 1014
GlyphClass: 2
Flags: HW
LayerCount: 2
Back
Fore
SplineSet
864 -250 m 1
 824 -250 l 2
 806 -250 784.833333333 -249.5 760.5 -248.5 c 128
 736.166666667 -247.5 710 -245.5 682 -242.5 c 128
 654 -239.5 626.333333333 -234.833333333 599 -228.5 c 128
 571.666666667 -222.166666667 545.666666667 -214 521 -204 c 128
 496.333333333 -194 475.666666667 -181.333333333 459 -166 c 0
 427.666666667 -138.666666667 405 -106.333333333 391 -69 c 128
 377 -31.6666666667 367.833333333 7.5 363.5 48.5 c 128
 359.166666667 89.5 357.5 131.166666667 358.5 173.5 c 128
 359.5 215.833333333 359.666666667 256.333333333 359 295 c 128
 358.333333333 333.666666667 354.833333333 369 348.5 401 c 128
 342.166666667 433 329 459 309 479 c 256
 289 499 266 513.166666667 240 521.5 c 128
 214 529.833333333 189.333333333 535.333333333 166 538 c 0
 139.333333333 540.666666667 112 540.333333333 84 537 c 1
 84 659 l 1
 112 655 139.333333333 654.333333333 166 657 c 0
 189.333333333 659 214 664.166666667 240 672.5 c 128
 266 680.833333333 289 695 309 715 c 256
 329 735 342.166666667 761.166666667 348.5 793.5 c 128
 354.833333333 825.833333333 358.333333333 861.333333333 359 900 c 128
 359.666666667 938.666666667 359.5 979.333333333 358.5 1022 c 128
 357.5 1064.66666667 359.166666667 1106.5 363.5 1147.5 c 128
 367.833333333 1188.5 377 1227.66666667 391 1265 c 128
 405 1302.33333333 427.666666667 1334.66666667 459 1362 c 0
 475.666666667 1377.33333333 496.333333333 1390 521 1400 c 128
 545.666666667 1410 571.666666667 1418.16666667 599 1424.5 c 128
 626.333333333 1430.83333333 654 1435.5 682 1438.5 c 128
 710 1441.5 736.166666667 1443.5 760.5 1444.5 c 128
 784.833333333 1445.5 806 1446 824 1446 c 2
 864 1446 l 1
 864 1333 l 1
 839.333333333 1333 815 1331.33333333 791 1328 c 0
 770.333333333 1324.66666667 748.833333333 1319.33333333 726.5 1312 c 128
 704.166666667 1304.66666667 685.333333333 1293.33333333 670 1278 c 0
 649.333333333 1258 635.333333333 1233.16666667 628 1203.5 c 128
 620.666666667 1173.83333333 616.333333333 1141.5 615 1106.5 c 128
 613.666666667 1071.5 613.333333333 1035 614 997 c 128
 614.666666667 959 613 921.5 609 884.5 c 128
 605 847.5 596.833333333 812 584.5 778 c 128
 572.166666667 744 552 714 524 688 c 0
 502.666666667 667.333333333 480.333333333 651 457 639 c 128
 433.666666667 627 412 618 392 612 c 128
 372 606 354.333333333 602 339 600 c 0
 327.666666667 598.666666667 319 598 313 598 c 1
 319 597.333333333 327.666666667 596.333333333 339 595 c 0
 354.333333333 593 372 588.833333333 392 582.5 c 128
 412 576.166666667 433.666666667 567 457 555 c 128
 480.333333333 543 502.666666667 526.666666667 524 506 c 0
 552 479.333333333 572.166666667 449.166666667 584.5 415.5 c 128
 596.833333333 381.833333333 605 346.5 609 309.5 c 128
 613 272.5 614.666666667 235.166666667 614 197.5 c 128
 613.333333333 159.833333333 613.666666667 123.666666667 615 89 c 128
 616.333333333 54.3333333333 620.666666667 22.1666666667 628 -7.5 c 128
 635.333333333 -37.1666666667 649.333333333 -62 670 -82 c 0
 685.333333333 -97.3333333333 704.166666667 -108.666666667 726.5 -116 c 128
 748.833333333 -123.333333333 770.333333333 -128.666666667 791 -132 c 0
 815 -135.333333333 839.333333333 -137 864 -137 c 1
 864 -250 l 1
EndSplineSet
EndChar

StartChar: bar
Encoding: 124 124 74
Width: 815
GlyphClass: 2
Flags: HW
LayerCount: 2
Back
Fore
SplineSet
320 -528 m 1
 320 1630 l 1
 495 1630 l 1
 495 -528 l 1
 320 -528 l 1
EndSplineSet
EndChar

StartChar: braceright
Encoding: 125 125 75
Width: 1014
GlyphClass: 2
Flags: HW
LayerCount: 2
Back
Fore
SplineSet
930 537 m 1
 901.333333333 540.333333333 873.666666667 540.666666667 847 538 c 0
 823.666666667 535.333333333 799 529.833333333 773 521.5 c 128
 747 513.166666667 724.333333333 499 705 479 c 0
 685 458.333333333 671.666666667 432 665 400 c 128
 658.333333333 368 654.5 332.666666667 653.5 294 c 128
 652.5 255.333333333 652.5 214.833333333 653.5 172.5 c 128
 654.5 130.166666667 652.833333333 88.5 648.5 47.5 c 128
 644.166666667 6.5 635.166666667 -32.5 621.5 -69.5 c 128
 607.833333333 -106.5 585.666666667 -138.666666667 555 -166 c 0
 537.666666667 -181.333333333 516.833333333 -194 492.5 -204 c 128
 468.166666667 -214 442.333333333 -222.166666667 415 -228.5 c 128
 387.666666667 -234.833333333 360 -239.5 332 -242.5 c 128
 304 -245.5 277.833333333 -247.5 253.5 -248.5 c 128
 229.166666667 -249.5 207.666666667 -250 189 -250 c 2
 150 -250 l 1
 150 -137 l 1
 174.666666667 -137 199 -135.333333333 223 -132 c 0
 243.666666667 -128.666666667 265 -123.333333333 287 -116 c 128
 309 -108.666666667 328 -97.3333333333 344 -82 c 0
 364.666666667 -62 378.666666667 -37.3333333333 386 -8 c 128
 393.333333333 21.3333333333 397.666666667 53.3333333333 399 88 c 128
 400.333333333 122.666666667 400.666666667 158.833333333 400 196.5 c 128
 399.333333333 234.166666667 400.833333333 271.5 404.5 308.5 c 128
 408.166666667 345.5 416.166666667 381 428.5 415 c 128
 440.833333333 449 461 479.333333333 489 506 c 0
 510.333333333 526 532.333333333 542 555 554 c 128
 577.666666667 566 599.166666667 575.166666667 619.5 581.5 c 128
 639.833333333 587.833333333 657.666666667 592 673 594 c 128
 688.333333333 596 699 597.333333333 705 598 c 1
 700.333333333 598 690.5 598.666666667 675.5 600 c 128
 660.5 601.333333333 642.833333333 605 622.5 611 c 128
 602.166666667 617 580.333333333 626 557 638 c 128
 533.666666667 650 511 666.666666667 489 688 c 0
 461 714.666666667 440.833333333 745 428.5 779 c 128
 416.166666667 813 408.166666667 848.5 404.5 885.5 c 128
 400.833333333 922.5 399.333333333 960 400 998 c 128
 400.666666667 1036 400.333333333 1072.5 399 1107.5 c 128
 397.666666667 1142.5 393.333333333 1174.66666667 386 1204 c 128
 378.666666667 1233.33333333 364.666666667 1258 344 1278 c 0
 328 1293.33333333 309 1304.66666667 287 1312 c 128
 265 1319.33333333 243.666666667 1324.66666667 223 1328 c 0
 199 1331.33333333 174.666666667 1333 150 1333 c 1
 150 1446 l 1
 189 1446 l 2
 207.666666667 1446 229.166666667 1445.5 253.5 1444.5 c 128
 277.833333333 1443.5 304 1441.5 332 1438.5 c 128
 360 1435.5 387.666666667 1430.83333333 415 1424.5 c 128
 442.333333333 1418.16666667 468.333333333 1410 493 1400 c 128
 517.666666667 1390 538.333333333 1377.33333333 555 1362 c 0
 585.666666667 1334 607.833333333 1301.5 621.5 1264.5 c 128
 635.166666667 1227.5 644.166666667 1188.5 648.5 1147.5 c 128
 652.833333333 1106.5 654.5 1064.66666667 653.5 1022 c 128
 652.5 979.333333333 652.5 938.666666667 653.5 900 c 128
 654.5 861.333333333 658.333333333 825.833333333 665 793.5 c 128
 671.666666667 761.166666667 685 735 705 715 c 0
 724.333333333 695 747 680.833333333 773 672.5 c 128
 799 664.166666667 823.666666667 659 847 657 c 0
 873.666666667 654.333333333 901.333333333 655 930 659 c 1
 930 537 l 1
EndSplineSet
EndChar

StartChar: asciitilde
Encoding: 126 126 76
Width: 1706
GlyphClass: 2
Flags: HW
LayerCount: 2
Back
Fore
SplineSet
1530 614 m 1
 1488.66666667 584.666666667 1450.16666667 560 1414.5 540 c 128
 1378.83333333 520 1345.16666667 504 1313.5 492 c 128
 1281.83333333 480 1251.33333333 471.5 1222 466.5 c 128
 1192.66666667 461.5 1163.66666667 459 1135 459 c 0
 1085 459 1036.5 466.166666667 989.5 480.5 c 128
 942.5 494.833333333 895.833333333 510.5 849.5 527.5 c 128
 803.166666667 544.5 756.333333333 560.166666667 709 574.5 c 128
 661.666666667 588.833333333 613 596 563 596 c 0
 515.666666667 596 460.666666667 581.5 398 552.5 c 128
 335.333333333 523.5 261.333333333 476.666666667 176 412 c 1
 176 606 l 1
 253.333333333 664.666666667 325.333333333 705.666666667 392 729 c 128
 458.666666667 752.333333333 519.666666667 764 575 764 c 0
 613.666666667 764 651.333333333 759.833333333 688 751.5 c 128
 724.666666667 743.166666667 760.833333333 733 796.5 721 c 128
 832.166666667 709 867.666666667 696.166666667 903 682.5 c 128
 938.333333333 668.833333333 974 657 1010 647 c 0
 1031.33333333 641 1052.66666667 636.166666667 1074 632.5 c 128
 1095.33333333 628.833333333 1116.33333333 627 1137 627 c 0
 1159 627 1182.66666667 629.666666667 1208 635 c 128
 1233.33333333 640.333333333 1261.83333333 649.833333333 1293.5 663.5 c 128
 1325.16666667 677.166666667 1360.33333333 695.833333333 1399 719.5 c 128
 1437.66666667 743.166666667 1481.33333333 773 1530 809 c 1
 1530 614 l 1
EndSplineSet
EndChar

StartChar: exclam
Encoding: 33 33 83
Width: 696
GlyphClass: 2
Flags: HW
LayerCount: 2
Back
Fore
SplineSet
514 143 m 0
 514 119.666666667 509.5 97.6666666667 500.5 77 c 128
 491.5 56.3333333333 479.5 38.5 464.5 23.5 c 128
 449.5 8.5 432.166666667 -3.33333333333 412.5 -12 c 128
 392.833333333 -20.6666666667 372 -25 350 -25 c 0
 333.333333333 -25 315.333333333 -21.8333333333 296 -15.5 c 128
 276.666666667 -9.16666666667 258.666666667 0.666666666667 242 14 c 128
 225.333333333 27.3333333333 211.5 44.6666666667 200.5 66 c 128
 189.5 87.3333333333 184 113 184 143 c 0
 184 169.666666667 189 193.166666667 199 213.5 c 128
 209 233.833333333 222 250.666666667 238 264 c 128
 254 277.333333333 271.833333333 287.5 291.5 294.5 c 128
 311.166666667 301.5 330.666666667 305 350 305 c 0
 368.666666667 305 387.833333333 301.333333333 407.5 294 c 128
 427.166666667 286.666666667 444.833333333 276 460.5 262 c 128
 476.166666667 248 489 231 499 211 c 128
 509 191 514 168.333333333 514 143 c 0
406 426 m 1
 295 426 l 1
 182 1241 l 1
 182 1269.66666667 186.5 1294.5 195.5 1315.5 c 128
 204.5 1336.5 216.5 1353.66666667 231.5 1367 c 128
 246.5 1380.33333333 264.166666667 1390.33333333 284.5 1397 c 128
 304.833333333 1403.66666667 326.666666667 1407 350 1407 c 0
 372.666666667 1407 394.166666667 1403.83333333 414.5 1397.5 c 128
 434.833333333 1391.16666667 452.5 1381.33333333 467.5 1368 c 128
 482.5 1354.66666667 494.333333333 1337.5 503 1316.5 c 128
 511.666666667 1295.5 516 1270.33333333 516 1241 c 1
 406 426 l 1
EndSplineSet
EndChar

StartChar: quoteleft
Encoding: 8216 8216 84
Width: 564
GlyphClass: 2
Flags: HW
LayerCount: 2
Back
Fore
SplineSet
352 1514 m 1
 285.665 1412.29 256 1342.8 256 1300 c 1
 259.333 1287.33 300 1248.67 378 1184 c 1
 279 1021 l 1
 225.565 1048.88 115.556 1114.4 97 1192 c 1
 95 1218 l 1
 95 1270 158 1400.33 284 1609 c 1
 352 1514 l 1
EndSplineSet
EndChar

StartChar: u25CC
Encoding: 9676 9676 85
Width: 1531
GlyphClass: 2
Flags: HW
LayerCount: 2
Back
Fore
SplineSet
1657 1092 m 1
 -11 1092 l 1
 -103 1223 l 1
 1565 1223 l 1
 1657 1092 l 1
1104 899 m 0
 1104 829.998 1008.86 793 970 793 c 1
 956 794 l 1
 948 802 941.333 815.333 936 834 c 1
 930 864 l 1
 930 886 l 2
 930 963.925 984.469 988 1021 988 c 0
 1061.9 988 1104 954.475 1104 899 c 0
1184 826 m 0
 1265.17 826 1266.46 768.963 1268 752 c 1
 1268 727.444 1257.71 655 1162 655 c 0
 1120.51 655 1097.33 660.671 1076 682 c 1
 1072 704 l 1
 1072 751.694 1115.28 826 1184 826 c 0
798 1032 m 0
 845.594 1032 898.403 995.511 897 945 c 1
 897 902.839 841.781 834 797 834 c 0
 757.226 834 716 898.133 716 944 c 0
 716 995.387 750.628 1032 798 1032 c 0
1130 524 m 1
 1130 564.917 1198.75 606 1244 606 c 0
 1294.1 606 1339 569.32 1339 521 c 1
 1333.61 476.5 1284.64 435 1244 435 c 0
 1197.72 435 1135.53 478.41 1130 524 c 1
1172 391 m 0
 1256.07 391 1279 337.6 1279 302 c 0
 1279 285.333 1273.33 271 1262 259 c 1
 1249.33 234.333 1225 222 1189 222 c 0
 1170.33 222 1154 225 1140 231 c 1
 1114.73 248.576 1077 295.8 1077 339 c 1
 1081 358 l 1
 1093.56 383.12 1140.18 391 1172 391 c 0
490 883 m 0
 490 935.957 520.077 973.685 571 976 c 1
 604.747 976 641.382 952.373 658 928 c 1
 666 907 l 1
 668 881 l 1
 668 827 645.434 803.679 628 791 c 1
 602 786 l 1
 565.422 786 518.175 816.22 498 842 c 1
 492.667 852.667 490 866.333 490 883 c 0
1029 59 m 0
 969.953 59 929 94.1377 929 157 c 0
 929 193.383 940.956 229.035 960 243 c 1
 965.333 245.667 972.667 247 982 247 c 0
 1030.95 247 1082.49 213.842 1100 187 c 1
 1105.5 164.5 l 130
 1107.83 154.833 1109.33 147 1110 141 c 0
 1110 108.358 1093.83 59 1029 59 c 0
324 735 m 0
 324 757.488 337.98 817 411 817 c 0
 489 817 522 736.737 522 702 c 1
 516 676 l 1
 511.333 666 500.333 657 483 649 c 1
 467.667 643.667 449.333 641 428 641 c 0
 335.914 641 324 713.447 324 735 c 0
799 194 m 0
 848.875 194 899.327 132.788 898 89 c 1
 898 39.9516 851.69 -10 798 -10 c 0
 762.787 -10 717 29.9684 717 90 c 0
 717 128.673 759.347 194 799 194 c 0
361 604 m 0
 406.22 604 475.971 573.984 473 522 c 1
 473 485.35 417.216 434 357 434 c 0
 308.905 434 269 465.321 269 523 c 0
 269 574.294 305.042 604 361 604 c 0
669 161 m 0
 669 99.8623 627.258 65 565 65 c 0
 540.533 65 538.277 66.9075 526 71 c 1
 501.333 92.3333 489 116 489 142 c 0
 489 223.771 570.192 252 608 252 c 1
 619 251 l 2
 619.005 250.998 669 245.37 669 161 c 0
318 305 m 1
 318 355.282 375.337 398 431 398 c 0
 471 398 500 386 518 362 c 1
 522 340 l 1
 522 309.609 497.758 222 416 222 c 0
 371.857 222 348.879 238.143 327 264 c 1
 322.333 274.667 319.333 288.333 318 305 c 1
EndSplineSet
EndChar

StartChar: u0950
Encoding: 2384 2384 86
Width: 1931
GlyphClass: 2
Flags: HW
LayerCount: 2
Back
Fore
SplineSet
1250 1430 m 1
 1103 1278 l 1
 950 1430 l 1
 1103 1570 l 1
 1250 1430 l 1
1074 1212 m 0
 1253.4 1212 1328.49 1342.45 1373 1449 c 1
 1534 1296 l 1
 1492 1233 l 1
 1415.18 1131.55 1288.94 1053 1142 1053 c 0
 918.754 1053 725.69 1220.22 673 1367 c 1
 673 1504 l 1
 731 1429 l 1
 779 1373 828 1326.33 878 1289 c 0
 948.667 1237.67 1014 1212 1074 1212 c 0
1509 1086 m 0
 1775.2 1086 1894.4 896.366 1889 702 c 1
 1889 578.916 1809.91 457 1647 457 c 0
 1512.72 457 1407.32 501.137 1323 570 c 1
 1294.44 504.393 1239.4 399 1114 399 c 0
 1072 399 1033 404 997 414 c 2
 960 424 l 2
 941.333 430 926 436.667 914 444 c 1
 914 300.125 747.451 189 594 189 c 0
 229.471 189 80.8321 419.754 12 766 c 1
 184 594 l 1
 207.92 473.072 299.2 348 472 348 c 0
 588.405 348 748 425.617 748 581 c 0
 748 625 710.343 665.605 624 691 c 1
 565.178 677.555 500.468 666.999 434 596 c 1
 280 745 l 1
 316 783 397 816 523 844 c 0
 610.333 862.667 654 918 654 1010 c 0
 654 1073.53 596.239 1094 518 1094 c 0
 418.265 1094 353.42 1037.15 299 978 c 1
 144 1130 l 1
 222.267 1212.96 293.4 1255 393 1255 c 0
 582.748 1255 820 1170.09 820 893 c 0
 820 830.7 808.6 785.6 769 746 c 1
 835.359 701.309 871.72 653.84 897 578 c 1
 919 564 951.333 557 994 557 c 0
 1066.67 557 1127 602.667 1175 694 c 1
 1292 948 l 1
 1346.67 1040 1419 1086 1509 1086 c 0
1527 614 m 0
 1654.2 614 1725.6 709.069 1727 821 c 0
 1727 881.025 1708 925 1632 925 c 0
 1552.67 925 1487.33 885 1436 805 c 1
 1420.67 779 1398.67 734 1370 670 c 1
 1410.36 643.769 1464.2 614 1527 614 c 0
EndSplineSet
EndChar

StartChar: u093D
Encoding: 2365 2365 87
Width: 998
GlyphClass: 2
Flags: HW
LayerCount: 2
Back
Fore
SplineSet
259 1104 m 0
 259 1186.45 351.141 1223 405 1223 c 2
 780 1223 l 1
 943 1092 l 1
 525 1092 l 2
 463.2 1092 422 1079.6 422 1030 c 0
 422 991.333 459.333 939.333 534 874 c 1
 687.724 742.236 857 612.669 857 362 c 0
 857 201.345 722.845 115 559 115 c 0
 232.859 115 146.56 363.828 97 507 c 1
 130 528 l 1
 179 463 l 1
 219 413 260.333 372.667 303 342 c 1
 361.667 297.333 416.667 275 468 275 c 0
 590.691 275 694 343.005 694 479 c 0
 694 544.333 656.667 610 582 676 c 1
 373 853 l 1
 297 932.333 259 1016 259 1104 c 0
EndSplineSet
EndChar

StartChar: u0903
Encoding: 2307 2307 88
Width: 503
GlyphClass: 2
Flags: HW
LayerCount: 2
Back
Fore
SplineSet
673 1092 m 1
 14 1092 l 1
 -148 1223 l 1
 507 1223 l 1
 673 1092 l 1
457 725 m 1
 280 553 l 1
 108 725 l 1
 277 891 l 1
 457 725 l 1
454 215 m 1
 279 43 l 1
 107 217 l 1
 276 379 l 1
 454 215 l 1
EndSplineSet
EndChar

StartChar: quoteright
Encoding: 8217 8217 89
Width: 571
GlyphClass: 2
Flags: HW
LayerCount: 2
Back
Fore
SplineSet
326 1589 m 1
 444.496 1524.81 488.437 1462.38 501 1422 c 1
 505 1394 l 1
 505 1339.33 443.667 1208.67 321 1002 c 1
 250 1098 l 1
 315.364 1200.72 352.864 1278.28 344 1315 c 0
 341.333 1325 300.333 1362 221 1426 c 1
 326 1589 l 1
EndSplineSet
EndChar

StartChar: parenleft
Encoding: 40 40 90
Width: 803
GlyphClass: 2
Flags: HW
LayerCount: 2
Back
Fore
SplineSet
733 -291 m 1
 632.333333333 -288.333333333 543.833333333 -266 467.5 -224 c 128
 391.166666667 -182 327.333333333 -123 276 -47 c 128
 224.666666667 29 186 120.666666667 160 228 c 128
 134 335.333333333 121 456 121 590 c 0
 121 723.333333333 134 843.5 160 950.5 c 128
 186 1057.5 224.666666667 1148.83333333 276 1224.5 c 128
 327.333333333 1300.16666667 391.166666667 1358.83333333 467.5 1400.5 c 128
 543.833333333 1442.16666667 632.333333333 1464.66666667 733 1468 c 1
 733 1358 l 1
 661 1348 602.166666667 1322.16666667 556.5 1280.5 c 128
 510.833333333 1238.83333333 475 1184.33333333 449 1117 c 128
 423 1049.66666667 405.166666667 971.166666667 395.5 881.5 c 128
 385.833333333 791.833333333 381 694.666666667 381 590 c 0
 381 484.666666667 385.833333333 387.166666667 395.5 297.5 c 128
 405.166666667 207.833333333 423 129.333333333 449 62 c 128
 475 -5.33333333333 510.833333333 -60 556.5 -102 c 128
 602.166666667 -144 661 -170 733 -180 c 1
 733 -291 l 1
EndSplineSet
EndChar

StartChar: parenright
Encoding: 41 41 91
Width: 803
GlyphClass: 2
Flags: HW
LayerCount: 2
Back
Fore
SplineSet
682 590 m 0
 682 456 669 335.333333333 643 228 c 128
 617 120.666666667 578.166666667 29 526.5 -47 c 128
 474.833333333 -123 410.833333333 -182 334.5 -224 c 128
 258.166666667 -266 170 -288.333333333 70 -291 c 1
 70 -180 l 1
 141.333333333 -170 199.833333333 -144 245.5 -102 c 128
 291.166666667 -60 327 -5.33333333333 353 62 c 128
 379 129.333333333 397 207.833333333 407 297.5 c 128
 417 387.166666667 422 484.666666667 422 590 c 0
 422 694.666666667 417 791.833333333 407 881.5 c 128
 397 971.166666667 379 1049.66666667 353 1117 c 128
 327 1184.33333333 291.166666667 1238.83333333 245.5 1280.5 c 128
 199.833333333 1322.16666667 141.333333333 1348 70 1358 c 1
 70 1468 l 1
 170 1464.66666667 258.166666667 1442.16666667 334.5 1400.5 c 128
 410.833333333 1358.83333333 474.833333333 1300.16666667 526.5 1224.5 c 128
 578.166666667 1148.83333333 617 1057.5 643 950.5 c 128
 669 843.5 682 723.333333333 682 590 c 0
EndSplineSet
EndChar

StartChar: u0964
Encoding: 2404 2404 92
Width: 637
GlyphClass: 2
Flags: HW
LayerCount: 2
Back
Fore
SplineSet
489 -8 m 1
 303 101 l 1
 303 1256 l 1
 489 1142 l 1
 489 -8 l 1
EndSplineSet
EndChar

StartChar: u0905
Encoding: 2309 2309 112
Width: 1436
GlyphClass: 2
Flags: HW
LayerCount: 2
Back
Fore
SplineSet
1586 1092 m 1
 1015 1092 l 1
 852 1223 l 1
 1420 1223 l 1
 1586 1092 l 1
1334 164 m 2
 1334 120.449 1357.62 48 1477 48 c 1
 1477 0 l 1
 1235.3 0 1169 75.2 1169 188 c 2
 1169 500 l 1
 1127 493 l 1
 1085 489 l 1
 1048 489 967.734 496.71 900 526 c 1
 909 477 l 1
 913 426 l 1
 913 242.95 730.773 148 593 148 c 0
 228.471 148 79.8321 378.754 11 725 c 1
 183 553 l 1
 206.92 432.072 298.2 307 471 307 c 0
 587.405 307 747 384.617 747 540 c 0
 747 566 732.667 590 704 612 c 1
 685.333 624.667 659 637.333 625 650 c 1
 543.428 635.045 487.526 612.147 432 553 c 1
 278 702 l 1
 313.333 738 394.333 770.667 521 800 c 0
 608.333 819.333 652 875.667 652 969 c 0
 652 1020.6 618.55 1055 517 1055 c 0
 415.549 1055 349.59 995.274 298 936 c 1
 143 1090 l 1
 221.267 1172.96 292.4 1215 392 1215 c 0
 642.962 1215 819 1078.91 819 849 c 0
 819 789 806.857 742.52 768 699 c 1
 814.019 672.155 900.155 645 964 645 c 0
 1073.57 645 1144.8 673.6 1169 700 c 1
 1169 1015 l 1
 1334 1015 l 1
 1334 164 l 2
EndSplineSet
EndChar

StartChar: comma
Encoding: 44 44 113
Width: 651
GlyphClass: 2
Flags: HW
LayerCount: 2
Back
Fore
SplineSet
496 121 m 0
 496 78.3333333333 490 37.3333333333 478 -2 c 128
 466 -41.3333333333 449.833333333 -78.5 429.5 -113.5 c 128
 409.166666667 -148.5 385.166666667 -180.5 357.5 -209.5 c 128
 329.833333333 -238.5 300.333333333 -263.833333333 269 -285.5 c 128
 237.666666667 -307.166666667 205.166666667 -324.5 171.5 -337.5 c 128
 137.833333333 -350.5 104.666666667 -358 72 -360 c 1
 72 -260 l 1
 98 -256 125.833333333 -248.5 155.5 -237.5 c 128
 185.166666667 -226.5 212.333333333 -210.333333333 237 -189 c 128
 261.666666667 -167.666666667 281.666666667 -140.5 297 -107.5 c 128
 312.333333333 -74.5 319 -34 317 14 c 1
 193 14 l 1
 180.333333333 24 170 34.5 162 45.5 c 128
 154 56.5 147.5 67.6666666667 142.5 79 c 128
 137.5 90.3333333333 134 101.666666667 132 113 c 128
 130 124.333333333 129 135 129 145 c 0
 129 171 133.833333333 194.5 143.5 215.5 c 128
 153.166666667 236.5 166 254.5 182 269.5 c 128
 198 284.5 216.333333333 296.166666667 237 304.5 c 128
 257.666666667 312.833333333 279 317 301 317 c 0
 363 317 411 299.333333333 445 264 c 128
 479 228.666666667 496 181 496 121 c 0
EndSplineSet
EndChar

StartChar: hyphen
Encoding: 45 45 114
Width: 672
GlyphClass: 2
Flags: HW
LayerCount: 2
Back
Fore
SplineSet
68 385 m 1
 68 602 l 1
 604 602 l 1
 604 385 l 1
 68 385 l 1
EndSplineSet
EndChar

StartChar: period
Encoding: 46 46 115
Width: 651
GlyphClass: 2
Flags: HW
LayerCount: 2
Back
Fore
SplineSet
471 145 m 0
 471 121.666666667 466.666666667 99.6666666667 458 79 c 128
 449.333333333 58.3333333333 437.333333333 40.3333333333 422 25 c 128
 406.666666667 9.66666666667 388.666666667 -2.5 368 -11.5 c 128
 347.333333333 -20.5 325 -25 301 -25 c 0
 277.666666667 -25 255.5 -20.5 234.5 -11.5 c 128
 213.5 -2.5 195.166666667 9.66666666667 179.5 25 c 128
 163.833333333 40.3333333333 151.5 58.3333333333 142.5 79 c 128
 133.5 99.6666666667 129 121.666666667 129 145 c 0
 129 169 133.5 191.333333333 142.5 212 c 128
 151.5 232.666666667 163.833333333 250.833333333 179.5 266.5 c 128
 195.166666667 282.166666667 213.5 294.5 234.5 303.5 c 128
 255.5 312.5 277.666666667 317 301 317 c 0
 325 317 347.333333333 312.5 368 303.5 c 128
 388.666666667 294.5 406.666666667 282.166666667 422 266.5 c 128
 437.333333333 250.833333333 449.333333333 232.666666667 458 212 c 128
 466.666666667 191.333333333 471 169 471 145 c 0
EndSplineSet
EndChar

StartChar: slash
Encoding: 47 47 116
Width: 1026
GlyphClass: 2
Flags: HW
LayerCount: 2
Back
Fore
SplineSet
160 -190 m 1
 0 -190 l 1
 864 1374 l 1
 1026 1374 l 1
 160 -190 l 1
EndSplineSet
EndChar

StartChar: u0966
Encoding: 2406 2406 117
Width: 1047
GlyphClass: 2
Flags: HW
LayerCount: 2
Back
Fore
SplineSet
470 949 m 0
 728.514 949 919 762.66 919 527 c 0
 919 357.059 780.001 219 593 219 c 0
 324.634 219 146 404.315 146 643 c 0
 146 812.917 292.201 949 470 949 c 0
471 376 m 0
 626.85 376 755.38 484.289 754 643 c 0
 754 730.9 673.708 790 594 790 c 0
 442.683 790 313 677.104 313 528 c 0
 313 438.939 376.03 376 471 376 c 0
EndSplineSet
EndChar

StartChar: u0967
Encoding: 2407 2407 118
Width: 1047
GlyphClass: 2
Flags: HW
LayerCount: 2
Back
Fore
SplineSet
791 882 m 0
 791 700 595.849 505.002 505 427 c 1
 859 106 l 1
 889.549 75.4512 920 32.06 920 -26 c 0
 920 -66.2 902.282 -142.571 810 -227 c 1
 661 -83 l 1
 696 -42 l 1
 716 -16 726 7.66667 726 29 c 0
 726 49 718.667 71 704 95 c 1
 252 480 l 1
 308 526 l 1
 350 564 387.667 602 421 640 c 1
 382 656 l 2
 372.667 659.333 363 665.667 353 675 c 1
 244.883 754.008 202 834.873 202 1005 c 0
 202 1162.6 334.69 1218 411 1218 c 0
 635.837 1218 791 1091.44 791 882 c 0
515 755 m 1
 606.706 874.779 624.867 954.598 624 1004 c 0
 624 1049.6 577.125 1061 534 1061 c 0
 466.662 1061 369 1015.87 369 890 c 0
 369 862 382.333 834.667 409 808 c 1
 437 783.333 472.333 765.667 515 755 c 1
EndSplineSet
EndChar

StartChar: u0968
Encoding: 2408 2408 119
Width: 1047
GlyphClass: 2
Flags: HW
LayerCount: 2
Back
Fore
SplineSet
936 769 m 0
 936 553.901 767.26 426.76 624 407 c 1
 949 -177 l 1
 914 -205 l 1
 769 -95 l 1
 395 562 l 1
 609.37 562 769 691.423 769 888 c 0
 769 982.162 734.2 1054 595 1054 c 0
 469.8 1054 412.336 1030.66 282 984 c 1
 124 1138 l 1
 275 1191 l 1
 352.122 1209.89 413.65 1217 473 1217 c 0
 778.732 1217 936 1073.13 936 769 c 0
EndSplineSet
EndChar

StartChar: u0969
Encoding: 2409 2409 120
Width: 1047
GlyphClass: 2
Flags: HW
LayerCount: 2
Back
Fore
SplineSet
759 722 m 1
 841.504 680.114 931.559 576.221 926 390 c 1
 926 251.282 792.146 178.793 625 156 c 1
 872 -191 l 1
 843 -220 l 1
 680 -122 l 1
 398 296 l 1
 604.202 316.62 761 375.649 761 510 c 0
 761 596.053 662.876 666 563 666 c 1
 532.333 692.667 505.667 727 483 769 c 1
 457 823 l 1
 548.388 823 667 880.139 667 1016 c 0
 667 1032.9 637.934 1080.44 599 1086 c 1
 221 1086 l 1
 55 1217 l 1
 479 1217 l 2
 741.114 1217 834 1088.2 834 895 c 0
 834 802.076 810.318 760.835 759 722 c 1
EndSplineSet
EndChar

StartChar: u096A
Encoding: 2410 2410 121
Width: 1047
GlyphClass: 2
Flags: HW
LayerCount: 2
Back
Fore
SplineSet
294 442 m 0
 294 502.8 332.367 595.259 470 746 c 1
 83 1053 l 1
 20 1193 l 1
 60 1207 l 1
 141 1144 l 1
 323 1010 l 1
 552 833 l 1
 595.333 877.667 651 932 719 996 c 2
 864 1133 l 1
 911.333 1179.67 940.333 1211.33 951 1228 c 1
 1110 1078 l 1
 1098 1060.67 1069.67 1031.67 1025 991 c 2
 712 702 l 1
 897.1 532.325 974 421.2 974 351 c 0
 974 212.216 852.959 114 695 114 c 0
 362.028 114 294 310.8 294 442 c 0
568 270 m 0
 695.407 270 796.009 302.19 802 425 c 0
 802 437 785.333 460.667 752 496 c 1
 626 613 l 1
 549.247 536.247 458 431.92 458 361 c 0
 458 324.6 485.688 270 568 270 c 0
EndSplineSet
EndChar

StartChar: u096B
Encoding: 2411 2411 122
Width: 1047
GlyphClass: 2
Flags: HW
LayerCount: 2
Back
Fore
SplineSet
371 467 m 0
 512.6 467 583.511 536.945 607 562 c 1
 765 431 l 1
 1050 -169 l 1
 1015 -194 l 1
 876 -82 l 1
 672 345 l 1
 628.332 327.533 542.855 308 493 308 c 0
 269.651 308 52 356.392 52 705 c 1
 154 1230 l 1
 312 1078 l 1
 216 586 l 1
 216 521.623 272.422 467 371 467 c 0
EndSplineSet
EndChar

StartChar: u096C
Encoding: 2412 2412 123
Width: 1047
GlyphClass: 2
Flags: HW
LayerCount: 2
Back
Fore
SplineSet
314 463 m 0
 314 374.2 430.3 315 577 315 c 0
 619.667 315 648 320 662 330 c 1
 825 213 l 1
 834.333 191 857.667 151.667 895 95 c 1
 995 -63 l 1
 1052 -142 l 1
 1023 -174 l 1
 878 -95 l 1
 726 148 l 1
 701 147 l 1
 680 147 l 2
 404.919 147 150 287.24 150 583 c 0
 150 657.649 188.417 708.136 241 741 c 1
 158.642 790.955 94 902.465 94 1038 c 0
 94 1151.4 184.108 1227 429 1227 c 0
 481 1227 537.667 1223 599 1215 c 1
 674 1203 l 1
 857 1031 l 1
 755 1050 l 1
 671 1064 598 1071 536 1071 c 0
 392.359 1071 258 1041.58 258 918 c 0
 258 887.333 273.333 860 304 836 c 1
 375 799 l 1
 524 657 l 1
 384 601 l 1
 337.333 573 314 527 314 463 c 0
EndSplineSet
EndChar

StartChar: u096D
Encoding: 2413 2413 124
Width: 1047
GlyphClass: 2
Flags: HW
LayerCount: 2
Back
Fore
SplineSet
656 1104 m 0
 881.09 1104 1048.69 826.505 1050 628 c 1
 1050 339.617 908.746 142 644 142 c 0
 543.333 142 458 162.333 388 203 c 1
 256.257 277.013 187.56 421.996 127 559 c 1
 79 675.667 42 799.667 16 931 c 1
 -47 1299 l 1
 125 1133 l 1
 174.682 806.303 190.32 691.523 304 469 c 0
 326 425.667 352.667 388.667 384 358 c 0
 426.667 318 472 298 520 298 c 0
 717.773 298 851.637 432.881 871 566 c 1
 808 545 l 1
 748 540 l 1
 675.333 540 609.333 569.667 550 629 c 0
 506.667 673.667 476.667 724.333 460 781 c 2
 442 844 l 2
 436.667 866 434 889 434 913 c 0
 434 1024.2 494.938 1063.56 551 1085 c 1
 588.333 1097.67 623.333 1104 656 1104 c 0
596 816 m 0
 596 755.47 653.183 684 717 684 c 0
 773.907 684 854.824 699.145 869 822 c 1
 856.011 857.358 816.2 939 737 939 c 0
 695.491 939 596 906.744 596 816 c 0
EndSplineSet
EndChar

StartChar: u096E
Encoding: 2414 2414 125
Width: 1047
GlyphClass: 2
Flags: HW
LayerCount: 2
Back
Fore
SplineSet
248 333 m 1
 248 274.25 301.281 195 426 195 c 0
 531.333 195 629.667 230.667 721 302 c 1
 876 453 l 1
 1026 309 l 1
 867 150 l 1
 771 76 665.667 39 551 39 c 0
 261.954 39 82 218.064 82 415 c 0
 82 441.667 86 469.667 94 499 c 1
 123.333 528.333 197.667 612 317 750 c 1
 453 910 l 1
 729 1245 l 1
 884 1096 l 1
 479 614 l 1
 342 458.5 l 130
 305.333 418.167 275.333 387 252 365 c 1
 248 333 l 1
EndSplineSet
EndChar

StartChar: u096F
Encoding: 2415 2415 126
Width: 1047
GlyphClass: 2
Flags: HW
LayerCount: 2
Back
Fore
SplineSet
795 906 m 0
 795 660.544 643.932 634.867 565 625 c 1
 536 625 l 2
 491.333 625 448 631 406 643 c 1
 620 445 l 1
 810 264 l 1
 894 180 l 1
 951.886 124.11 952 56.8367 952 47 c 0
 952 3.8 936.958 -77.0382 837 -169 c 1
 689 -20 l 1
 733 33 l 1
 745.667 51.6667 752 69.6667 752 87 c 0
 752 107 744.667 129 730 153 c 1
 170 673 l 1
 132.648 715.688 105 798.446 105 886 c 0
 105 1142.54 307.949 1245 432 1245 c 0
 611.795 1245 795 1096.05 795 906 c 0
467 780 m 0
 607.8 780 643 896.531 643 945 c 0
 643 1004.34 602.664 1079 490 1079 c 0
 377.656 1079 274 986.606 274 871 c 0
 274 851 277.667 832.333 285 815 c 1
 381 789 l 1
 423.438 781.284 449.8 780 467 780 c 0
EndSplineSet
EndChar

StartChar: colon
Encoding: 58 58 127
Width: 651
GlyphClass: 2
Flags: HW
LayerCount: 2
Back
Fore
SplineSet
471 852 m 0
 471 828 466.666666667 805.666666667 458 785 c 128
 449.333333333 764.333333333 437.333333333 746.333333333 422 731 c 128
 406.666666667 715.666666667 388.666666667 703.666666667 368 695 c 128
 347.333333333 686.333333333 325 682 301 682 c 0
 277.666666667 682 255.5 686.333333333 234.5 695 c 128
 213.5 703.666666667 195.166666667 715.666666667 179.5 731 c 128
 163.833333333 746.333333333 151.5 764.333333333 142.5 785 c 128
 133.5 805.666666667 129 828 129 852 c 0
 129 875.333333333 133.5 897.5 142.5 918.5 c 128
 151.5 939.5 163.833333333 957.833333333 179.5 973.5 c 128
 195.166666667 989.166666667 213.5 1001.5 234.5 1010.5 c 128
 255.5 1019.5 277.666666667 1024 301 1024 c 0
 325 1024 347.333333333 1019.5 368 1010.5 c 128
 388.666666667 1001.5 406.666666667 989.166666667 422 973.5 c 128
 437.333333333 957.833333333 449.333333333 939.5 458 918.5 c 128
 466.666666667 897.5 471 875.333333333 471 852 c 0
471 145 m 0
 471 121.666666667 466.666666667 99.6666666667 458 79 c 128
 449.333333333 58.3333333333 437.333333333 40.3333333333 422 25 c 128
 406.666666667 9.66666666667 388.666666667 -2.5 368 -11.5 c 128
 347.333333333 -20.5 325 -25 301 -25 c 0
 277.666666667 -25 255.5 -20.5 234.5 -11.5 c 128
 213.5 -2.5 195.166666667 9.66666666667 179.5 25 c 128
 163.833333333 40.3333333333 151.5 58.3333333333 142.5 79 c 128
 133.5 99.6666666667 129 121.666666667 129 145 c 0
 129 169 133.5 191.333333333 142.5 212 c 128
 151.5 232.666666667 163.833333333 250.833333333 179.5 266.5 c 128
 195.166666667 282.166666667 213.5 294.5 234.5 303.5 c 128
 255.5 312.5 277.666666667 317 301 317 c 0
 325 317 347.333333333 312.5 368 303.5 c 128
 388.666666667 294.5 406.666666667 282.166666667 422 266.5 c 128
 437.333333333 250.833333333 449.333333333 232.666666667 458 212 c 128
 466.666666667 191.333333333 471 169 471 145 c 0
EndSplineSet
EndChar

StartChar: semicolon
Encoding: 59 59 128
Width: 651
GlyphClass: 2
Flags: HW
LayerCount: 2
Back
Fore
SplineSet
471 852 m 0
 471 828 466.666666667 805.666666667 458 785 c 128
 449.333333333 764.333333333 437.333333333 746.333333333 422 731 c 128
 406.666666667 715.666666667 388.666666667 703.666666667 368 695 c 128
 347.333333333 686.333333333 325 682 301 682 c 0
 277.666666667 682 255.5 686.333333333 234.5 695 c 128
 213.5 703.666666667 195.166666667 715.666666667 179.5 731 c 128
 163.833333333 746.333333333 151.5 764.333333333 142.5 785 c 128
 133.5 805.666666667 129 828 129 852 c 0
 129 875.333333333 133.5 897.5 142.5 918.5 c 128
 151.5 939.5 163.833333333 957.833333333 179.5 973.5 c 128
 195.166666667 989.166666667 213.5 1001.5 234.5 1010.5 c 128
 255.5 1019.5 277.666666667 1024 301 1024 c 0
 325 1024 347.333333333 1019.5 368 1010.5 c 128
 388.666666667 1001.5 406.666666667 989.166666667 422 973.5 c 128
 437.333333333 957.833333333 449.333333333 939.5 458 918.5 c 128
 466.666666667 897.5 471 875.333333333 471 852 c 0
496 121 m 0
 496 78.3333333333 490 37.3333333333 478 -2 c 128
 466 -41.3333333333 449.833333333 -78.5 429.5 -113.5 c 128
 409.166666667 -148.5 385.166666667 -180.5 357.5 -209.5 c 128
 329.833333333 -238.5 300.333333333 -263.833333333 269 -285.5 c 128
 237.666666667 -307.166666667 205.166666667 -324.5 171.5 -337.5 c 128
 137.833333333 -350.5 104.666666667 -358 72 -360 c 1
 72 -260 l 1
 98 -256 125.833333333 -248.5 155.5 -237.5 c 128
 185.166666667 -226.5 212.333333333 -210.333333333 237 -189 c 128
 261.666666667 -167.666666667 281.666666667 -140.5 297 -107.5 c 128
 312.333333333 -74.5 319 -34 317 14 c 1
 193 14 l 1
 180.333333333 24 170 34.5 162 45.5 c 128
 154 56.5 147.5 67.6666666667 142.5 79 c 128
 137.5 90.3333333333 134 101.666666667 132 113 c 128
 130 124.333333333 129 135 129 145 c 0
 129 171 133.833333333 194.5 143.5 215.5 c 128
 153.166666667 236.5 166 254.5 182 269.5 c 128
 198 284.5 216.333333333 296.166666667 237 304.5 c 128
 257.666666667 312.833333333 279 317 301 317 c 0
 363 317 411 299.333333333 445 264 c 128
 479 228.666666667 496 181 496 121 c 0
EndSplineSet
EndChar

StartChar: u0907
Encoding: 2311 2311 130
Width: 820
GlyphClass: 2
Flags: HW
LayerCount: 2
Back
Fore
SplineSet
963 1092 m 1
 14 1092 l 1
 -148 1223 l 1
 796 1223 l 1
 963 1092 l 1
549 648 m 0
 666.938 648 805 538.2 805 367 c 2
 805 331 l 1
 798 306 l 1
 787.333 242.667 747 193.333 677 158 c 1
 618.082 129.88 550.025 115 463 115 c 1
 612 -84 l 1
 684 -190 l 1
 539 -160 l 1
 313 110 l 1
 269.667 118 232.333 135.333 201 162 c 1
 159 194.667 138 231.333 138 272 c 0
 138 303.333 151 335.333 177 368 c 1
 227.456 379.212 316.388 304.924 351 257 c 1
 420.333 257 481 269.333 533 294 c 1
 593.667 324.667 633.667 371 653 433 c 1
 660 472 l 1
 660 489.333 651.333 498 634 498 c 0
 595.097 498 479.625 441 422 441 c 0
 220.88 441 118 573.966 118 739 c 0
 118 850.282 170.4 944 249 944 c 2
 561 944 l 1
 561 1018 l 1
 713 1018 l 1
 713 792 l 1
 372 792 l 2
 298.49 792 262 711.726 262 652 c 0
 262 609.333 275 588 301 588 c 0
 401.775 588 443.63 648 549 648 c 0
EndSplineSet
EndChar

StartChar: u0909
Encoding: 2313 2313 131
Width: 1058
GlyphClass: 2
Flags: HW
LayerCount: 2
Back
Fore
SplineSet
1220 1092 m 1
 14 1092 l 1
 -148 1223 l 1
 1056 1223 l 1
 1220 1092 l 1
852 709 m 1
 898.336 677.655 1000.77 596.443 999 430 c 1
 999 246.29 810.574 156 678 156 c 0
 551.333 156 445.333 184.667 360 242 c 1
 288.667 291.333 229.333 363 182 457 c 1
 146.667 529.667 118.333 620.333 97 729 c 1
 267 557 l 1
 281 495.667 307.333 444 346 402 c 0
 398.667 343.333 468.333 314 555 314 c 0
 666.608 314 832 384.327 832 545 c 0
 832 611.6 759.688 641.699 707 656 c 1
 623.176 640.102 574.35 617.748 518 559 c 1
 363 708 l 1
 399 746 480.333 779 607 807 c 0
 693.667 825.667 737 881 737 973 c 0
 737 980.333 736.333 985.667 735 989 c 2
 727 1021 l 1
 861 1021 l 1
 902.38 924.446 903 889 903 856 c 0
 903 793.7 891.6 748.6 852 709 c 1
EndSplineSet
EndChar

StartChar: u090A
Encoding: 2314 2314 132
Width: 831
GlyphClass: 2
Flags: HW
LayerCount: 2
Back
Fore
SplineSet
1565 1092 m 1
 14 1092 l 1
 -148 1223 l 1
 1399 1223 l 1
 1565 1092 l 1
1089 774 m 0
 1325.61 774 1403 637.562 1403 491 c 0
 1403 373.12 1352.39 215.178 1237 77 c 1
 1085 224 l 1
 1161.74 304.707 1269 475.732 1269 560 c 0
 1269 605.6 1243.57 617 1209 617 c 0
 1120.2 617 1042.57 578.514 987 516 c 1
 994 476 l 1
 998 433 l 1
 998 249.29 809.574 159 677 159 c 0
 305.631 159 160.298 401.484 96 729 c 1
 266 560 l 1
 280 499.333 306.333 446.667 345 402 c 1
 397.667 343.333 467.333 314 554 314 c 0
 678.922 314 832 395.716 832 547 c 0
 832 589.8 788.865 639.264 707 654 c 1
 629.235 642.036 578.997 623.593 518 560 c 1
 363 709 l 1
 400.333 747.667 482 780 608 806 c 0
 694.667 824.667 738 880.333 738 973 c 1
 737 988 l 2
 737 994 734 1004 728 1018 c 1
 870 1018 l 1
 884.465 979.124 903 919 903 853 c 0
 903 763.382 874.847 725.396 855 709 c 1
 873 695 l 1
 915.558 726.645 994.823 774 1089 774 c 0
EndSplineSet
EndChar

StartChar: question
Encoding: 63 63 133
Width: 1069
Flags: HW
LayerCount: 2
Back
Fore
SplineSet
592 133 m 256
 592 110.333333333 587.5 89.3333333333 578.5 70 c 128
 569.5 50.6666666667 557.333333333 34 542 20 c 128
 526.666666667 6 508.833333333 -5 488.5 -13 c 128
 468.166666667 -21 446.666666667 -25 424 -25 c 0
 402 -25 381.5 -20.5 362.5 -11.5 c 128
 343.5 -2.5 327 9.66666666667 313 25 c 128
 299 40.3333333333 288 58 280 78 c 128
 272 98 268 119 268 141 c 0
 268 163.666666667 272.166666667 184.833333333 280.5 204.5 c 128
 288.833333333 224.166666667 300 241.5 314 256.5 c 128
 328 271.5 344.666666667 283.333333333 364 292 c 128
 383.333333333 300.666666667 404 305 426 305 c 0
 450.666666667 305 473.166666667 300.333333333 493.5 291 c 128
 513.833333333 281.666666667 531.333333333 269.166666667 546 253.5 c 128
 560.666666667 237.833333333 572 219.5 580 198.5 c 128
 588 177.5 592 155.666666667 592 133 c 256
938 1018 m 0
 938 974.666666667 931.666666667 935.166666667 919 899.5 c 128
 906.333333333 863.833333333 889.5 831.5 868.5 802.5 c 128
 847.5 773.5 823.833333333 748 797.5 726 c 128
 771.166666667 704 744 684.666666667 716 668 c 0
 650.666666667 629.333333333 576.666666667 600 494 580 c 1
 494 406 l 1
 354 406 l 1
 354 678 l 1
 409.333333333 692.666666667 458.666666667 715 502 745 c 0
 520.666666667 757.666666667 538.833333333 772.666666667 556.5 790 c 128
 574.166666667 807.333333333 590 827.333333333 604 850 c 128
 618 872.666666667 629.333333333 898.166666667 638 926.5 c 128
 646.666666667 954.833333333 651 986.666666667 651 1022 c 0
 651 1060.66666667 645.5 1095.83333333 634.5 1127.5 c 128
 623.5 1159.16666667 606.833333333 1186.5 584.5 1209.5 c 128
 562.166666667 1232.5 534.166666667 1250.33333333 500.5 1263 c 128
 466.833333333 1275.66666667 427.666666667 1282 383 1282 c 1
 291 1036 l 2
 290.333333333 1035.33333333 288.666666667 1034.66666667 286 1034 c 0
 284 1033.33333333 281.5 1032.83333333 278.5 1032.5 c 128
 275.5 1032.16666667 271.333333333 1032 266 1032 c 0
 252.666666667 1032 236 1032.83333333 216 1034.5 c 128
 196 1036.16666667 176.666666667 1041.33333333 158 1050 c 128
 139.333333333 1058.66666667 123.333333333 1071.66666667 110 1089 c 128
 96.6666666667 1106.33333333 90 1131 90 1163 c 0
 90 1207.66666667 102.166666667 1245.5 126.5 1276.5 c 128
 150.833333333 1307.5 181.666666667 1332.66666667 219 1352 c 128
 256.333333333 1371.33333333 297.666666667 1385.33333333 343 1394 c 128
 388.333333333 1402.66666667 431.666666667 1407 473 1407 c 0
 539 1407 600.333333333 1397.83333333 657 1379.5 c 128
 713.666666667 1361.16666667 762.833333333 1335.16666667 804.5 1301.5 c 128
 846.166666667 1267.83333333 878.833333333 1227 902.5 1179 c 128
 926.166666667 1131 938 1077.33333333 938 1018 c 0
EndSplineSet
EndChar

StartChar: u090B
Encoding: 2315 2315 134
Width: 1034
GlyphClass: 2
Flags: HW
LayerCount: 2
Back
Fore
SplineSet
1840 1092 m 1
 8 1092 l 1
 -155 1223 l 1
 1674 1223 l 1
 1840 1092 l 1
1367 77 m 0
 1404.4 77 1466.12 91.2967 1554 145 c 1
 1696 0 l 1
 1607 -42 l 1
 1557.67 -61.3333 1517.33 -71 1486 -71 c 0
 1290.1 -71 1093 26.6711 1093 220 c 0
 1093 362.54 1229.84 472.111 1351 511 c 1
 1302 590 l 1
 1271.55 568.156 1180.2 508 1099 508 c 1
 1004 512 l 1
 972.667 514.667 946.333 519.667 925 527 c 1
 925 163 l 2
 925 107.169 965.619 41 1069 41 c 1
 1069 -5 l 1
 837.681 -5 775 68.6 775 179 c 2
 775 442 l 1
 390 157 l 1
 280 269 l 1
 756 620 l 1
 635 709 l 1
 592.333 735.667 551.667 749 513 749 c 0
 415.4 749 380.718 738.259 269 702 c 1
 124 842 l 1
 247 879 l 1
 293.667 889.667 342 895 392 895 c 0
 513.6 895 622.145 831.608 696 787.5 c 129
 778 736 l 1
 778 1020 l 1
 929 1020 l 1
 929 665 l 1
 948 657 l 1
 980 655 l 1
 1087.6 655 1201.51 771.209 1249 818 c 1
 1383 683 l 1
 1523 369 l 1
 1461.79 358.171 1255 319.6 1255 122 c 0
 1255 79.3341 1321.68 77 1367 77 c 0
EndSplineSet
EndChar

StartChar: u0960
Encoding: 2400 2400 135
Width: 1034
GlyphClass: 2
Flags: HW
LayerCount: 2
Back
Fore
SplineSet
1843 1092 m 1
 11 1092 l 1
 -152 1223 l 1
 1677 1223 l 1
 1843 1092 l 1
1359 -112 m 0
 1410.2 -112 1464.47 -75.8519 1487 -61 c 1
 1603 -175 l 1
 1580.94 -201.072 1509.68 -243 1419 -243 c 0
 1203 -243 1151.74 -45.1169 1149 7 c 1
 1149 68.7158 1197.63 117.02 1234 143 c 1
 1182.63 178.025 1131.22 233.755 1115 306 c 1
 1113 335 l 1
 1113 438.869 1220.77 520.637 1329 547 c 1
 1310 656 l 1
 1199.98 560.081 1134.8 537 1091 537 c 2
 1013 538 l 1
 935 547 l 1
 935 158 l 2
 935 94.7078 980.2 30 1077 30 c 1
 1077 -10 l 1
 842.306 -10 783 64 783 175 c 2
 783 445 l 1
 396 153 l 1
 286 260 l 1
 770 614 l 1
 770 623 l 1
 651 702 l 1
 605.667 728.667 562.667 742 522 742 c 0
 424 742 389.142 731.397 277 695 c 1
 132 837 l 1
 255 874 l 1
 299.667 884.667 348 890 400 890 c 0
 541.102 890 630.074 833.596 787 748 c 1
 787 1014 l 1
 939 1014 l 1
 939 688 l 1
 989 676 l 1
 1096.2 676 1208.62 800.395 1257 863 c 1
 1391 733 l 1
 1489 407 l 1
 1302.48 364.61 1267 277.794 1267 245 c 0
 1267 219 1281.33 206 1310 206 c 1
 1336 210 l 1
 1352 217 l 1
 1399 228 l 1
 1527 81 l 1
 1406.57 60.9288 1316 -14.6621 1316 -76 c 0
 1316 -100 1330.33 -112 1359 -112 c 0
EndSplineSet
EndChar

StartChar: u090F
Encoding: 2319 2319 139
Width: 1023
GlyphClass: 2
Flags: HW
LayerCount: 2
Back
Fore
SplineSet
1170 1092 m 1
 20 1092 l 1
 -142 1223 l 1
 1004 1223 l 1
 1170 1092 l 1
651 532 m 0
 708.6 532 723 582.869 723 643 c 2
 723 1023 l 1
 889 1023 l 1
 890 522 l 2
 890 434.793 847.811 391 765 391 c 2
 744 391 l 2
 736.667 391 726.667 391.667 714 393 c 1
 640 408 l 1
 510 528 l 1
 531 561 l 1
 592 542 l 1
 626.584 532.899 639.2 532 651 532 c 0
965 -52 m 1
 965 58.9272 211 296.584 211 578 c 2
 211 1019 l 1
 376 1019 l 1
 376 521 l 2
 376 471 442.667 403.667 576 319 c 1
 949 94 l 1
 1083.67 4 1151 -71.3333 1151 -132 c 0
 1151 -154 1143.67 -175 1129 -195 c 2
 1061 -287 l 1
 909 -140 l 1
 959 -71 l 2
 961.667 -66.3333 963.667 -60 965 -52 c 1
EndSplineSet
EndChar

StartChar: u0915.half
Encoding: 65551 -1 140
Width: 1040
GlyphClass: 3
Flags: HW
AnchorPoint: "N" 185 165 basechar 0
LayerCount: 2
Back
Fore
SplineSet
1628 1092 m 1
 20 1092 l 1
 -142 1223 l 1
 1462 1223 l 1
 1628 1092 l 1
369 486 m 0
 511.4 486 647.375 591.738 725 654 c 1
 725 1026 l 1
 891 1026 l 1
 891 777 l 1
 966 810 l 1
 988 818 1009 822 1029 822 c 1
 1194 659 l 1
 1130.67 659 1064.67 636.667 996 592 c 1
 889 511 l 1
 889 159 l 2
 889 90.3333 936.333 56 1031 56 c 1
 1031 2 l 1
 789.3 2 723 77.2 723 190 c 2
 723 397 l 1
 608.505 331.306 536.6 322 490 322 c 0
 254.861 322 114 457.715 114 685 c 0
 114 823.501 212.222 916 367 916 c 0
 412.382 916 425.485 916.567 477 906 c 1
 517.667 900.667 549.667 893.333 573 884 c 1
 699 764 l 1
 678 729 l 1
 663.333 733.667 632 739.667 584 747 c 1
 491 758 l 1
 342.303 758 282 660.708 282 567 c 0
 282 530.25 299.4 486 369 486 c 0
EndSplineSet
Ligature2: "'half' Half Forms in Devanagari lookup 3 subtable" u0915 u094D
LCarets2: 1 2
EndChar

StartChar: u0958.half
Encoding: 65552 -1 141
Width: 1040
GlyphClass: 3
Flags: HW
LayerCount: 2
Back
Fore
SplineSet
1628 1092 m 1
 20 1092 l 1
 -142 1223 l 1
 1462 1223 l 1
 1628 1092 l 1
370 489 m 0
 512.465 489 651.984 593.661 726 654 c 1
 726 1026 l 1
 892 1026 l 1
 892 777 l 1
 967 810 l 1
 989 818 1010 822 1030 822 c 1
 1194 662 l 1
 1130.67 662 1064.67 639.667 996 595 c 1
 889 514 l 1
 889 164 l 2
 889 84.8 964.3 65 1031 65 c 1
 1031 11 l 1
 789.37 11 723 85 723 196 c 2
 723 403 l 1
 608.505 337.306 536.6 328 490 328 c 0
 246.134 328 113 466.98 113 689 c 0
 113 815.427 197.018 916 367 916 c 0
 449.4 916 533.677 898.099 573 886 c 1
 699 766 l 1
 678 731 l 1
 663.333 735.667 632 741.667 584 749 c 1
 491 760 l 1
 356.991 760 282 677.387 282 570 c 0
 282 516 311.333 489 370 489 c 0
466 131 m 1
 341 5 l 1
 218 136 l 1
 343 256 l 1
 466 131 l 1
EndSplineSet
Ligature2: "'half' Half Forms in Devanagari lookup 3 subtable" u0958 u094D
EndChar

StartChar: u0915
Encoding: 2325 2325 142
Width: 954
GlyphClass: 2
Flags: HW
AnchorPoint: "N" 104 156 basechar 0
LayerCount: 2
Back
Fore
SplineSet
1628 1092 m 1
 20 1092 l 1
 -142 1223 l 1
 1462 1223 l 1
 1628 1092 l 1
1023 820 m 0
 1253.75 820 1401 696.597 1401 488 c 0
 1401 442.451 1395.08 282.973 1240 98 c 1
 1085 246 l 1
 1143.75 308.869 1244 462.902 1244 565 c 0
 1244 637.8 1197.91 656 1143 656 c 0
 1092.6 656 1024.17 617.154 891 508 c 1
 891 156 l 2
 891 87.3333 938.333 53 1033 53 c 1
 1033 -1 l 1
 791.3 -1 725 74.2 725 187 c 2
 725 394 l 1
 610.505 328.306 538.6 319 492 319 c 0
 256.861 319 116 454.715 116 682 c 0
 116 820.501 214.222 913 369 913 c 0
 414.382 913 427.485 913.567 479 903 c 1
 519.667 897.667 551.667 890.333 575 881 c 1
 701 761 l 1
 680 726 l 1
 665.333 730.667 634 736.667 586 744 c 1
 493 755 l 1
 344.303 755 284 657.708 284 564 c 0
 284 527.25 301.4 483 371 483 c 0
 513.4 483 649.375 588.738 727 651 c 1
 727 1023 l 1
 893 1023 l 1
 893 774 l 1
 961 806 l 1
 987 815.333 1007.67 820 1023 820 c 0
EndSplineSet
EndChar

StartChar: u0958
Encoding: 2392 2392 143
Width: 954
GlyphClass: 2
Flags: HW
LayerCount: 2
Back
Fore
SplineSet
1628 1092 m 1
 20 1092 l 1
 -142 1223 l 1
 1462 1223 l 1
 1628 1092 l 1
1024 819 m 0
 1254.75 819 1402 695.597 1402 487 c 0
 1402 430.226 1391.39 367.976 1362 298 c 1
 1338 234 1297.33 169 1240 103 c 1
 1085 251 l 1
 1139.59 309.417 1244 462.353 1244 567 c 0
 1244 639.8 1197.91 658 1143 658 c 0
 1092.6 658 1024.17 619.154 891 510 c 1
 891 160 l 2
 891 80.8 966.3 61 1033 61 c 1
 1033 7 l 1
 791.37 7 725 81 725 192 c 2
 725 399 l 1
 610.505 333.306 538.6 324 492 324 c 0
 248.134 324 115 462.98 115 685 c 0
 115 811.427 199.018 912 369 912 c 0
 451.4 912 535.677 894.099 575 882 c 1
 701 762 l 1
 680 727 l 1
 665.333 731.667 634 737.667 586 745 c 1
 493 756 l 1
 358.991 756 284 673.387 284 566 c 0
 284 512 313.333 485 372 485 c 0
 514.465 485 653.984 589.661 728 650 c 1
 728 1022 l 1
 894 1022 l 1
 894 773 l 1
 962 805 l 1
 988 814.333 1008.67 819 1024 819 c 0
468 131 m 1
 343 5 l 1
 220 136 l 1
 345 256 l 1
 468 131 l 1
EndSplineSet
EndChar

StartChar: u0915.vatu
Encoding: 65553 -1 144
Width: 954
GlyphClass: 3
Flags: HW
AnchorPoint: "N" 52 -108 basechar 0
LayerCount: 2
Back
Fore
SplineSet
1628 1092 m 1
 20 1092 l 1
 -142 1223 l 1
 1462 1223 l 1
 1628 1092 l 1
1020 818 m 0
 1250.75 818 1398 694.597 1398 486 c 0
 1398 443.388 1392.65 283.088 1240 98 c 1
 1085 246 l 1
 1143.75 308.869 1244 462.902 1244 565 c 0
 1244 637.8 1197.91 656 1143 656 c 0
 1092.6 656 1024.17 617.154 891 508 c 1
 891 156 l 2
 891 87.3333 938.333 53 1033 53 c 1
 1033 -1 l 1
 791.3 -1 725 74.2 725 187 c 2
 725 388 l 1
 209 23 l 1
 92 134 l 1
 367 335 l 1
 180.242 372.959 113 530.213 113 680 c 0
 113 818.501 211.222 911 366 911 c 0
 411.382 911 424.485 911.567 476 901 c 1
 516.667 895.667 548.667 888.333 572 879 c 1
 698 759 l 1
 677 724 l 1
 662.333 728.667 631 734.667 583 742 c 1
 490 753 l 1
 341.303 753 281 655.708 281 562 c 0
 281 525.25 298.4 481 368 481 c 0
 510.4 481 646.375 586.738 724 649 c 1
 724 1021 l 1
 890 1021 l 1
 890 772 l 1
 958 804 l 1
 984 813.333 1004.67 818 1020 818 c 0
EndSplineSet
Ligature2: "'vatu' Vattu Variants in Devanagari lookup 4 subtable" u0915 u0930.sub
LCarets2: 1 0
EndChar

StartChar: u0915_u094D_u0924
Encoding: 65554 -1 145
Width: 1086
GlyphClass: 2
Flags: HW
LayerCount: 2
Back
Fore
SplineSet
1748 1092 m 1
 32 1092 l 1
 -131 1223 l 1
 1582 1223 l 1
 1748 1092 l 1
1123 847 m 0
 1350.48 847 1499 720.583 1499 512 c 0
 1499 459.162 1488.82 390.996 1459 320 c 1
 1435 254.667 1395 189 1339 123 c 1
 1185 275 l 1
 1237.2 333.614 1342 485.705 1342 594 c 0
 1342 666 1299.22 684 1242 684 c 256
 1197.98 684 1141.49 654.369 1054 588 c 130
 982 533 l 1
 982 170 l 2
 982 126.393 1005.66 54 1125 54 c 1
 1125 0 l 1
 883.3 0 817 75.2 817 188 c 2
 817 683 l 1
 616 683 l 2
 557.6 683 470 647.326 470 461 c 0
 470 365.165 565.439 257.374 650 201 c 1
 704 15 l 1
 464.735 197.297 304 351.08 304 580 c 1
 305 641 l 1
 314 684 l 1
 226 684 l 1
 60 845 l 1
 820 845 l 1
 820 1022 l 1
 985 1022 l 1
 985 793 l 1
 1035 829 1081 847 1123 847 c 0
EndSplineSet
EndChar

StartChar: u0915_u094D_u0937.half
Encoding: 65556 -1 147
Width: 842
GlyphClass: 3
Flags: HW
AnchorPoint: "N" 124 108 basechar 0
LayerCount: 2
Back
Fore
SplineSet
792 757 m 1
 897.792 757 977.191 774.676 1042 817 c 1
 1043 599 l 1
 993.667 588.333 940.333 583 883 583 c 0
 719.8 583 561.765 630.526 475 662 c 1
 372.235 594.595 304 541.44 304 456 c 0
 304 382.552 377.054 335 455 335 c 0
 491 335 525.333 345.667 558 367 c 1
 577.333 391.667 602.667 417 634 443 c 1
 664.716 466.628 723.4 506 783 506 c 1
 799 505 l 1
 830.287 477.885 864 429.434 864 374 c 0
 864 290.354 803.893 239.766 730 221 c 1
 941 -91 l 1
 912 -119 l 1
 758 -28 l 1
 700 78 l 2
 661.333 148.667 639.333 184 634 184 c 1
 603.333 174.667 571.333 170 538 170 c 0
 333.931 170 136 345.651 136 576 c 0
 136 658.035 204.469 710.499 296 767 c 1
 214.312 828.532 130 930.465 130 1066 c 0
 130 1196.4 249.775 1229 350 1229 c 0
 522.196 1229 730 1150.13 730 952 c 0
 730 878 705.713 825.816 651 767 c 1
 721 759 l 1
 792 757 l 1
576 1022 m 0
 576 1041.6 565.918 1071 512 1071 c 2
 475 1071 l 2
 389.398 1071 299 1046.6 299 949 c 0
 299 905 336.464 873.911 413 839 c 1
 459 857 l 1
 530.297 887.831 576 991.514 576 1022 c 0
EndSplineSet
Ligature2: "'half' Half Forms in Devanagari lookup 3 subtable" u0915_u094D_u0937 u094D
LCarets2: 1 0
EndChar

StartChar: u0916.half
Encoding: 65557 -1 149
Width: 1043
GlyphClass: 3
Flags: HW
AnchorPoint: "N" 130 125 basechar 0
LayerCount: 2
Back
Fore
SplineSet
1290 1092 m 1
 32 1092 l 1
 -131 1223 l 1
 1124 1223 l 1
 1290 1092 l 1
852 540 m 0
 933.2 540 1059.46 575.087 1258 742 c 1
 1255 479 l 1
 1209.67 451 1161 426.333 1109 405 c 1
 1059 387.667 1013.67 379 973 379 c 0
 726.939 379 596 520.455 596 739 c 0
 596 891.472 707.548 970 850 970 c 0
 932.4 970 1016.55 951.835 1056 940 c 1
 1182 817 l 1
 1161 785 l 1
 1098 796 l 1
 1034 806 992.333 811 973 811 c 0
 823.371 811 764 712.132 764 622 c 0
 764 567.333 793.333 540 852 540 c 0
749 209 m 0
 962.6 209 1123.82 298.932 1263 422 c 1
 1263 161 l 1
 1138.82 79.7451 1029 37 873 37 c 0
 462.215 37 90 476.543 90 663 c 0
 90 719 119.333 747 178 747 c 0
 216.4 747 255.58 734.14 274 728 c 1
 303 724 l 1
 349.4 724 361 775.1 361 814 c 0
 361 897.6 327.457 980.275 304 1023 c 1
 430 1023 l 1
 477.296 975.704 513 857.33 513 747 c 0
 513 661.812 491.439 549 413 549 c 0
 380.505 549 367.025 563.383 320 567 c 1
 300.667 567 291 558.667 291 542 c 0
 291 496 343 430.667 447 346 c 0
 559.667 254.667 660.333 209 749 209 c 0
EndSplineSet
Ligature2: "'half' Half Forms in Devanagari lookup 3 subtable" u0916 u094D
LCarets2: 1 0
EndChar

StartChar: u0959.half
Encoding: 65558 -1 151
Width: 1043
GlyphClass: 3
Flags: HW
LayerCount: 2
Back
Fore
SplineSet
1290 1092 m 1
 32 1092 l 1
 -131 1223 l 1
 1124 1223 l 1
 1290 1092 l 1
345 131 m 1
 219 5 l 1
 96 136 l 1
 222 256 l 1
 345 131 l 1
853 538 m 0
 934.2 538 1060.46 573.087 1259 740 c 1
 1256 477 l 1
 1210.67 449 1162 424.333 1110 403 c 1
 1060 385.667 1014.67 377 974 377 c 0
 727.939 377 597 518.455 597 737 c 0
 597 889.472 708.548 968 851 968 c 0
 933.4 968 1017.55 949.835 1057 938 c 1
 1183 815 l 1
 1162 783 l 1
 1099 794 l 1
 1035 804 993.333 809 974 809 c 0
 824.371 809 765 710.132 765 620 c 0
 765 565.333 794.333 538 853 538 c 0
750 207 m 0
 963.6 207 1124.82 296.932 1264 420 c 1
 1264 159 l 1
 1139.82 77.7451 1030 35 874 35 c 0
 463.215 35 91 474.543 91 661 c 0
 91 717 120.333 745 179 745 c 0
 217.4 745 256.58 732.14 275 726 c 1
 304 722 l 1
 350.4 722 362 773.1 362 812 c 0
 362 895.6 328.457 978.275 305 1021 c 1
 431 1021 l 1
 478.296 973.704 514 855.33 514 745 c 0
 514 659.812 492.439 547 414 547 c 0
 381.505 547 368.025 561.383 321 565 c 1
 301.667 565 292 556.667 292 540 c 0
 292 494 344 428.667 448 344 c 0
 560.667 252.667 661.333 207 750 207 c 0
EndSplineSet
Ligature2: "'half' Half Forms in Devanagari lookup 3 subtable" u0959 u094D
EndChar

StartChar: u0916.half.vatu
Encoding: 65560 -1 153
Width: 1043
GlyphClass: 3
Flags: HW
LayerCount: 2
Back
Fore
SplineSet
1290 1092 m 1
 32 1092 l 1
 -131 1223 l 1
 1124 1223 l 1
 1290 1092 l 1
851 539 m 0
 932.2 539 1048.17 568.972 1257 743 c 1
 1255 479 l 1
 1198.88 443.356 1080.24 376 971 376 c 0
 735.861 376 595 511.715 595 739 c 0
 595 877.6 693.622 970 849 970 c 0
 931.4 970 1015.55 951.835 1055 940 c 1
 1181 817 l 1
 1160 782 l 1
 1145.33 786.667 1114 792.667 1066 800 c 1
 973 811 l 1
 824.303 811 764 713.708 764 620 c 0
 764 583.25 781.4 539 851 539 c 0
750 204 m 0
 1010 204 1145.74 311.115 1265 417 c 1
 1262 162 l 1
 801 -157 l 1
 684 -43 l 1
 796 43 l 1
 421.177 85.5935 88 474.794 88 657 c 0
 88 713 117.667 741 177 741 c 0
 205 741 237 735 273 723 c 1
 302 719 l 1
 348.4 719 360 770.1 360 809 c 0
 360 862.201 334.95 963.087 305 1015 c 1
 431 1015 l 1
 480.278 967.054 514 851.796 514 742 c 0
 514 656.812 492.439 544 414 544 c 0
 381.505 544 368.025 558.383 321 562 c 1
 301.667 562 292 553.667 292 537 c 0
 292 491 344 425.667 448 341 c 0
 560.667 249.667 661.333 204 750 204 c 0
EndSplineSet
Ligature2: "'vatu' Vattu Variants in Devanagari lookup 4 subtable" u0916.half u0930.sub
LCarets2: 1 0
EndChar

StartChar: u0917.half
Encoding: 65561 -1 156
Width: 602
GlyphClass: 3
Flags: HW
AnchorPoint: "N" 25 430 basechar 0
LayerCount: 2
Back
Fore
SplineSet
782 1092 m 1
 20 1092 l 1
 -142 1223 l 1
 616 1223 l 1
 782 1092 l 1
233 541 m 0
 290.6 541 305 592.2 305 651 c 2
 305 1026 l 1
 471 1026 l 1
 471 533 l 2
 471 429 413.7 403 344 403 c 0
 330 403 301.191 402.958 274 409 c 1
 223 418 l 1
 93 538 l 1
 114 570 l 1
 175 551 l 1
 209.023 542.047 221.4 541 233 541 c 0
EndSplineSet
Ligature2: "'half' Half Forms in Devanagari lookup 3 subtable" u0917 u094D
LCarets2: 1 0
EndChar

StartChar: u095A.half
Encoding: 65562 -1 158
Width: 602
GlyphClass: 3
Flags: HW
LayerCount: 2
Back
Fore
SplineSet
782 1092 m 1
 20 1092 l 1
 -142 1223 l 1
 616 1223 l 1
 782 1092 l 1
234 537 m 1
 291.6 537 306 587.869 306 648 c 2
 306 1026 l 1
 472 1026 l 1
 471 528 l 2
 471 424 413.7 398 344 398 c 0
 330 398 301.191 397.958 274 404 c 1
 223 413 l 1
 93 533 l 1
 114 568 l 1
 160 554 l 2
 194 544 218.667 538.333 234 537 c 1
393 189 m 1
 266 63 l 1
 143 194 l 1
 269 314 l 1
 393 189 l 1
EndSplineSet
Ligature2: "'half' Half Forms in Devanagari lookup 3 subtable" u095A u094D
EndChar

StartChar: u0917.half.vatu
Encoding: 65564 -1 160
Width: 602
GlyphClass: 3
Flags: HW
LayerCount: 2
Back
Fore
SplineSet
782 1092 m 1
 20 1092 l 1
 -142 1223 l 1
 616 1223 l 1
 782 1092 l 1
233 535 m 0
 290.6 535 305 585.869 305 646 c 2
 305 1026 l 1
 471 1026 l 1
 471 528 l 2
 471 421.6 415.212 395 344 395 c 2
 307 395 l 1
 301 396.333 296.667 397 294 397 c 2
 223 411 l 1
 93 531 l 1
 114 564 l 1
 175 545 l 1
 209.023 536.047 221.4 535 233 535 c 0
865 427 m 1
 347 58 l 1
 230 169 l 1
 865 618 l 1
 865 427 l 1
EndSplineSet
Ligature2: "'vatu' Vattu Variants in Devanagari lookup 4 subtable" u0917.half u0930.sub
EndChar

StartChar: u0918.half
Encoding: 65565 -1 162
Width: 688
GlyphClass: 3
Flags: HW
AnchorPoint: "N" 110 305 basechar 0
LayerCount: 2
Back
Fore
SplineSet
886 1092 m 1
 20 1092 l 1
 -142 1223 l 1
 720 1223 l 1
 886 1092 l 1
532 449 m 0
 682.762 449 833.465 622.161 869 690 c 1
 911 678 l 1
 911 410 l 1
 809.391 332.656 679.743 302 592 302 c 0
 365.325 302 180 444.287 180 645 c 0
 180 666.065 175.566 749.878 239 798 c 1
 208.333 828.667 182 862 160 898 c 1
 140 934 125 975.667 115 1023 c 1
 298 1023 l 1
 320.627 876.954 382.856 855.542 412 849 c 1
 459.333 849 508.333 841.333 559 826 c 0
 573 822.667 596.333 814.667 629 802 c 1
 755 682 l 1
 732 652 l 1
 658 681 l 1
 599.333 700.333 546.667 710 500 710 c 0
 366.4 710 333 633.162 333 544 c 0
 333 468 467.912 449 532 449 c 0
EndSplineSet
Ligature2: "'half' Half Forms in Devanagari lookup 3 subtable" u0918 u094D
LCarets2: 1 0
EndChar

StartChar: u0918.half.vatu
Encoding: 65567 -1 164
Width: 688
GlyphClass: 3
Flags: HW
LayerCount: 2
Back
Fore
SplineSet
886 1092 m 1
 20 1092 l 1
 -142 1223 l 1
 720 1223 l 1
 886 1092 l 1
531 443 m 0
 663.251 443 839.152 626.364 868 682 c 1
 910 674 l 1
 911 407 l 1
 405 57 l 1
 288 168 l 1
 479 308 l 1
 312.598 339.756 180 464.796 180 639 c 0
 180 708.627 194.862 755.805 239 797 c 1
 177.667 849.667 136 924 114 1020 c 1
 297 1020 l 1
 309.124 941.748 340.117 862.098 411 844 c 1
 456.333 844 505.333 836.667 558 822 c 2
 587 814 l 130
 596.333 811.333 609.667 806.333 627 799 c 1
 753 676 l 1
 730 646 l 1
 656 674 l 1
 595.333 693.333 543.333 703 500 703 c 0
 409.513 703 332 670 332 538 c 0
 332 462 466.912 443 531 443 c 0
EndSplineSet
Ligature2: "'vatu' Vattu Variants in Devanagari lookup 4 subtable" u0918.half u0930.sub
EndChar

StartChar: u0919
Encoding: 2329 2329 165
Width: 1023
GlyphClass: 2
Flags: HW
AnchorPoint: "N" 160 125 basechar 0
LayerCount: 2
Back
Fore
SplineSet
1327 697 m 1
 1182 559 l 1
 1048 700 l 1
 1182 834 l 1
 1327 697 l 1
1620 1091 m 1
 15 1091 l 1
 -147 1222 l 1
 1454 1222 l 1
 1620 1091 l 1
778 637 m 0
 935.545 637 1122.86 569.876 1120 317 c 1
 1120 151.191 911.504 50 747 50 c 0
 348.631 50 228.526 272.039 90 525 c 1
 122 550 l 1
 267 460 l 1
 305 388.667 357 330.667 423 286 c 0
 497.667 236.667 584 212 682 212 c 0
 829.959 212 954 283.71 954 409 c 0
 954 452.325 932.8 479 901 479 c 0
 812.912 479 762.344 419 640 419 c 0
 433.822 419 307 580.497 307 746 c 0
 307 871.418 377.051 947 493 947 c 2
 796 947 l 1
 796 1024 l 1
 962 1024 l 1
 962 789 l 1
 615 789 l 2
 510.241 789 468 700.683 468 648 c 0
 468 630.095 473.837 588 515 588 c 0
 646.213 588 695.658 637 778 637 c 0
EndSplineSet
EndChar

StartChar: u091A.half
Encoding: 65568 -1 167
Width: 799
GlyphClass: 3
Flags: HW
AnchorPoint: "N" 120 250 basechar 0
LayerCount: 2
Back
Fore
SplineSet
1017 1092 m 1
 14 1092 l 1
 -148 1223 l 1
 851 1223 l 1
 1017 1092 l 1
730 472 m 0
 874.842 472 1011.8 624.289 1036 670 c 1
 1079 662 l 1
 1080 416 l 1
 995.104 354.147 884.766 309 761 309 c 0
 543.824 309 377 448.6 377 658 c 0
 377 684 377.667 701 379 709 c 1
 231 709 l 1
 65 851 l 1
 713 851 l 1
 885 709 l 1
 664 711 l 1
 552.637 694.502 545 594.195 545 554 c 0
 545 488.4 635.4 472 730 472 c 0
EndSplineSet
Ligature2: "'half' Half Forms in Devanagari lookup 3 subtable" u091A u094D
LCarets2: 1 0
EndChar

StartChar: u091A.half.vatu
Encoding: 65570 -1 169
Width: 799
GlyphClass: 3
Flags: HW
LayerCount: 2
Back
Fore
SplineSet
1017 1092 m 1
 14 1092 l 1
 -148 1223 l 1
 851 1223 l 1
 1017 1092 l 1
730 467 m 0
 872.88 467 1012.38 616.804 1037 669 c 1
 1080 658 l 1
 1080 413 l 1
 548 56 l 1
 431 168 l 1
 643 319 l 1
 526.99 351.721 377 452.6 377 653 c 2
 377 676 l 1
 379 704 l 1
 231 704 l 1
 65 846 l 1
 713 846 l 1
 885 704 l 1
 664 706 l 1
 552.637 689.502 545 589.195 545 549 c 0
 545 483.4 635.4 467 730 467 c 0
EndSplineSet
Ligature2: "'vatu' Vattu Variants in Devanagari lookup 4 subtable" u091A.half u0930.sub
EndChar

StartChar: u091B
Encoding: 2331 2331 170
Width: 1209
GlyphClass: 2
Flags: HW
AnchorPoint: "N" 95 100 basechar 0
LayerCount: 2
Back
Fore
SplineSet
1471 1092 m 1
 20 1092 l 1
 -142 1223 l 1
 1305 1223 l 1
 1471 1092 l 1
1083 922 m 1
 1211.85 869.611 1259.52 740.169 1262 558 c 1
 1262 440 1205.33 320 1092 198 c 0
 970 66.6667 839 1 699 1 c 0
 362.484 1 247 140.6 247 350 c 0
 247 379.333 252.333 407.333 263 434 c 1
 181.196 485.666 136 571.764 136 701 c 0
 136 817.275 212.363 891 318 891 c 0
 353.333 891 378.667 889.667 394 887 c 1
 440 875 l 1
 623 703 l 1
 538 722 l 2
 513.333 727.333 481 730 441 730 c 0
 366.631 730 302 702.8 302 594 c 0
 302 577.863 305.362 549.559 365 524 c 1
 413.441 547.566 461.417 556 519 556 c 1
 544 555 l 1
 560 554 l 1
 732 395 l 1
 700 397 l 1
 667 398 l 1
 543.65 398 419 365.8 419 237 c 0
 419 169.686 494.018 143 576 143 c 0
 757.208 143 845.994 194.144 966 330 c 1
 843.856 410.661 741 521.028 741 707 c 0
 741 835.771 805.118 947 912 947 c 2
 917 947 l 1
 917 1018 l 1
 1083 1018 l 1
 1083 922 l 1
1046 435 m 1
 1077.24 491.043 1121.32 588.577 1123 676 c 1
 1123 743.2 1070.6 788 1006 788 c 0
 918.036 788 878 708.041 878 609 c 0
 878 574.2 904.874 509.714 1046 435 c 1
EndSplineSet
EndChar

StartChar: u091C.half
Encoding: 65571 -1 174
Width: 788
GlyphClass: 3
Flags: HW
AnchorPoint: "N" 130 275 basechar 0
LayerCount: 2
Back
Fore
SplineSet
1069 1092 m 1
 19 1092 l 1
 -143 1223 l 1
 902 1223 l 1
 1069 1092 l 1
471 434 m 0
 618.325 434 665 498 665 594 c 0
 665 634.667 649.667 677.333 619 722 c 1
 517 842 l 1
 1058 842 l 1
 1057 684 l 1
 773 684 l 1
 780.052 671.776 824 584.838 824 477 c 0
 824 397.4 765.602 278 553 278 c 0
 380.693 278 209.099 348.736 129 596 c 1
 105.667 671.333 94 747 94 823 c 1
 207 711 l 1
 207 622.269 312.6 434 471 434 c 0
EndSplineSet
Ligature2: "'half' Half Forms in Devanagari lookup 3 subtable" u091C u094D
LCarets2: 1 5
EndChar

StartChar: u095B.half
Encoding: 65572 -1 176
Width: 788
GlyphClass: 3
Flags: HW
LayerCount: 2
Back
Fore
SplineSet
1069 1092 m 1
 19 1092 l 1
 -143 1223 l 1
 902 1223 l 1
 1069 1092 l 1
471 433 m 0
 618.325 433 665 497 665 593 c 0
 665 635 649.667 678.333 619 723 c 1
 517 842 l 1
 1058 842 l 1
 1057 682 l 1
 773 682 l 1
 780.052 669.776 824 582.838 824 475 c 0
 824 395.4 765.602 276 553 276 c 0
 383.4 276 209.275 347.193 129 595 c 1
 105.667 670.333 94 746.667 94 824 c 1
 207 710 l 1
 207 621.269 312.6 433 471 433 c 0
674 112 m 1
 548 -13 l 1
 422 115 l 1
 548 235 l 1
 674 112 l 1
EndSplineSet
Ligature2: "'half' Half Forms in Devanagari lookup 3 subtable" u095B u094D
LCarets2: 1 0
EndChar

StartChar: u091C.half.vatu
Encoding: 65574 -1 178
Width: 788
GlyphClass: 3
Flags: HW
LayerCount: 2
Back
Fore
SplineSet
1069 1092 m 1
 19 1092 l 1
 -143 1223 l 1
 902 1223 l 1
 1069 1092 l 1
471 432 m 0
 585.546 432 665 473.343 665 588 c 0
 665 630.667 649.667 674.333 619 719 c 1
 517 839 l 1
 1058 839 l 1
 1057 679 l 1
 773 679 l 1
 795.68 646.24 824 566.629 824 472 c 256
 824 392.4 765.602 273 553 273 c 0
 380.693 273 209.099 343.736 129 591 c 1
 105.667 666.333 94 743 94 821 c 1
 207 709 l 1
 207 620.269 312.6 432 471 432 c 0
1066 284 m 1
 547 -88 l 1
 430 25 l 1
 1067 478 l 1
 1066 284 l 1
EndSplineSet
Ligature2: "'vatu' Vattu Variants in Devanagari lookup 4 subtable" u091C.half u0930.sub
EndChar

StartChar: u091C_u094D_u091E.half
Encoding: 65576 -1 180
Width: 656
GlyphClass: 3
Flags: HW
AnchorPoint: "N" 72 -20 basechar 0
LayerCount: 2
Back
Fore
SplineSet
865 1092 m 1
 20 1092 l 1
 -142 1223 l 1
 700 1223 l 1
 865 1092 l 1
342 260 m 1
 444.094 260 509 299.81 509 390 c 0
 509 440 467 490 383 540 c 1
 217 626 l 1
 100 782 l 1
 871 782 l 1
 875 624 l 1
 479 624 l 1
 591.384 557.591 710 473.158 710 308 c 0
 710 148.8 572.787 109 444 109 c 1
 694 -192 l 1
 668 -227 l 1
 493 -164 l 1
 204 188 l 1
 185.333 200.667 176 216.333 176 235 c 0
 176 244.494 181.307 279.392 232 284 c 1
 257.385 284 276.635 270.511 282 263 c 1
 307 261 l 1
 342 260 l 1
EndSplineSet
Ligature2: "'half' Half Forms in Devanagari lookup 3 subtable" u091C_u094D_u091E u094D
LCarets2: 1 0
EndChar

StartChar: u091D.half
Encoding: 65577 -1 182
Width: 817
GlyphClass: 3
Flags: HW
AnchorPoint: "N" 108 -100 basechar 0
LayerCount: 2
Back
Fore
SplineSet
963 1092 m 1
 14 1092 l 1
 -148 1223 l 1
 796 1223 l 1
 963 1092 l 1
758 609 m 1
 845.72 609 957.344 659.362 1024 709 c 1
 1028 507 l 1
 1000.02 483.887 927.505 460 884 460 c 2
 869 460 l 2
 863 460 854.667 460.667 844 462 c 1
 802 473 l 1
 811 434 l 1
 813 394 l 1
 813 365.333 810 339.333 804 316 c 1
 793.333 254.667 753 206 683 170 c 1
 619.667 138.667 547 123 465 123 c 1
 728 -189 l 1
 542 -153 l 1
 316 120 l 1
 273.333 128 235.667 145 203 171 c 1
 161 201.667 140 237.333 140 278 c 0
 140 308.667 153 341 179 375 c 1
 194 376 l 1
 249.66 376 325.99 301.318 352 264 c 1
 501.67 264 646.387 324.654 659 476 c 1
 659 495.333 649 505 629 505 c 0
 589.205 505 469.191 451 422 451 c 0
 212.114 451 117 589.404 117 746 c 0
 117 855.379 170.189 948 248 948 c 2
 560 948 l 1
 560 1022 l 1
 712 1022 l 1
 712 798 l 1
 371 798 l 2
 294.427 798 256 733.561 256 667 c 0
 256 632.466 268.772 595 300 595 c 0
 400.775 595 442.63 655 548 655 c 0
 579.8 655 581.003 655.249 601 649 c 1
 619.667 645.667 640.667 637.667 664 625 c 1
 715 613 l 1
 758 609 l 1
EndSplineSet
Ligature2: "'half' Half Forms in Devanagari lookup 3 subtable" u091D u094D
LCarets2: 1 12
EndChar

StartChar: u091D.half.vatu
Encoding: 65579 -1 184
Width: 823
GlyphClass: 3
Flags: HW
LayerCount: 2
Back
Fore
SplineSet
1066 142 m 1
 785 -72 l 1
 665 48 l 1
 1066 340 l 1
 1066 142 l 1
963 1090 m 1
 14 1090 l 1
 -148 1221 l 1
 796 1221 l 1
 963 1090 l 1
758 607 m 1
 845.72 607 957.344 657.362 1024 707 c 1
 1028 505 l 1
 1000.02 481.887 927.505 458 884 458 c 2
 869 458 l 2
 863 458 854.667 458.667 844 460 c 1
 802 471 l 1
 811 432 l 1
 813 392 l 1
 813 363.333 810 337.333 804 314 c 1
 793.333 252.667 753 204 683 168 c 1
 619.667 136.667 547 121 465 121 c 1
 728 -191 l 1
 542 -155 l 1
 316 118 l 1
 273.333 126 235.667 143 203 169 c 1
 161 199.667 140 235.333 140 276 c 0
 140 306.667 153 339 179 373 c 1
 194 374 l 1
 249.66 374 325.99 299.318 352 262 c 1
 501.67 262 646.387 322.654 659 474 c 1
 659 493.333 649 503 629 503 c 0
 589.205 503 469.191 449 422 449 c 0
 212.114 449 117 587.404 117 744 c 0
 117 853.379 170.189 946 248 946 c 2
 560 946 l 1
 560 1020 l 1
 712 1020 l 1
 712 796 l 1
 371 796 l 2
 294.427 796 256 731.561 256 665 c 0
 256 630.466 268.772 593 300 593 c 0
 400.775 593 442.63 653 548 653 c 0
 579.8 653 581.003 653.249 601 647 c 1
 619.667 643.667 640.667 635.667 664 623 c 1
 715 611 l 1
 758 607 l 1
EndSplineSet
Ligature2: "'vatu' Vattu Variants in Devanagari lookup 4 subtable" u091D.half u0930.sub
EndChar

StartChar: u091E.half
Encoding: 65580 -1 186
Width: 851
GlyphClass: 3
Flags: HW
AnchorPoint: "N" 155 250 basechar 0
LayerCount: 2
Back
Fore
SplineSet
1050 1092 m 1
 14 1092 l 1
 -148 1223 l 1
 883 1223 l 1
 1050 1092 l 1
556 922 m 0
 722.956 922 850.906 826.214 896 680 c 1
 952.93 680 990.261 693.004 1027 707 c 1
 1111 744 l 1
 1112 542 l 1
 1062 527 l 1
 1047.48 524.36 1036.4 523.4 1021 522 c 1
 965 526 l 1
 909 538 l 1
 909 436.737 823.191 302 621 302 c 0
 316.385 302 162.595 493.755 55 710 c 1
 221 639 l 1
 274.758 567.874 341.8 463 523 463 c 0
 660.459 463 756 579.75 756 677 c 0
 756 713.125 739 762 671 762 c 0
 612.333 762 565.333 750.333 530 727 c 1
 463 664 l 1
 314 806 l 1
 369.238 865.33 411.581 922 556 922 c 0
EndSplineSet
Ligature2: "'half' Half Forms in Devanagari lookup 3 subtable" u091E u094D
LCarets2: 1 0
EndChar

StartChar: u091F
Encoding: 2335 2335 187
Width: 872
GlyphClass: 2
Flags: HW
AnchorPoint: "N" 145 140 basechar 0
AnchorPoint: "B" 536 -48 basechar 0
LayerCount: 2
Back
Fore
SplineSet
1135 1092 m 1
 14 1092 l 1
 -148 1223 l 1
 969 1223 l 1
 1135 1092 l 1
523 281 m 0
 665.8 281 777.149 319.935 880 382 c 1
 1032 232 l 1
 972.235 191.445 840.113 112 648 112 c 0
 480 112 337.667 174.333 221 299 c 0
 115.667 411.667 63 533 63 663 c 0
 63 821.38 161.699 914 327 914 c 2
 622 914 l 1
 622 1026 l 1
 788 1026 l 1
 788 755 l 1
 451 755 l 2
 328.622 755 264 677.156 264 570 c 0
 264 450.789 354.634 281 523 281 c 0
EndSplineSet
EndChar

StartChar: u091F_u094D_u091F
Encoding: 65581 -1 188
Width: 916
GlyphClass: 2
Flags: HW
LayerCount: 2
Back
Fore
SplineSet
1250 1092 m 1
 14 1092 l 1
 -148 1223 l 1
 1084 1223 l 1
 1250 1092 l 1
604 -247 m 0
 692.57 -247 792.806 -226.644 889 -166 c 1
 1021 -290 l 1
 1001.67 -302.667 986.5 -312.167 975.5 -318.5 c 130
 933 -342 l 1
 857 -377.333 780.333 -395 703 -395 c 0
 421.6 -395 234 -150.048 234 56 c 0
 234 185.321 310.998 265 449 265 c 2
 681 265 l 1
 681 291 l 1
 551.667 291 442.667 340.667 354 440 c 0
 273.333 529.333 233 628 233 736 c 0
 233 830.1 276.2 951 449 951 c 2
 681 951 l 1
 681 1022 l 1
 822 1022 l 1
 822 814 l 1
 547 814 l 2
 430.886 814 402 733.084 402 668 c 0
 402 563.441 478.78 434 604 434 c 0
 716.8 434 807.055 468.609 886 519 c 1
 1017 399 l 1
 952.908 345.59 871.713 316.533 823 306 c 1
 823 129 l 1
 548 129 l 2
 432 129 403 47.7826 403 -15 c 0
 403 -129.473 488.784 -247 604 -247 c 0
EndSplineSet
EndChar

StartChar: u091F_u094D_u0920
Encoding: 65582 -1 189
Width: 916
GlyphClass: 2
Flags: HW
LayerCount: 2
Back
Fore
SplineSet
1250 1092 m 1
 14 1092 l 1
 -148 1223 l 1
 1084 1223 l 1
 1250 1092 l 1
604 435 m 0
 689.437 435 794.694 457.398 889 521 c 1
 1021 396 l 1
 965 361 l 1
 921.667 337.667 875 318.667 825 304 c 1
 825 165 l 1
 895.915 102.358 962 -3.28822 962 -132 c 0
 962 -288.689 806.631 -430 631 -430 c 0
 347.788 -430 201 -244.279 201 -39 c 0
 201 129.177 362.658 261 530 261 c 0
 582 261 632 253.667 680 239 c 1
 680 296 l 1
 630 298 l 1
 408.662 329.985 232 534.936 232 740 c 0
 232 871.566 310.494 949 449 949 c 2
 681 949 l 1
 681 1023 l 1
 822 1023 l 1
 822 815 l 1
 547 815 l 2
 430.886 815 402 734.084 402 669 c 0
 402 564.441 478.78 435 604 435 c 0
529 -295 m 0
 673.825 -295 818 -180.757 818 -41 c 0
 818 64.9899 722.747 122 630 122 c 0
 480 122 344 12.2727 344 -134 c 0
 344 -230.6 430.893 -295 529 -295 c 0
EndSplineSet
EndChar

StartChar: u0920
Encoding: 2336 2336 190
Width: 965
GlyphClass: 2
Flags: HW
AnchorPoint: "N" 140 130 basechar 0
LayerCount: 2
Back
Fore
SplineSet
1250 1092 m 1
 14 1092 l 1
 -148 1223 l 1
 1084 1223 l 1
 1250 1092 l 1
881 818 m 1
 979.999 734.039 1051.18 614.443 1054 451 c 1
 1054 256.192 860.683 87 645 87 c 0
 317.527 87 115 294.664 115 572 c 0
 115 769.921 304.32 936 522 936 c 0
 570.274 936 640.872 928.239 715 906 c 1
 715 1029 l 1
 881 1029 l 1
 881 818 l 1
521 251 m 0
 708.086 251 887.378 390.416 886 575 c 0
 886 698.478 765.917 777 643 777 c 0
 528.417 777 454.194 738.434 391 683 c 0
 317.667 619.667 281 543.667 281 455 c 0
 281 339.763 392.431 251 521 251 c 0
EndSplineSet
EndChar

StartChar: u0920_u094D_u0920
Encoding: 65583 -1 191
Width: 848
GlyphClass: 2
Flags: HW
LayerCount: 2
Back
Fore
SplineSet
1115 1092 m 1
 14 1092 l 1
 -148 1223 l 1
 949 1223 l 1
 1115 1092 l 1
754 167 m 1
 827.432 102.135 890.582 -1.70322 892 -135 c 1
 892 -292.099 736.588 -433 560 -433 c 0
 276.672 -433 131 -248.338 131 -42 c 0
 131 126.177 292.658 258 460 258 c 0
 509.333 258 559.667 250.667 611 236 c 1
 611 271 l 1
 582 266 l 1
 560 265 l 1
 280.194 265 131 448.418 131 657 c 0
 131 825.268 288.379 955 461 955 c 2
 504 955 l 1
 533.685 949.346 564.02 947.14 579 945 c 1
 593.667 940.333 604 937.667 610 937 c 1
 610 1022 l 1
 754 1022 l 1
 754 859 l 1
 825.302 797.049 890 698.827 890 565 c 0
 890 509.5 874.577 414.621 754 333 c 1
 754 167 l 1
460 406 m 0
 599.719 406 749 514.861 749 663 c 0
 749 764.178 655.656 826 560 826 c 0
 406.462 826 275 707.64 275 567 c 0
 275 474.53 359.986 406 460 406 c 0
461 -291 m 0
 606.525 -291 750.364 -176.159 749 -37 c 1
 749 77.7484 641.203 126 560 126 c 0
 413.9 126 276 17.3828 276 -130 c 0
 276 -226.6 362.893 -291 461 -291 c 0
EndSplineSet
EndChar

StartChar: u0921
Encoding: 2337 2337 193
Width: 1058
GlyphClass: 2
Flags: HW
AnchorPoint: "N" 140 130 basechar 0
LayerCount: 2
Back
Fore
SplineSet
1390 1092 m 1
 14 1092 l 1
 -148 1223 l 1
 1224 1223 l 1
 1390 1092 l 1
777 638 m 0
 934.545 638 1121.86 570.876 1119 318 c 1
 1119 152.191 910.504 51 746 51 c 0
 347.631 51 227.526 273.039 89 526 c 1
 121 551 l 1
 266 461 l 1
 304 389.667 356 331.667 422 287 c 0
 496.667 237.667 583 213 681 213 c 0
 828.959 213 953 284.71 953 410 c 0
 953 453.325 931.8 480 900 480 c 0
 811.912 480 761.344 420 639 420 c 0
 432.822 420 306 581.497 306 747 c 0
 306 872.418 376.051 948 492 948 c 2
 795 948 l 1
 795 1025 l 1
 961 1025 l 1
 961 790 l 1
 614 790 l 2
 509.241 790 467 701.683 467 649 c 0
 467 631.095 472.837 589 514 589 c 0
 645.213 589 694.658 638 777 638 c 0
EndSplineSet
EndChar

StartChar: u095C
Encoding: 2396 2396 194
Width: 1058
GlyphClass: 2
Flags: HW
LayerCount: 2
Back
Fore
SplineSet
1390 1092 m 1
 14 1092 l 1
 -148 1223 l 1
 1224 1223 l 1
 1390 1092 l 1
775 632 m 0
 989.386 632 1119 518.555 1119 315 c 0
 1119 147.079 909.27 47 746 47 c 0
 346.936 47 227.042 269.423 89 520 c 1
 121 545 l 1
 266 454 l 1
 341.423 308.355 480.834 204 681 204 c 0
 828.647 204 953 276.722 953 405 c 0
 953 458.6 921.2 472 900 472 c 0
 811.912 472 761.344 412 639 412 c 0
 431.818 412 306 579.371 306 743 c 0
 306 866.258 376.5 943 492 943 c 2
 795 943 l 1
 795 1017 l 1
 961 1017 l 1
 961 782 l 1
 614 782 l 2
 509.241 782 467 693.683 467 641 c 0
 467 623.095 472.837 581 514 581 c 0
 632.71 581 720.145 632 775 632 c 0
890 -178 m 1
 764 -304 l 1
 638 -176 l 1
 764 -56 l 1
 890 -178 l 1
EndSplineSet
EndChar

StartChar: u0921_u094D_u0921
Encoding: 65584 -1 195
Width: 1058
GlyphClass: 2
Flags: HW
LayerCount: 2
Back
Fore
SplineSet
1390 1092 m 1
 14 1092 l 1
 -148 1223 l 1
 1224 1223 l 1
 1390 1092 l 1
794 -98 m 0
 927.635 -98 1075.63 -156.846 1070 -361 c 1
 1070 -497.009 898.525 -581 768 -581 c 0
 445.074 -581 348.997 -398.738 240 -194 c 1
 270 -169 l 1
 387 -246 l 1
 445.173 -359.702 556.698 -441 716 -441 c 0
 832.05 -441 928 -386.396 928 -285 c 0
 928 -256.815 913.857 -237 888 -237 c 0
 818.769 -237 769.131 -283 679 -283 c 0
 503.54 -283 411 -138.988 411 -13 c 0
 411 58.5187 441.2 154 562 154 c 2
 800 154 l 1
 800 196 l 1
 770 194 l 1
 450.84 194 353.543 371.406 242 579 c 1
 272 604 l 1
 389 530 l 1
 425.721 457.412 520.2 332 717 332 c 0
 833.05 332 929 386.604 929 488 c 0
 929 513.887 921.2 538 890 538 c 0
 814.6 538 759.309 490 682 490 c 0
 506.54 490 414 634.013 414 760 c 0
 414 831.519 444.2 927 565 927 c 2
 803 927 l 1
 803 1018 l 1
 947 1018 l 1
 947 792 l 1
 663 792 l 2
 585.946 792 549 725.549 549 682 c 0
 549 651.333 560.667 636 584 636 c 0
 688.243 636 691.362 659.337 794 674 c 1
 920.737 674 1074 621.6 1074 412 c 0
 1074 341.91 1034.3 286.034 946 236 c 1
 946 15 l 1
 662 15 l 2
 583.3 15 549 -51.8125 549 -94 c 0
 549 -124.667 560.667 -140 584 -140 c 0
 686.375 -140 723.125 -98 794 -98 c 0
EndSplineSet
EndChar

StartChar: u0921_u094D_u0922
Encoding: 65585 -1 196
Width: 1058
GlyphClass: 2
Flags: HW
LayerCount: 2
Back
Fore
SplineSet
1390 1092 m 1
 14 1092 l 1
 -148 1223 l 1
 1224 1223 l 1
 1390 1092 l 1
792 687 m 0
 925.17 687 1072.81 630.217 1070 418 c 1
 1070 308.099 960.381 242.155 856 212 c 1
 856 60 l 1
 599 60 l 2
 479 60 449 -35.2195 449 -107 c 0
 449 -196.503 494.061 -277.17 567 -313 c 1
 538.074 -275.809 532 -227.179 532 -191 c 0
 532 -95.4375 613.131 -19 709 -19 c 0
 837.392 -19 965 -71.6 965 -282 c 0
 965 -389.471 857.673 -467 742 -467 c 0
 457.675 -467 290 -239.378 290 -36 c 0
 290 58.9059 333.4 193 507 193 c 2
 722 193 l 1
 722 204 l 1
 503.379 204 407.464 319.75 348 403 c 1
 320 445 283.667 507.333 239 590 c 1
 269 612 l 1
 386 538 l 1
 444.173 424.298 555.698 343 715 343 c 0
 831.475 343 927 396.562 927 497 c 0
 927 522.887 919.2 547 888 547 c 0
 812.6 547 757.309 499 680 499 c 0
 506.632 499 412 639.735 412 772 c 0
 412 843.519 442.2 939 563 939 c 2
 801 939 l 1
 801 1027 l 1
 945 1027 l 1
 945 801 l 1
 661 801 l 2
 583.946 801 547 734.549 547 691 c 0
 547 660.333 558.667 645 582 645 c 0
 684.375 645 721.125 687 792 687 c 0
716 -318 m 0
 788.687 -318 847.401 -273.676 846 -191 c 0
 846 -161.4 819.222 -155.657 801 -154 c 1
 729.574 -154 676 -198.844 676 -279 c 0
 676 -292.888 694.662 -318 716 -318 c 0
EndSplineSet
EndChar

StartChar: u0922
Encoding: 2338 2338 197
Width: 1012
GlyphClass: 2
Flags: HW
AnchorPoint: "N" 140 95 basechar 0
LayerCount: 2
Back
Fore
SplineSet
1230 1092 m 1
 3 1092 l 1
 -160 1223 l 1
 1065 1223 l 1
 1230 1092 l 1
704 633 m 0
 890.712 633 1029.39 511.146 1028 290 c 0
 1028 175.279 917.069 54 737 54 c 0
 565.667 54 422.333 117.333 307 244 c 0
 204.333 357.333 153 483.333 153 622 c 0
 153 804.534 256.639 913 434 913 c 2
 729 913 l 1
 729 1025 l 1
 895 1025 l 1
 895 754 l 1
 515 754 l 2
 367.8 754 331 631.6 331 550 c 0
 331 426.778 402.486 277.113 540 236 c 1
 518.867 254.218 475 304.4 475 407 c 0
 475 528.682 573.68 633 704 633 c 0
714 236 m 0
 819.312 236 890.679 310.588 892 407 c 0
 892 440.664 868.007 472 827 472 c 0
 727.438 472 652 410.193 652 298 c 0
 652 269.826 681.328 236 714 236 c 0
EndSplineSet
EndChar

StartChar: u095D
Encoding: 2397 2397 198
Width: 1012
GlyphClass: 2
Flags: HW
LayerCount: 2
Back
Fore
SplineSet
793 -177 m 1
 667 -302 l 1
 541 -174 l 1
 667 -54 l 1
 793 -177 l 1
1229 1092 m 1
 2 1092 l 1
 -161 1223 l 1
 1064 1223 l 1
 1229 1092 l 1
703 632 m 0
 900.176 632 1029.74 521.49 1027 304 c 1
 1027 178.208 907.815 53 736 53 c 0
 564.667 53 421.333 116.333 306 243 c 0
 203.333 356.333 152 482.333 152 621 c 0
 152 803.534 255.639 912 433 912 c 2
 728 912 l 1
 728 1024 l 1
 894 1024 l 1
 894 753 l 1
 514 753 l 2
 366.8 753 330 630.6 330 549 c 0
 330 425.778 401.486 276.113 539 235 c 1
 517.867 253.218 474 303.4 474 406 c 0
 474 527.682 572.68 632 703 632 c 0
714 235 m 0
 819.312 235 890.679 309.588 892 406 c 0
 892 439.664 868.007 471 827 471 c 0
 727.438 471 652 409.193 652 297 c 0
 652 268.826 681.328 235 714 235 c 0
EndSplineSet
EndChar

StartChar: u0923.half
Encoding: 65586 -1 200
Width: 820
GlyphClass: 3
Flags: HW
AnchorPoint: "N" 90 340 basechar 0
LayerCount: 2
Back
Fore
SplineSet
1000 1092 m 1
 2 1092 l 1
 -161 1223 l 1
 834 1223 l 1
 1000 1092 l 1
497 502 m 0
 615.642 502 639 560.824 639 691 c 2
 639 1025 l 1
 804 1025 l 1
 805 574 l 2
 805 440.247 707.081 365 563 365 c 0
 356.708 365 203 495.8 203 692 c 2
 203 1026 l 1
 369 1026 l 1
 369 616 l 2
 369 558.8 433.777 502 497 502 c 0
EndSplineSet
Ligature2: "'half' Half Forms in Devanagari lookup 3 subtable" u0923 u094D
LCarets2: 1 0
EndChar

StartChar: u0924.half
Encoding: 65587 -1 202
Width: 564
GlyphClass: 3
Flags: HW
AnchorPoint: "N" 105 100 basechar 0
LayerCount: 2
Back
Fore
SplineSet
744 1092 m 1
 32 1092 l 1
 -131 1223 l 1
 580 1223 l 1
 744 1092 l 1
128 598 m 0
 128 803.913 240.8 854 318 854 c 2
 794 854 l 1
 794 700 l 1
 442 700 l 2
 383.2 700 295 666.189 295 483 c 0
 295 381.8 405.509 273.257 474 230 c 1
 528 50 l 1
 292.793 224.509 128 376.163 128 598 c 0
EndSplineSet
Ligature2: "'half' Half Forms in Devanagari lookup 3 subtable" u0924 u094D
LCarets2: 1 0
EndChar

StartChar: u0924.half.vatu
Encoding: 65589 -1 204
Width: 649
GlyphClass: 3
Flags: HW
LayerCount: 2
Back
Fore
SplineSet
817 1092 m 1
 17 1092 l 1
 -145 1223 l 1
 651 1223 l 1
 817 1092 l 1
517 743 m 0
 417.4 743 382.731 731.709 268 697 c 1
 112 848 l 1
 246 885 l 2
 292 897.667 341.333 904 394 904 c 0
 467.333 904 548.333 880 637 832 c 1
 862 702 l 1
 862 511 l 1
 393 167 l 1
 273 281 l 1
 771 601 l 1
 633 703 l 2
 595.667 729.667 557 743 517 743 c 0
EndSplineSet
Ligature2: "'vatu' Vattu Variants in Devanagari lookup 4 subtable" u0924.half u0930.sub
EndChar

StartChar: u0924_u094D_u0924.half
Encoding: 65591 -1 206
Width: 719
GlyphClass: 3
Flags: HW
LayerCount: 2
Back
Fore
SplineSet
932 1092 m 1
 17 1092 l 1
 -145 1223 l 1
 766 1223 l 1
 932 1092 l 1
700 50 m 1
 464.793 224.509 300 376.163 300 598 c 0
 300 641.333 303.667 675.333 311 700 c 1
 223 700 l 1
 57 854 l 1
 968 854 l 1
 966 700 l 1
 614 700 l 2
 555.2 700 467 666.189 467 483 c 0
 467 381.8 577.509 273.257 646 230 c 1
 700 50 l 1
EndSplineSet
Ligature2: "'half' Half Forms in Devanagari lookup 3 subtable" u0924_u094D_u0924 u094D
EndChar

StartChar: u0925.half
Encoding: 65592 -1 208
Width: 754
GlyphClass: 3
Flags: HW
AnchorPoint: "N" 65 245 basechar 0
LayerCount: 2
Back
Fore
SplineSet
596 381 m 0
 781.02 381 881.836 499.704 973 618 c 1
 974 320 l 1
 872 263 l 1
 813.333 235 762.667 221 720 221 c 0
 449.836 221 269.045 315.335 124 659 c 1
 158 668 l 1
 214.667 685.333 263.667 705.667 305 729 c 1
 260.031 757.993 135 848.6 135 1028 c 0
 135 1153.25 207.654 1219 325 1219 c 0
 539.92 1219 662 1111.57 662 903 c 0
 662 679.505 459.06 602.916 331 558 c 1
 390.333 440 478.667 381 596 381 c 0
427 822 m 1
 470.698 844.942 510 869.697 510 1008 c 0
 510 1034.8 475.125 1061 446 1061 c 0
 382.078 1061 299 1031.2 299 912 c 0
 299 886 320.333 863 363 843 c 1
 427 822 l 1
EndSplineSet
Ligature2: "'half' Half Forms in Devanagari lookup 3 subtable" u0925 u094D
LCarets2: 1 0
EndChar

StartChar: u0925.half.vatu
Encoding: 65594 -1 210
Width: 754
GlyphClass: 3
Flags: HW
LayerCount: 2
Back
Fore
SplineSet
595 374 m 0
 775.699 374 881.412 494.063 971 610 c 1
 974 312 l 1
 433 -60 l 1
 316 54 l 1
 562 231 l 1
 361.583 269.035 231.028 396.889 123 653 c 1
 181 671 l 2
 226.333 685.667 267.333 704 304 726 c 1
 149.774 824.863 133 953.75 133 1025 c 0
 133 1150.25 205.654 1216 323 1216 c 0
 481.47 1216 661 1151.6 661 894 c 0
 661 790.667 614 706 520 640 c 0
 498.667 625.333 435.333 595.667 330 551 c 1
 382.588 444.571 489 374 595 374 c 0
422 814 m 1
 476.647 837.573 508 873.772 508 992 c 0
 508 1034.81 473.116 1056 444 1056 c 0
 384.042 1056 297 1030.31 297 904 c 0
 297 857.941 369.711 814 422 814 c 1
EndSplineSet
Ligature2: "'vatu' Vattu Variants in Devanagari lookup 4 subtable" u0925.half u0930.sub
EndChar

StartChar: u0926
Encoding: 2342 2342 211
Width: 960
GlyphClass: 2
Flags: HW
AnchorPoint: "N" 180 80 basechar 0
LayerCount: 2
Back
Fore
SplineSet
1135 1092 m 1
 14 1092 l 1
 -148 1223 l 1
 969 1223 l 1
 1135 1092 l 1
319 582 m 0
 319 481.888 397.812 350 555 350 c 1
 608 351 l 1
 638 355 l 1
 570 483 l 1
 600 505 l 1
 772 400 l 1
 1067 -140 l 1
 843 -28 l 1
 726 189 l 1
 703 185 l 1
 678 184 l 1
 516 184 379 238.333 267 347 c 0
 166.333 445 116 553 116 671 c 0
 116 826.98 223.053 917 395 917 c 2
 690 917 l 1
 690 1026 l 1
 855 1026 l 1
 855 758 l 1
 518 758 l 2
 358.8 758 319 649.291 319 582 c 0
EndSplineSet
EndChar

StartChar: u0926_u0943
Encoding: 65595 -1 212
Width: 979
GlyphClass: 2
Flags: HW
LayerCount: 2
Back
Fore
SplineSet
1135 1092 m 1
 14 1092 l 1
 -148 1223 l 1
 969 1223 l 1
 1135 1092 l 1
1035 -103 m 1
 898.546 -119.374 826 -200.8 826 -266 c 0
 826 -304 846.333 -323 887 -323 c 0
 920.333 -323 962.667 -307.333 1014 -276 c 1
 1124 -387 l 1
 1096.03 -429.624 1007.72 -464 925 -464 c 0
 859.667 -464 804.667 -447.667 760 -415 c 1
 705.333 -377 668.333 -316 649 -232 c 1
 644 -197 l 1
 644 -123 708.645 -58.3569 818 -12 c 1
 729 160 l 1
 706 156 l 1
 681 155 l 1
 519 155 382 211 270 323 c 0
 169.333 423.667 119 535 119 657 c 0
 119 765.992 174.8 910 398 910 c 2
 693 910 l 1
 693 1022 l 1
 858 1022 l 1
 858 748 l 1
 521 748 l 2
 389.824 748 322 664.393 322 566 c 0
 322 456.062 402.844 325 558 325 c 1
 598 326 l 1
 641 331 l 1
 573 462 l 1
 603 487 l 1
 775 378 l 1
 1035 -103 l 1
EndSplineSet
EndChar

StartChar: u0926.vatu
Encoding: 65596 -1 213
Width: 940
GlyphClass: 3
Flags: HW
LayerCount: 2
Back
Fore
SplineSet
1135 1092 m 1
 14 1092 l 1
 -148 1223 l 1
 969 1223 l 1
 1135 1092 l 1
320 570 m 0
 320 454.65 410.656 333 556 333 c 1
 609 334 l 1
 639 338 l 1
 571 466 l 1
 601 491 l 1
 773 382 l 1
 1067 -164 l 1
 843 -53 l 1
 737 144 l 1
 291 -176 l 1
 174 -62 l 1
 521 187 l 1
 267.805 252.385 115 470.2 115 659 c 0
 115 819.09 225.282 909 396 909 c 2
 691 909 l 1
 691 1018 l 1
 856 1018 l 1
 856 750 l 1
 519 750 l 2
 361.628 750 320 642.855 320 570 c 0
EndSplineSet
Ligature2: "'vatu' Vattu Variants in Devanagari lookup 4 subtable" u0926 u0930.sub
EndChar

StartChar: u0926_u094D_u0926
Encoding: 65597 -1 214
Width: 900
GlyphClass: 2
Flags: HW
LayerCount: 2
Back
Fore
SplineSet
1050 1092 m 1
 14 1092 l 1
 -148 1223 l 1
 883 1223 l 1
 1050 1092 l 1
356 327 m 0
 356 249.587 446.076 217 531 217 c 0
 578.333 217 618.667 225.333 652 242 c 1
 587 373 l 1
 620 402 l 1
 786 293 l 1
 1066 -227 l 1
 842 -116 l 1
 733 87 l 1
 692.028 75.4437 648.4 65 592 65 c 0
 376.283 65 204 194.581 204 442 c 0
 204 482 212.667 518.333 230 551 c 1
 131.224 646.37 103 748.6 103 798 c 0
 103 860.4 135.873 954 328 954 c 2
 644 954 l 1
 644 1022 l 1
 810 1022 l 1
 810 793 l 1
 452 793 l 2
 380.664 793 278 783.7 278 722 c 0
 278 698 296 669.333 332 636 c 1
 373.372 653.731 440.479 673 561 673 c 1
 611 672 l 2
 623.667 672 633 671.333 639 670 c 1
 811 511 l 1
 765 518 l 1
 723 523.333 685.667 526 653 526 c 0
 439.809 526 356 446.4 356 327 c 0
EndSplineSet
EndChar

StartChar: u0926_u094D_u0927
Encoding: 65598 -1 215
Width: 1367
GlyphClass: 2
Flags: HW
LayerCount: 2
Back
Fore
SplineSet
1565 1092 m 1
 14 1092 l 1
 -148 1223 l 1
 1399 1223 l 1
 1565 1092 l 1
284 328 m 0
 284 306.148 301.161 290 327 290 c 0
 337.667 290 345.667 290.667 351 292 c 2
 379 304 l 1
 408.74 314.344 426.216 345.374 429 376 c 1
 429 390 424 401.333 414 410 c 1
 406 414.667 395 417.667 381 419 c 1
 356 415 l 1
 328 401 l 1
 316.038 392.456 284 364.327 284 328 c 0
325 526 m 2
 428.05 526 520 429.691 520 334 c 0
 520 307.333 515 285.333 505 268 c 1
 496.35 247.095 473.983 213.827 409 190 c 1
 386.84 184.46 380.508 184 359 184 c 1
 341 186 l 1
 361.356 163.793 406.6 159 423 159 c 2
 438 159 l 2
 444 159 453.333 159.667 466 161 c 1
 524 172 l 1
 535.374 240.243 569.872 281.082 614 317 c 1
 744 194 l 1
 710.667 161.333 694 129.333 694 98 c 0
 694 49.0578 731.059 -4 802 -4 c 0
 859.169 -4 886.249 17.6994 902 24 c 1
 963.687 63.4113 996.345 151.382 1008 198 c 1
 867.333 217.333 751.333 279.667 660 385 c 1
 576 479.667 534 580.667 534 688 c 0
 534 798.427 594.31 939 813 939 c 2
 1108 939 l 1
 1108 1021 l 1
 1274 1021 l 1
 1274 778 l 1
 936 778 l 2
 795.601 778 737 689.898 737 597 c 0
 737 479.044 827.666 358 973 358 c 1
 1026 359 l 1
 1056 363 l 1
 988 491 l 1
 1018 517 l 1
 1190 408 l 1
 1485 -145 l 1
 1261 -31 l 1
 1176 125 l 1
 1159.77 24.6552 1109.08 -47.9459 1025 -108 c 0
 987.667 -134 936 -147 870 -147 c 0
 714.46 -147 599.025 -79.652 554 25 c 1
 522 21 l 1
 489 20 l 1
 295.242 20 168 175.232 168 344 c 0
 168 412.146 186.123 464.883 227 497 c 1
 241.667 507 257.667 514.667 275 520 c 1
 305 526 l 1
 325 526 l 2
EndSplineSet
EndChar

StartChar: u0926_u094D_u092E
Encoding: 65599 -1 216
Width: 1244
GlyphClass: 2
Flags: HW
LayerCount: 2
Back
Fore
SplineSet
1393 1092 m 1
 14 1092 l 1
 -148 1223 l 1
 1228 1223 l 1
 1393 1092 l 1
1140 168 m 2
 1140 120.319 1169.66 51 1281 51 c 1
 1281 0 l 1
 1039.3 0 973 75.2 973 188 c 2
 973 202 l 1
 796 202 l 2
 737.2 202 708.69 174.459 698 117 c 1
 698 103 698.667 92.3333 700 85 c 1
 700 71 692.667 64 678 64 c 0
 631.275 64 537 161.455 537 220 c 2
 537 250 l 1
 543.846 313.324 567.085 337.697 594 355 c 1
 594 450 l 1
 403 450 l 2
 231.642 450 125 619.598 125 780 c 0
 125 848.757 146 932 230 932 c 2
 571 932 l 1
 571 1017 l 1
 739 1017 l 1
 739 768 l 1
 353 768 l 2
 317.609 768 288 707.742 288 663 c 0
 288 630.392 300.309 608 334 608 c 2
 514 608 l 2
 711.473 608 774 528.891 774 363 c 1
 974 363 l 1
 974 1019 l 1
 1140 1019 l 1
 1140 168 l 2
EndSplineSet
EndChar

StartChar: u0926_u094D_u092F
Encoding: 65600 -1 217
Width: 1236
GlyphClass: 2
Flags: HW
LayerCount: 2
Back
Fore
SplineSet
1381 1092 m 1
 8 1092 l 1
 -155 1223 l 1
 1215 1223 l 1
 1381 1092 l 1
1129 170 m 2
 1129 122.319 1158.66 53 1270 53 c 1
 1272 0 l 1
 1030.3 0 964 75.2 964 188 c 2
 964 169 l 1
 880.407 105.015 749.654 40 610 40 c 0
 376.241 40 206 198 206 435 c 0
 206 475.667 214.667 510.667 232 540 c 1
 186.184 585.816 104 692.355 104 789 c 0
 104 852.6 136.675 948 327 948 c 2
 643 948 l 1
 643 1019 l 1
 809 1019 l 1
 809 787 l 1
 451 787 l 2
 304.3 787 277 742 277 712 c 0
 277 688 295 659.333 331 626 c 1
 389 652.478 469.127 663 557 663 c 1
 610 662 l 2
 624 662 633.667 661.333 639 660 c 1
 811 500 l 1
 769 502 l 1
 725 503 l 1
 542.374 503 371 459.18 371 313 c 0
 371 244.6 440.252 199 534 199 c 0
 622.7 199 791.425 236.573 963 449 c 1
 963 1021 l 1
 1129 1021 l 1
 1129 170 l 2
EndSplineSet
EndChar

StartChar: u0926_u094D_u0935
Encoding: 65601 -1 218
Width: 940
GlyphClass: 2
Flags: HW
LayerCount: 2
Back
Fore
SplineSet
1094 1092 m 1
 8 1092 l 1
 -155 1223 l 1
 930 1223 l 1
 1094 1092 l 1
321 593 m 0
 321 475.044 411.666 354 557 354 c 1
 610 355 l 1
 640 359 l 1
 572 490 l 1
 602 516 l 1
 774 407 l 1
 1067 -140 l 1
 843 -26 l 1
 810 31 l 1
 769.821 -47.1865 688 -140 505 -140 c 0
 270.377 -140 152 3.17672 152 130 c 0
 152 187.35 175.003 274.551 291 335 c 1
 196.624 418.14 114 544.4 114 684 c 0
 114 842.876 223.925 935 397 935 c 2
 692 935 l 1
 692 1017 l 1
 857 1017 l 1
 857 774 l 1
 520 774 l 2
 379.601 774 321 685.898 321 593 c 0
320 64 m 0
 320 35.6 333.295 -7 407 -7 c 0
 492.333 -7 561 15.3333 613 60 c 1
 645.667 86.6667 673 127.667 695 183 c 1
 680 183 l 2
 595.6 183 527.851 198.88 469 222 c 1
 384.066 198.48 320 127.2 320 64 c 0
EndSplineSet
EndChar

StartChar: u0927.half
Encoding: 65602 -1 220
Width: 659
GlyphClass: 3
Flags: HW
AnchorPoint: "N" 120 285 basechar 0
LayerCount: 2
Back
Fore
SplineSet
522 434 m 0
 687.6 434 772.073 545.794 798 591 c 1
 841 580 l 1
 842 341 l 1
 722.002 277.328 644.084 277 617 277 c 0
 370.327 277 223 390.288 223 621 c 0
 223 671.4 226.84 703.857 251 747 c 1
 208.41 780.778 146 845.43 146 1052 c 0
 146 1131.05 203.725 1217 295 1217 c 0
 434.22 1217 523 1138.51 523 1010 c 0
 523 939.693 465.8 863 380 863 c 2
 350 863 l 1
 321 867 l 1
 328.333 850.333 338 837 350 827 c 1
 372 835 395.333 840.333 420 843 c 1
 497 848 l 1
 532 848 l 1
 683 706 l 1
 606 706 l 2
 437.712 706 373 677.4 373 563 c 1
 377 505 l 1
 379.667 483 399 464.333 435 449 c 0
 461 439 490 434 522 434 c 0
262 1013 m 0
 262 986.298 297.021 959 331 959 c 0
 374.2 959 403 1010.3 403 1055 c 1
 398 1081 l 1
 386.934 1085.43 378.12 1091 362 1091 c 0
 317.722 1091 262 1051.31 262 1013 c 0
EndSplineSet
Ligature2: "'half' Half Forms in Devanagari lookup 3 subtable" u0927 u094D
LCarets2: 1 0
EndChar

